<svg width="1600" height="1823" viewBox="0 0 1600 1823" fill="none" xmlns="http://www.w3.org/2000/svg">
<path d="M624.071 22.5854C685.29 7.7266 747.103 0.594354 809.51 0C1246.36 5.34918 1598.81 361.367 1600 798.217C1600 929.569 1568.5 1053.79 1512.04 1163.15C1488.26 1198.22 1462.7 1217.24 1428.83 1247.55C1416.34 1259.44 1402.08 1269.54 1387.22 1277.86C1384.25 1269.54 1390.19 1267.76 1393.16 1264.78C1455.57 1208.92 1493.02 1138.19 1518.57 1059.73C1519.17 1057.95 1519.76 1055.57 1520.36 1052.01C1515.6 1053.19 1514.41 1056.76 1512.63 1059.73C1491.23 1094.8 1465.68 1126.3 1436.55 1154.23C1430.01 1160.77 1423.48 1168.5 1411.59 1169.09C1409.81 1163.15 1413.37 1159.58 1416.34 1156.02C1427.04 1141.75 1437.15 1126.89 1446.06 1110.85C1449.03 1106.09 1450.22 1102.53 1443.09 1099.55C1432.39 1094.8 1432.39 1094.2 1438.34 1084.1C1453.19 1060.92 1465.08 1036.55 1475.19 1011C1479.35 999.108 1483.51 987.221 1486.48 974.74C1474 988.41 1466.86 1005.65 1453.79 1019.91C1449.63 1012.18 1453.79 1006.83 1455.57 1002.08C1466.86 971.768 1475.78 940.267 1482.32 908.767C1484.7 898.068 1485.88 887.37 1488.26 872.511C1483.51 878.455 1480.54 885.587 1478.75 892.719C1471.62 912.333 1463.3 931.946 1454.38 950.371C1450.22 959.287 1446.66 959.881 1438.93 953.343C1436.55 950.966 1434.77 947.994 1433.58 944.428C1432.39 940.862 1431.8 937.296 1432.39 933.729C1431.2 883.804 1425.85 833.878 1416.94 785.141C1410.4 751.857 1399.11 719.762 1382.47 690.044C1374.74 676.374 1367.61 662.704 1349.78 659.732C1343.83 658.544 1342.05 652.6 1336.7 646.657C1337.3 660.327 1338.48 673.403 1340.27 686.478C1342.64 722.734 1349.18 758.395 1349.18 794.651C1349.18 800 1348.59 804.755 1347.99 809.51C1346.21 817.236 1337.89 886.776 1329.57 888.559C1321.25 890.342 1318.87 823.18 1314.12 816.047C1308.77 807.132 1304.61 797.622 1301.63 787.518C1286.18 740.565 1265.38 695.988 1238.63 654.383C1232.69 646.062 1159.58 553.343 1146.51 549.183C1156.61 574.146 1205.94 612.779 1212.48 637.147C1219.61 661.516 1253.49 754.235 1258.25 779.198C1265.38 810.104 1265.38 842.793 1258.25 873.7C1251.71 898.663 1253.49 923.626 1251.11 948.588C1249.93 964.042 1243.98 978.306 1233.88 990.193C1228.53 995.542 1226.75 994.948 1224.37 986.627C1220.8 977.712 1219.61 968.202 1221.99 958.692C1224.37 943.239 1223.18 926.597 1217.83 911.738C1207.73 885.587 1196.43 859.435 1183.36 833.878L1183.07 833.364C1180.23 828.228 1177.76 823.774 1170.28 823.774C1164.93 823.18 1160.18 821.991 1155.42 819.019C1151.26 816.642 1147.7 813.076 1144.73 808.321C1119.76 775.037 1087.07 747.697 1049.63 729.272C1040.12 723.923 1031.2 717.385 1022.29 710.847C1018.72 708.469 1015.16 706.092 1011.59 708.469C1008.02 710.253 1009.81 714.413 1009.81 717.385C1010.4 723.328 1010.4 729.272 1008.62 735.215C1005.05 743.536 1004.46 750.669 1012.78 756.612L655.031 779.198L844.857 892.719L901.634 1217.24C896.285 1229.72 898.663 1235.07 911.738 1240.42C918.871 1243.39 934.918 1252.3 953.343 1262.41L957.585 1263.24C1049.41 1281.35 1231.69 1317.29 1320.06 1406.24C1180.39 1526.3 998.514 1598.81 799.406 1598.81C361.367 1598.81 5.94354 1246.36 0 810.104C0.594354 748.885 7.7266 688.261 21.3967 628.232C55.8692 481.426 130.758 347.103 237.147 240.119C343.536 133.135 477.266 57.6523 624.071 22.5854Z" fill="#4772A4"/>
<path d="M1017.66 1769.41C895.882 1758.98 780.175 1706.43 700.438 1624.89C566.543 1488.31 541.407 1328.96 540.227 1322.16L534.793 1286.81L792.38 1362.08L797.06 1369.17C797.67 1370.28 871.242 1482.67 979.157 1510.94C993.645 1514.65 1007.52 1517.24 1020.12 1518.32C1057.22 1521.5 1076.72 1511.89 1082.84 1502.19C1088.61 1492.46 1085.35 1477.03 1073.46 1459.45C1045.98 1417.97 947.987 1389.14 824.223 1352.47C776.419 1338.51 722.116 1322.23 665.194 1303.61C644.966 1296.94 624.389 1290.25 602.411 1283.43C415.755 1223.75 204.062 1155.93 173.483 1043.7C162.229 1002.21 176.152 958.991 214.78 915.422C257.677 867.284 322.563 846.405 407.25 853.654C498.586 861.473 580.287 899.482 584.017 901.211L615.193 915.863L502.465 1017.94L489.786 1013.68C489.436 1013.65 443.562 997.742 406.468 994.567C386.871 992.889 378.902 995.379 376.683 996.599C366.025 1001.68 364.296 1005.41 364.296 1005.41C364.296 1005.41 367.118 1021.86 420.663 1051.12C460.049 1072.82 516.612 1095.63 579.804 1115.14C678.352 1145.78 754.362 1172.02 842.321 1202.82C916.262 1228.53 999.792 1257.53 1111.22 1294.21C1255.93 1341.49 1354.4 1434.86 1368.17 1537.54C1377.49 1605.66 1346.73 1668.58 1284.33 1709.76C1212.59 1757.19 1118.1 1778.01 1017.66 1769.41Z" fill="white"/>
<path d="M405.973 876.808C494.159 884.357 574.811 922.277 574.811 922.277L497.272 992.121C497.272 992.121 449.008 975.301 408.414 971.826C391.967 970.418 376.74 971.229 366.812 976.019C285.96 1014.56 409.499 1086.82 572.608 1137.43C754.605 1193.9 861.262 1236.86 1103.67 1316.47C1350.54 1397.52 1414.18 1597.17 1271.45 1691.39C1202.69 1736.96 1111.97 1754.93 1020.28 1747.08C909.697 1737.61 797.39 1690.64 717.303 1609.06C586.988 1475.96 563.392 1319.21 563.392 1319.21L778.684 1382.05C778.684 1382.05 856.147 1502.52 974.411 1533.44C990.619 1537.65 1005.55 1540.34 1019.19 1541.51C1100.38 1548.46 1131.02 1503.5 1093.55 1447.07C1049.83 1381.3 885.943 1352.11 673.379 1282.11C431.669 1202.56 74.4572 1109.24 232.829 931.067C276.545 881.589 342.983 871.416 405.973 876.808ZM409.867 831.323C318.881 823.535 245.616 847.574 198.42 900.63C154.324 950.428 138.753 1000.55 152.147 1049.98C168.232 1109.16 223.889 1159.04 327.267 1207.36C382.512 1233.24 447.154 1256.4 510.896 1277.71L517.701 1325.88C518.851 1333.02 545.168 1499.17 684.242 1641.12C767.879 1726.53 888.656 1781.63 1016.04 1792.53C1121.37 1801.55 1220.94 1779.06 1296.39 1729.48C1366.26 1683.29 1400.52 1612.57 1390.22 1535.2C1382.88 1481 1354.26 1428.15 1307.44 1382.2C1259.94 1335.84 1194.45 1297.81 1117.97 1272.94C1006.52 1236.61 923.018 1207.26 849.397 1181.92C761.088 1151.1 685.078 1124.86 586.18 1094.19C494.162 1065.52 437.348 1037.39 408.69 1018.02C442.225 1021.6 482.3 1035.25 482.97 1035.66L508.297 1044.52L528.171 1026.49L605.71 956.642L656.885 910.623L594.532 881.319C590.483 879.21 505.052 839.472 409.867 831.323ZM1022.39 1495.96C1011.19 1495 998.682 1492.87 985.243 1489.26C914.203 1470.84 858.655 1411.46 832.505 1379.26C891.647 1396.66 943.181 1412.35 982.696 1428.42C1021.19 1444.05 1045.66 1458.83 1054.7 1472.65C1060.95 1481.99 1062.86 1488.5 1062.97 1491.33C1059.64 1493.16 1047.58 1498.12 1022.39 1495.96Z" fill="#4772A4"/>
<path d="M847.921 1284.31C827.186 1284.31 807.747 1273.94 791.872 1254.19C765.305 1221.47 751.049 1164.46 759.473 1124.29C769.516 1076.02 807.747 1056.59 838.202 1041.36C845.978 1037.47 853.429 1033.59 859.585 1029.7C864.121 1027.11 868.657 1024.84 873.193 1023.22C873.193 1021.28 873.193 1019.33 873.517 1017.07C873.841 1015.12 874.488 1013.18 874.812 1011.56C873.517 1011.24 872.221 1010.91 871.249 1010.91C841.442 1004.76 800.943 996.011 767.572 977.547C757.529 972.04 746.513 965.238 735.174 957.464C759.149 991.476 773.728 1038.45 774.376 1050.43C774.7 1056.59 772.756 1062.42 768.544 1066.95C764.333 1071.16 758.501 1073.76 752.669 1073.76C744.569 1073.76 738.414 1069.87 727.398 1062.74C724.806 1061.12 720.594 1058.21 715.734 1055.61C716.058 1058.85 715.734 1062.09 714.438 1065.98C712.171 1072.78 707.311 1077.97 700.831 1081.21C696.943 1082.83 693.055 1083.8 689.167 1083.8C686.9 1083.8 684.956 1083.47 683.012 1083.15C694.675 1112.3 714.762 1164.78 670.7 1184.86C642.189 1197.82 624.694 1203.33 610.438 1203.33C596.183 1203.33 584.843 1197.82 576.744 1187.13C567.672 1175.47 567.996 1165.75 567.996 1159.27C567.996 1155.06 567.996 1151.17 564.756 1142.43C563.136 1138.87 561.192 1134.65 559.248 1130.12C547.909 1106.47 532.357 1073.76 549.205 1018.04C558.276 987.589 626.962 920.859 679.124 920.859C682.04 920.859 684.632 921.183 687.547 921.507C689.815 921.831 692.083 922.479 694.675 923.127C683.336 910.817 673.292 896.888 666.488 880.692C659.361 864.819 644.457 830.482 665.192 802.3C661.304 804.568 656.769 805.863 652.233 805.863C637.653 805.863 628.906 795.498 612.382 776.386L608.818 772.175C606.55 769.583 604.607 767.316 602.987 765.696C603.311 776.71 603.311 790.963 598.127 805.216C591.323 824.004 573.504 835.665 552.121 835.665C525.554 835.665 493.479 816.877 483.435 781.245C470.8 735.246 480.519 670.784 532.033 638.715C551.473 626.729 573.504 619.927 594.563 619.927C612.058 619.927 624.046 624.138 631.822 630.616C632.794 585.914 645.429 541.859 668.756 502.663C673.292 492.297 678.476 441.44 683.012 396.414C700.507 223.434 715.734 109.086 769.84 99.6919C775.996 98.7201 782.152 98.0723 787.984 98.0723C813.255 98.0723 835.286 108.438 851.485 127.874C890.688 174.844 891.336 266.193 878.7 335.838C872.869 368.879 862.825 398.681 848.893 425.243C852.133 421.032 855.373 416.173 858.289 410.99C877.404 377.625 927.623 233.152 936.694 189.421C945.442 147.958 974.277 144.718 983.024 144.718C1005.7 144.718 1030.65 161.887 1045.88 188.773C1069.85 230.236 1077.63 312.515 1020.93 407.751C997.28 449.214 963.585 483.875 923.411 509.142C926.003 510.438 928.594 511.733 931.186 513.029C974.277 534.085 1032.92 601.462 1029.03 686.009C1027.41 728.12 993.716 775.414 940.258 801.328C944.794 801.004 949.006 800.68 953.217 800.68C981.728 800.68 1004.41 811.37 1028.71 836.637C1078.6 888.142 1097.72 923.127 1121.37 1006.7C1133.35 1049.46 1130.76 1087.04 1113.59 1109.39C1103.55 1122.67 1089.62 1129.8 1073.74 1129.8C1062.4 1129.8 1051.06 1126.23 1039.72 1118.78C1025.79 1109.71 1017.04 1094.16 1010.89 1076.35C1009.59 1085.74 1007.32 1094.16 1004.41 1101.61C989.828 1137.25 949.33 1175.47 912.071 1177.09C914.015 1182.92 915.635 1188.1 916.607 1191.99C920.819 1210.13 919.847 1238.96 903.647 1260.02C895.224 1271.03 878.7 1284.63 849.541 1285.28C849.217 1284.31 848.569 1284.31 847.921 1284.31ZM671.996 757.274C676.856 768.287 680.42 780.597 674.912 790.963C676.208 789.991 677.828 788.695 679.124 787.723C684.308 783.836 691.111 781.893 698.563 781.893C699.859 781.893 701.155 781.893 702.451 781.893C691.111 774.766 681.068 766.344 671.996 757.274Z" fill="white"/>
<path d="M787.661 117.831C865.094 117.831 874.166 240.277 857.643 330.978C846.951 388.962 822.328 443.382 777.294 481.282C777.294 481.282 780.21 481.93 785.069 481.93C802.241 481.93 844.035 475.776 876.11 420.707C896.521 385.399 947.387 239.629 957.107 192.983C961.319 172.899 971.362 164.801 982.702 164.801C997.929 164.801 1016.4 179.054 1027.41 198.49C1046.85 232.503 1055.28 307.331 1002.47 396.088C972.982 447.594 927.624 487.761 873.518 510.436C890.041 515.619 906.241 522.746 921.468 530.844C960.347 549.632 1011.21 610.855 1007.97 684.064C1006.03 733.625 948.359 790.637 871.898 797.764C864.122 798.412 856.023 798.736 847.275 798.736C772.758 798.736 677.505 769.258 659.038 692.162C644.459 630.615 654.178 565.829 686.577 512.056C705.692 480.311 709.256 130.14 773.082 119.127C778.266 118.155 783.125 117.831 787.661 117.831ZM594.241 640.009C610.116 640.009 621.132 645.192 621.455 651.347C621.779 663.332 623.399 700.908 635.711 730.386C648.023 760.188 662.278 776.384 654.178 782.863C653.53 783.511 652.558 783.835 651.586 783.835C646.403 783.835 638.303 773.793 624.371 757.596C614.976 746.583 605.58 736.865 594.565 736.865C592.297 736.865 590.353 737.189 588.085 738.16C574.153 743.019 587.761 771.201 578.041 797.116C573.829 808.454 563.462 813.636 551.798 813.636C533.007 813.636 510.652 800.031 503.524 774.441C492.184 732.977 502.552 680.5 543.05 655.234C561.194 644.22 579.985 640.009 594.241 640.009ZM698.565 802.623C718.652 802.623 764.658 827.242 798.677 829.509C808.397 830.157 818.764 830.481 829.78 830.481C863.474 830.481 901.705 827.566 928.272 823.031C937.344 821.411 945.443 820.763 952.895 820.763C974.278 820.763 991.774 827.889 1013.48 850.241C1061.11 899.154 1078.28 931.224 1100.96 1011.56C1117.8 1071.49 1100.31 1108.09 1073.74 1108.09C1066.94 1108.09 1059.16 1105.5 1051.39 1100.64C1024.82 1083.15 1021.58 1017.71 1013.16 987.264C1001.82 946.449 985.618 922.478 969.094 906.281C959.051 896.239 949.007 890.732 940.583 890.732C935.4 890.732 930.54 893 926.652 897.535C915.312 911.464 929.568 918.59 937.344 925.069C945.767 931.872 953.543 939.322 960.671 947.096C971.686 958.758 979.138 973.335 982.054 989.208C987.238 1011.56 997.929 1061.44 984.97 1092.87C972.01 1123.96 936.372 1155.38 909.805 1155.38C884.534 1155.38 891.013 1129.15 883.562 1129.15C883.238 1129.15 882.59 1129.15 882.266 1129.47C872.546 1133.03 892.633 1180.33 896.197 1195.88C901.057 1216.61 897.493 1261.96 849.219 1263.58C848.895 1263.58 848.571 1263.58 847.923 1263.58C800.297 1263.58 769.842 1178.06 779.886 1129.15C790.253 1079.91 838.203 1067.92 870.602 1048.16C878.378 1043.3 885.506 1041.68 892.309 1041.68C908.185 1041.68 919.848 1051.4 926.976 1051.4C929.244 1051.4 930.864 1050.43 931.836 1048.16C938.316 1034.56 891.985 1033.59 894.253 1021.28C896.197 1008.97 923.088 1017.07 916.932 1004.43C910.777 991.799 831.724 989.855 778.266 959.73C741.979 939.322 702.776 911.788 685.281 871.944C672.646 843.438 668.758 821.411 691.761 804.89C693.381 803.271 695.649 802.623 698.565 802.623ZM678.801 941.266C680.745 941.266 682.365 941.266 684.309 941.59C718.328 946.449 752.347 1032.61 753.319 1051.73C753.319 1052.37 752.995 1052.7 752.347 1052.7C746.839 1052.7 715.736 1026.14 697.917 1026.14C695.649 1026.14 693.381 1026.46 691.761 1027.43C674.59 1037.15 703.1 1056.26 692.085 1061.44C691.113 1061.77 690.141 1062.09 689.169 1062.09C681.069 1062.09 673.942 1048.49 663.898 1048.49C661.306 1048.49 658.714 1049.46 655.798 1051.4C639.923 1063.06 705.368 1145.02 661.954 1165.1C637.007 1176.44 621.132 1181.62 610.44 1181.62C602.34 1181.62 597.48 1178.71 593.269 1173.52C583.873 1161.54 593.593 1158.62 583.873 1133.68C574.153 1108.74 551.15 1081.53 568.969 1022.9C576.097 1000.87 637.331 941.266 678.801 941.266ZM787.661 75.7197C780.534 75.7197 773.406 76.3676 765.954 77.6633C741.331 81.8744 721.568 100.662 707.636 133.056C699.213 152.168 692.085 177.434 685.605 210.151C674.59 266.516 667.462 336.485 661.954 393.173C658.066 431.721 653.206 479.663 649.318 492.944C629.879 526.309 617.568 562.265 612.708 599.518C607.2 598.546 601.044 597.898 594.241 597.898C569.617 597.898 543.374 605.672 520.695 619.925C459.786 657.825 448.122 732.654 463.025 786.102C474.365 826.594 511.624 856.072 551.798 856.072C582.253 856.072 607.524 839.227 617.568 812.017C622.751 816.552 627.935 820.115 633.767 822.383C633.119 825.622 633.119 828.861 632.795 832.101C632.147 853.156 639.923 873.24 646.403 888.141C648.671 893 650.938 897.535 653.53 902.07C626.639 909.196 601.692 926.041 583.873 940.942C573.181 949.688 537.543 981.109 528.471 1010.59C509.356 1074.4 528.147 1114.25 539.487 1137.89C541.431 1142.1 543.374 1145.67 544.346 1148.91C546.29 1153.76 546.29 1155.06 546.29 1157.98C546.29 1165.43 545.966 1181.3 559.574 1198.79C571.885 1214.66 589.381 1223.09 610.116 1223.09C627.611 1223.09 647.699 1217.26 679.125 1202.68C707.636 1189.72 722.216 1161.54 718.004 1127.53C716.708 1117.48 714.116 1107.77 711.2 1098.05C717.032 1095.13 722.216 1090.92 726.104 1086.06C732.583 1089.95 739.063 1092.54 746.839 1093.51C743.275 1101.29 740.359 1110.03 738.415 1119.43C728.695 1165.75 744.571 1228.92 775.026 1266.82C794.789 1291.11 820.384 1304.72 847.599 1304.72C848.247 1304.72 849.219 1304.72 849.867 1304.72C887.126 1303.75 908.509 1285.93 919.848 1271.03C938.964 1246.09 941.879 1214.66 937.992 1191.34C969.742 1180.33 998.901 1153.12 1015.75 1124.29C1019.31 1128.17 1023.52 1131.41 1028.06 1134.65C1042.64 1144.05 1058.19 1149.23 1073.42 1149.23C1095.45 1149.23 1116.18 1138.86 1130.12 1120.4C1151.5 1092.22 1155.39 1049.14 1141.46 999.25C1117.16 912.436 1096.1 873.888 1043.61 820.115C1028.38 804.242 1013.16 793.229 996.957 786.426C1029.36 757.272 1048.47 720.668 1049.77 685.036C1052.04 632.235 1032.6 589.8 1015.75 563.561C1000.85 540.238 982.054 520.154 961.967 505.577C992.746 481.282 1018.99 450.833 1038.75 416.496C1099.99 313.486 1090.59 222.785 1063.7 176.463C1044.26 142.774 1013.16 121.718 982.378 121.718C956.135 121.718 925.032 137.915 915.312 183.265C913.369 192.659 909.481 206.588 904.621 222.461C901.057 180.026 889.717 140.182 866.714 112.648C846.951 88.677 819.412 75.7197 787.661 75.7197ZM794.789 1041.68C793.169 1031.97 789.605 1020.63 785.393 1008.97C799.649 1014.8 814.552 1019.01 828.484 1022.9C818.116 1028.08 806.453 1033.91 794.789 1041.68Z" fill="#4772A4"/>
<path d="M768.87 634.503C775.026 638.714 782.478 640.981 789.929 640.981C795.113 640.981 804.833 638.066 804.833 638.066C804.833 638.066 813.905 633.207 817.468 629.644C821.032 626.081 823.948 621.869 825.892 617.01C827.836 612.475 828.808 607.293 828.808 602.11C828.808 594.659 826.54 587.209 822.328 580.73C818.116 574.575 812.285 569.393 805.157 566.477C798.029 563.562 790.577 562.914 783.126 564.21C775.674 565.505 768.87 569.393 763.362 574.575C757.855 579.758 754.291 586.561 752.671 594.011C751.051 601.462 752.023 609.236 754.615 616.039C757.531 624.461 762.391 630.292 768.87 634.503Z" fill="#ED6A45"/>
<path d="M721.071 1228.83C718.842 1253.36 763.375 1284.16 800.513 1296.35C849.783 1312.52 836.902 1296.35 836.902 1296.35L800.513 1247.78C800.513 1247.78 777.567 1205.11 768.605 1203.18C753.008 1199.84 722.965 1207.97 721.071 1228.83Z" fill="#4772A4"/>
<path d="M508.5 1168.03C506.27 1186.31 556.871 1211.16 584.318 1217.87C611.766 1224.57 608.845 1211.22 608.845 1211.22L598.491 1186.02C598.491 1186.02 575.53 1154.22 566.561 1152.79C550.953 1150.3 510.395 1152.5 508.5 1168.03Z" fill="#4772A4"/>
</svg>
