<svg width="88" height="87" viewBox="0 0 88 87" fill="none" xmlns="http://www.w3.org/2000/svg">
<path d="M44 86.002C68.0244 86.002 87.5 66.7498 87.5 43.001C87.5 19.2522 68.0244 0 44 0C19.9756 0 0.5 19.2522 0.5 43.001C0.5 66.7498 19.9756 86.002 44 86.002Z" fill="white"/>
<rect x="9.5" y="16.1786" width="35.0741" height="7.51587" rx="1.25265" fill="#25306A"/>
<rect x="9.5" y="27.4524" width="22.5476" height="7.51587" rx="1.25265" fill="#ED6A45"/>
<rect x="34.5529" y="27.4524" width="10.0212" height="7.51587" rx="1.25265" fill="#25306A"/>
<rect x="34.5529" y="43.4841" width="10.0212" height="7.51587" rx="1.25265" fill="#ED6A45"/>
<rect x="22.0265" y="43.4841" width="10.0212" height="7.51587" rx="1.25265" fill="#ED6A45"/>
<rect x="9.5" y="43.4841" width="10.0212" height="7.51587" rx="1.25265" fill="#ED6A45"/>
<rect x="38.3109" y="22.4418" width="2.50529" height="5.01058" fill="#25306A"/>
<rect x="19.5212" y="23.6945" width="2.50529" height="3.75794" fill="#25306A"/>
<rect x="19.5212" y="33.7156" width="2.50529" height="5.01058" fill="#ED6A45"/>
<rect x="13.2579" y="39.7262" width="2.50529" height="5.01058" fill="#ED6A45"/>
<rect x="38.3109" y="39.7262" width="2.50529" height="5.01058" fill="#ED6A45"/>
<rect x="25.7844" y="39.7262" width="2.50529" height="5.01058" fill="#ED6A45"/>
<rect x="13.2579" y="38.4736" width="27.5582" height="2.50529" fill="#ED6A45"/>
<rect x="38.5" y="37" width="39.4839" height="34" rx="2.19355" fill="#25306A"/>
<rect x="41.7903" y="45.7742" width="32.9032" height="21.9355" rx="1" fill="white"/>
<path d="M48.1242 61.1656C47.3266 61.1656 46.5711 61.0117 45.8575 60.7038C45.1544 60.396 44.5352 59.9713 44 59.4299L45.0704 58.1561C45.4902 58.5701 45.9676 58.9045 46.5028 59.1592C47.0485 59.414 47.6047 59.5414 48.1714 59.5414C48.864 59.5414 49.394 59.3875 49.7613 59.0796C50.139 58.7718 50.3279 58.3737 50.3279 57.8854C50.3279 57.5244 50.2492 57.2378 50.0918 57.0255C49.9344 56.8025 49.714 56.6168 49.4307 56.4682C49.1579 56.3195 48.843 56.1656 48.4862 56.0064L46.8806 55.3057C46.5028 55.1465 46.1303 54.9395 45.763 54.6847C45.4062 54.4193 45.1071 54.0902 44.8658 53.6975C44.6349 53.2941 44.5195 52.8057 44.5195 52.2325C44.5195 51.6168 44.6821 51.0648 45.0074 50.5764C45.3328 50.0881 45.784 49.7059 46.3612 49.4299C46.9383 49.1433 47.5942 49 48.3288 49C49.0109 49 49.6563 49.1327 50.265 49.3981C50.8736 49.6635 51.3931 50.0244 51.8234 50.4809L50.8946 51.6592C50.5273 51.3301 50.1338 51.0754 49.714 50.8949C49.3048 50.7038 48.843 50.6083 48.3288 50.6083C47.7307 50.6083 47.2584 50.7463 46.9121 51.0223C46.5658 51.2877 46.3927 51.6486 46.3927 52.1051C46.3927 52.4448 46.4819 52.7261 46.6603 52.949C46.8387 53.1614 47.0695 53.3418 47.3529 53.4904C47.6467 53.6285 47.9458 53.7611 48.2501 53.8885L49.84 54.5732C50.3017 54.7643 50.711 54.9979 51.0678 55.2739C51.4246 55.5499 51.7027 55.8843 51.9021 56.2771C52.1014 56.6699 52.2011 57.1582 52.2011 57.742C52.2011 58.3684 52.0385 58.9416 51.7132 59.4618C51.3878 59.9713 50.9209 60.3854 50.3122 60.7038C49.7035 61.0117 48.9742 61.1656 48.1242 61.1656Z" fill="#ED6A45"/>
<path d="M58.803 61.1656C57.8165 61.1656 56.9403 60.9161 56.1742 60.4172C55.4186 59.9183 54.8257 59.2123 54.3954 58.2994C53.9652 57.3758 53.75 56.2877 53.75 55.035C53.75 53.7718 53.9652 52.6943 54.3954 51.8025C54.8257 50.9002 55.4186 50.2102 56.1742 49.7325C56.9403 49.2442 57.8165 49 58.803 49C59.7999 49 60.6762 49.2442 61.4317 49.7325C62.1873 50.2102 62.7802 50.9002 63.2105 51.8025C63.6407 52.6943 63.8559 53.7718 63.8559 55.035C63.8559 56.2877 63.6407 57.3758 63.2105 58.2994C62.7802 59.2123 62.1873 59.9183 61.4317 60.4172C60.6762 60.9161 59.7999 61.1656 58.803 61.1656ZM58.803 59.621C59.4431 59.621 59.9993 59.4406 60.4715 59.0796C60.9542 58.7081 61.3268 58.1773 61.5891 57.4873C61.8515 56.7972 61.9827 55.9798 61.9827 55.035C61.9827 54.1221 61.8515 53.3365 61.5891 52.6783C61.3268 52.0096 60.9542 51.5 60.4715 51.1497C59.9993 50.7887 59.4431 50.6083 58.803 50.6083C58.1628 50.6083 57.6014 50.7887 57.1187 51.1497C56.6464 51.5 56.2791 52.0096 56.0168 52.6783C55.7649 53.3365 55.639 54.1221 55.639 55.035C55.639 55.9798 55.7649 56.7972 56.0168 57.4873C56.2791 58.1773 56.6464 58.7081 57.1187 59.0796C57.6014 59.4406 58.1628 59.621 58.803 59.621ZM62.4392 64C61.6731 64 60.9857 63.862 60.3771 63.586C59.7684 63.3206 59.2542 62.949 58.8344 62.4713C58.4147 62.0042 58.0894 61.4788 57.8585 60.8949L59.7474 60.7197C59.8943 61.1125 60.1095 61.4416 60.3928 61.707C60.6866 61.9724 61.0277 62.1635 61.416 62.2803C61.8043 62.4076 62.2135 62.4713 62.6438 62.4713C62.8957 62.4713 63.1213 62.4554 63.3207 62.4236C63.5305 62.3917 63.7194 62.3439 63.8873 62.2803L64.2337 63.6815C64.0448 63.7665 63.7929 63.8408 63.4781 63.9045C63.1633 63.9682 62.817 64 62.4392 64Z" fill="#ED6A45"/>
<path d="M66.2628 60.9427V49.207H68.0888V59.3662H73V60.9427H66.2628Z" fill="#ED6A45"/>
<rect x="69.2097" y="41.3871" width="5.48387" height="2.19355" fill="#ED6A45"/>
</svg>
