<svg width="56" height="60" viewBox="0 0 56 60" fill="none" xmlns="http://www.w3.org/2000/svg">
<path d="M47.6195 8.17084C42.3436 2.90519 35.3431 0 27.8887 0C20.5138 0 13.4679 2.90519 8.23736 8.10275C2.90472 13.4024 -0.0225611 20.4725 0.000130947 27.9965C0.022823 35.3729 2.9501 42.4089 8.16929 47.6292C13.4339 52.8948 20.4457 55.8 27.8887 55.8C27.8887 43.0217 27.8887 30.2434 27.8887 17.4652C31.6494 17.4652 34.6336 19.0203 36.2281 21.5279C36.5684 21.9705 36.8748 22.4358 37.1471 22.9351C37.5685 23.7313 38.618 24.0534 39.4087 23.6882C40.3886 23.2356 40.5087 22.2395 40.2136 21.5279C39.6122 20.4044 38.7917 19.2886 38.0775 18.2709C37.7484 17.6467 37.8165 16.8523 38.3157 16.3076C39.0078 15.5473 40.1992 15.5473 40.8799 16.319C43.2967 19.0312 44.8738 22.4925 45.2255 26.3056C45.3049 27.2021 46.0651 27.8943 46.9728 27.8943C48.0053 27.8943 48.8222 27.0092 48.7201 25.9764C48.6066 24.6941 48.3683 23.4571 48.0393 22.2542C47.801 21.3917 48.2549 20.4838 49.0945 20.1774L49.1399 20.1661C50.0702 19.8256 51.0914 20.3477 51.3637 21.3123C51.9537 23.4117 52.2714 25.6246 52.2714 27.9057C52.2714 31.3102 51.5566 34.7034 50.1837 37.8015C49.8093 38.6526 50.1383 39.6513 50.9666 40.0825C51.8629 40.5591 52.9748 40.1846 53.3946 39.2541C54.9717 35.702 55.8 31.8209 55.8 27.917C55.7887 20.4498 52.8841 13.4365 47.6195 8.17084Z" fill="#7497F7"/>
<path d="M34.0355 58.8C30.0034 58.8 22.4565 57.463 17.1522 48.4759L15.9554 46.4493L17.1845 46.5554C15.6536 46.2159 14.252 45.8233 13.0122 45.3989C9.07703 44.0407 6.76986 42.343 6.15533 40.327C5.85345 39.3403 5.73486 37.3985 8.31157 35.4356C9.91797 34.2154 11.8694 33.6 14.1226 33.6C16.7101 33.6 18.7693 34.4382 18.8556 34.47L20.5914 35.1809L16.5915 39.0113L15.9447 38.884C15.7075 38.831 15.4703 38.8097 15.2223 38.8097C14.3059 38.8097 13.6806 39.1387 13.4758 39.3297C13.6914 39.5631 14.6186 40.2952 17.9392 40.7727C20.5806 41.1547 23.5993 41.473 27.0924 41.8444C30.7904 42.2369 34.9951 42.6826 39.4585 43.2874C42.488 43.7012 44.8167 44.4864 46.3585 45.6111C48.3422 47.0647 48.6656 48.7624 48.5902 49.9296C48.4392 52.126 46.7142 54.386 43.8788 56.1049C41.0325 57.845 37.5394 58.8 34.0355 58.8ZM27.0709 47.9985C28.4077 48.5608 30.5101 49.3036 32.3537 49.3036C32.9035 49.3036 33.3887 49.2399 33.7983 49.102C33.9708 49.0489 34.111 48.9958 34.2512 48.9428C33.3671 48.6775 31.6637 48.338 28.4509 48.1046C27.9765 48.0727 27.5129 48.0303 27.0709 47.9985Z" fill="white"/>
<path d="M14.6247 34.2899C16.9505 34.2899 19.3869 35.2306 19.3869 35.2306L17.3536 37.2127C17.035 37.1478 16.7058 37.1153 16.3872 37.1153C12.2854 36.9302 9.8153 39.8572 18.193 41.6078C23.6728 42.4305 30.9792 42.9934 39.4006 44.1842C54.417 46.306 45.5601 57.5102 34.2394 57.5102C28.8234 57.5102 22.8551 54.9446 18.6709 47.605L25.4569 48.1896C25.4569 48.1896 29.3012 50.3222 32.5721 50.3222C33.2093 50.3222 33.8146 50.2464 34.3775 50.0516C37.9139 48.85 37.2023 47.237 28.8021 46.6091C11.1202 45.2776 4.47371 40.233 9.64407 35.9029C11.2264 34.6579 13.0318 34.2899 14.6247 34.2899ZM14.6247 31.8C12.1291 31.8 9.95204 32.5145 8.14668 33.9326C5.03509 36.39 5.22625 38.9556 5.60856 40.2655C6.58558 43.5672 10.6848 45.6673 15.5062 46.9988L16.5575 48.85C18.7346 52.6713 21.5063 55.5725 24.7878 57.4777C27.5277 59.0685 30.8623 60 34.2394 60C37.9139 60 41.5777 58.9716 44.5618 57.088C47.7053 55.107 49.6062 52.4548 49.7868 49.8134C49.9248 47.6916 48.9797 45.7431 47.1 44.325C45.4114 43.0476 42.9264 42.1707 39.7405 41.7161C35.3226 41.0882 31.1809 40.6335 27.5277 40.233C24.0976 39.8541 21.8139 39.5293 19.2439 39.1396C19.1484 39.1288 19.0528 39.1071 18.9678 39.0963L19.0634 38.9989L21.0542 37.1153L23.8529 34.2357L20.444 32.7852C20.1997 32.6769 17.3646 31.8 14.6247 31.8Z" fill="#7497F7"/>
<path d="M27.55 47.4C26.5351 47.4 25.6354 46.908 25.0495 46.0095C24.4531 45.111 24.2125 43.913 24.3485 42.6616C24.0451 43.0788 23.501 43.4317 22.528 43.5601C22.3711 43.5815 22.2141 43.5922 22.0572 43.5922C20.8854 43.5922 19.881 43.0039 19.2951 41.9771C18.5941 40.747 18.615 39.1212 19.3369 37.8377C20.0588 36.5541 21.7433 35.8803 23.0407 35.8803C23.2813 35.8803 23.501 35.9017 23.6998 35.9445C23.1767 35.3669 22.8 34.7572 22.5698 34.1903C22.2246 33.3453 22.1618 32.5538 22.4024 31.9334C22.3292 31.9441 22.2664 31.9548 22.1932 31.9548C22.099 31.9548 22.0258 31.9441 21.9421 31.9334C22.0572 32.511 22.3606 34.0085 20.6134 34.5647C20.3936 34.6395 20.1635 34.6716 19.9333 34.6716C19.0858 34.6716 18.3011 34.1796 17.8303 33.356C17.1921 32.2329 17.2654 30.7462 18.0396 29.3878C18.751 28.1256 20.2472 27.3448 21.2411 27.3448C21.3876 27.3448 21.5131 27.3555 21.6282 27.3876C21.4922 26.7137 21.4399 25.9971 21.4922 25.2698C21.6178 23.5263 22.3083 21.8256 23.4382 20.4886C24.0764 19.7292 24.3694 17.4295 24.5996 15.5791C24.767 14.2314 24.9344 12.9479 25.2169 11.921C25.3633 11.3755 25.8237 9.72833 27.2257 9.61067C27.3303 9.59998 27.4349 9.59998 27.5395 9.59998C28.4916 9.59998 29.3181 9.98504 29.9145 10.7231C30.6573 11.6215 31.0131 12.9799 30.9608 14.6164C31.4734 12.9906 32.1221 11.3434 33.6915 11.3434C33.8798 11.3434 34.0786 11.3755 34.2774 11.429C35.2085 11.6964 35.9514 12.4024 36.3699 13.4292C36.9976 14.9694 36.8302 16.9696 35.92 18.6596C34.8947 20.5742 33.5136 21.601 32.3523 22.1465C32.6557 22.3604 32.9591 22.6064 33.252 22.8952C35.0934 24.6494 35.627 26.7672 34.79 29.0241C34.4134 30.0509 33.7124 30.8638 32.7498 31.4307C34.6017 31.5591 35.6793 32.7463 36.9662 34.8107C38.2427 36.875 38.703 38.8324 38.2008 40.0518C37.9392 40.6721 37.437 41.1 36.7884 41.2283C36.5477 41.2818 36.3176 41.3032 36.1083 41.3032C35.3759 41.3032 34.8528 41.0358 34.4552 40.5866C34.3715 41.0786 34.2251 41.5385 33.9949 41.9343C33.5764 42.6509 32.9382 43.1322 32.1326 43.3141C31.871 43.3782 31.6094 43.4103 31.3688 43.4103C30.9084 43.4103 30.5527 43.3034 30.2702 43.1536C30.5213 44.2339 31.0235 46.4266 28.6695 47.2074C28.2928 47.3358 27.9162 47.4 27.55 47.4ZM24.7774 40.4582C24.7042 40.5438 24.7042 40.747 24.7147 41.0572C24.7147 41.0679 24.7147 41.0786 24.7147 41.0893C24.7356 41.0465 24.746 40.993 24.767 40.9502C24.8507 40.7363 24.9448 40.5331 25.0495 40.3512C24.9448 40.394 24.8297 40.4368 24.7774 40.4582ZM26.6921 37.7735C26.8804 38.0302 26.9641 38.3404 26.9327 38.6506C27.4035 38.426 27.8743 38.3083 28.2405 38.2013H28.251C28.0627 38.1479 27.8534 38.0944 27.6651 38.0409C27.3721 37.966 27.0478 37.8805 26.6921 37.7735ZM23.3127 30.5322C23.3441 30.6392 23.3545 30.7569 23.3441 30.8638C23.4382 30.821 23.5324 30.7996 23.6161 30.7782C23.5115 30.6927 23.4068 30.6071 23.3127 30.5322ZM27.2884 24.5531C27.1733 24.5531 27.0792 24.6494 27.0687 24.767C27.0687 24.8419 27.1001 24.8954 27.1315 24.9275C27.1629 24.9596 27.2047 24.9917 27.278 24.9917C27.4035 24.9917 27.4977 24.8954 27.4977 24.7777C27.5081 24.6601 27.414 24.5531 27.2884 24.5531Z" fill="white"/>
<path d="M27.5163 10.2441C29.5782 10.2441 30.5339 12.6088 29.9433 15.928C29.3312 19.3775 27.5163 20.7008 27.5163 20.7008C27.5163 20.7008 27.5271 20.7008 27.5593 20.7008C27.8278 20.7008 29.4171 20.549 31.0816 17.0236C31.9085 15.2555 32.2628 12.0122 33.8307 12.0122C33.9488 12.0122 34.0669 12.0339 34.1851 12.0664C36.0536 12.5979 36.6872 15.5701 35.3234 18.0758C33.4011 21.612 30.1044 21.7856 30.1044 21.7856C30.1044 21.7856 35.3234 24.1352 34.1099 28.7061C33.3689 30.6912 31.2212 31.4613 29.009 31.4613C26.6787 31.4613 24.0477 29.8776 23.1349 28.7061C21.7282 26.9006 21.8785 23.456 23.994 20.972C25.8196 18.8243 25.0464 10.4502 27.2801 10.2658C27.3553 10.2441 27.4304 10.2441 27.5163 10.2441ZM21.0409 28.2397C21.7282 29.4851 22.7855 30.3541 22.6242 30.6257C22.4629 30.8973 22.2747 31.0708 22.0074 31.0708C21.8141 31.0708 21.5993 30.9298 21.363 30.9298C21.2664 30.9298 21.159 30.9515 21.0409 31.0274C20.1603 31.5915 21.857 33.2077 20.1066 33.7609C19.967 33.8043 19.8274 33.826 19.6878 33.826C18.3992 33.826 17.3253 31.9712 18.5388 29.8451C19.1079 28.858 20.3321 28.2397 21.0409 28.2397ZM23.8759 31.3715C24.4558 31.3715 25.2949 32.1559 26.6799 32.4758C27.5559 32.6782 28.4613 32.7413 28.9768 32.7413C29.9755 32.7413 30.6198 32.5569 31.9514 32.4159C32.1447 32.3942 32.3273 32.3833 32.4991 32.3833C34.1529 32.3833 35.0979 33.2837 36.4187 35.3989C37.9329 37.8178 38.2765 40.2042 36.8161 40.508C36.6335 40.5513 36.4617 40.5622 36.3006 40.5622C35.0871 40.5622 34.7327 39.4124 34.1743 37.4165C33.7018 35.7568 32.9286 35.0735 32.4776 35.0735C32.3595 35.0735 32.2628 35.1277 32.1984 35.2145C31.7903 35.8436 32.9823 36.4945 33.5407 38.4904C34.0562 40.3344 33.6481 42.2544 32.0266 42.6232C31.8118 42.6774 31.6185 42.6991 31.4467 42.6991C30.4695 42.6991 30.2225 41.994 29.7607 41.994C28.9584 41.994 31.0344 46.5939 27.5271 46.756C25.4652 46.756 24.5095 44.055 25.5189 41.4842C26.5391 38.87 29.3741 39.5317 29.6104 38.5988C29.8681 37.5683 28.6654 37.5575 26.7217 36.9717C24.0048 36.1582 22.5228 33.3596 23.1349 32.1989C23.3175 31.8301 23.5967 31.3715 23.8759 31.3715ZM22.8879 36.8958C23.3068 36.8958 23.6719 36.9826 23.8759 37.167C24.8531 38.0456 26.1847 38.1216 25.9592 38.8375C25.68 39.6836 24.5095 39.4775 24.0263 39.9873C23.1349 40.9418 24.6598 42.5581 22.2544 42.851C22.1255 42.8618 21.9966 42.8727 21.8785 42.8727C19.6556 42.8727 19.1291 40.5651 19.9088 38.7184C20.4779 37.7422 21.8678 36.8958 22.8879 36.8958ZM27.5163 8.40002C27.3875 8.40002 27.2479 8.41087 27.119 8.42172C26.2921 8.49765 25.5511 8.94239 25.0357 9.69085C24.7243 10.1356 24.4665 10.7105 24.2625 11.4373C23.9511 12.5437 23.7793 13.8671 23.5967 15.2772C23.4571 16.3294 23.3175 17.4141 23.1242 18.3036C22.8772 19.41 22.6517 19.7246 22.6087 19.768C20.8604 21.8307 20.4105 24.0464 20.6006 26.6065C19.4086 26.8451 17.7548 27.5563 16.9709 28.9339C16.0259 30.6044 15.94 32.4484 16.7669 33.8803C17.4112 35.0084 18.5066 35.6809 19.7093 35.6809C20.01 35.6809 20.4792 35.5736 20.7691 35.4868C19.8563 35.8881 18.8287 36.8025 18.3133 37.7136C17.5297 39.0986 17.4434 41.0561 18.3133 42.5747C19.0757 43.9089 20.3536 44.7275 21.9 44.7275C22.0933 44.7275 22.2973 44.7167 22.5014 44.695C22.6839 44.6733 23.0061 44.6299 23.3819 44.5214C23.5001 45.3567 23.79 46.1377 24.2303 46.7885C25.0035 47.9383 26.2169 48.6 27.5593 48.6C28.0318 48.6 28.5043 48.5241 28.9875 48.3614C30.3728 47.9058 30.9854 47.0284 31.3349 45.7521C31.3886 45.3941 31.4789 44.8577 31.4574 44.5214C31.7689 44.5214 32.1232 44.5106 32.4561 44.4347C33.53 44.1852 34.3891 43.556 34.9475 42.6015C35.0227 42.4713 35.0871 42.3411 35.1516 42.2001C35.5704 42.3628 35.9784 42.4062 36.3328 42.4062C36.612 42.4062 36.9127 42.3737 37.2134 42.3086C38.1691 42.1133 38.9423 41.4734 39.3182 40.573C40.231 38.3927 38.6953 35.5399 37.9866 34.4118C37.149 33.0776 35.9464 31.7325 34.5611 31.0274C35.0014 30.5285 35.2928 29.9513 35.529 29.3222C36.5488 26.6065 35.529 24.1624 33.5407 22.37C34.7113 21.5673 36.2254 20.2995 36.9557 18.9653C38.0188 17.0128 38.2121 14.6697 37.4496 12.8583C36.902 11.5566 35.9355 10.6454 34.7005 10.2983C34.4213 10.2224 34.1314 10.179 33.8522 10.179C33.1864 10.179 32.2951 10.3959 31.5111 11.3396C31.3071 10.7864 31.0279 10.2983 30.6843 9.87525C29.8681 8.92069 28.7513 8.40002 27.5163 8.40002ZM21.1268 35.3447C21.3523 35.2362 21.5563 35.1169 21.7282 34.9867C21.7604 35.0518 21.7926 35.106 21.8248 35.1711C21.5886 35.2145 21.363 35.2687 21.1268 35.3447Z" fill="#7497F7"/>
<path d="M28.7998 25.2284C28.7771 25.8768 28.2426 26.4 27.5943 26.4H27.5716C26.912 26.3886 26.3888 25.8313 26.4002 25.1716C26.4229 24.5232 26.9574 24 27.6057 24H27.6284C28.288 24.0114 28.8112 24.5687 28.7998 25.2284Z" fill="#FF8B8B"/>
</svg>
