<svg width="120" height="29" viewBox="0 0 120 29" fill="none"
  xmlns="http://www.w3.org/2000/svg">
  <path d="M31.2865 14.1687C31.626 15.7752 31.626 15.9439 31.626 16.1557C31.626 18.9039 28.5384 20.426 24.48 20.426C15.306 20.426 7.27135 15.0574 7.27135 11.5049C7.27108 11.0105 7.37188 10.5212 7.56757 10.0671C4.27027 10.2357 0 10.8282 0 14.5903C0 20.7633 14.6292 28.3741 26.2141 28.3741C35.0919 28.3741 37.3341 24.359 37.3341 21.1871C37.3341 18.692 35.1719 15.8595 31.28 14.1687M24.9038 16.4087C27.3557 16.4087 30.906 15.9028 30.906 12.9839C30.9129 12.7588 30.8925 12.5338 30.8454 12.3136L29.386 5.96547C29.0465 4.57088 28.7503 3.93736 26.2984 2.71142C24.3957 1.73844 20.2443 0.131958 19.027 0.131958C17.8854 0.131958 17.546 1.61088 16.1924 1.61088C14.8822 1.60439 13.9114 0.523309 12.6854 0.523309C11.5005 0.523309 10.7395 1.32547 10.147 2.9752C10.147 2.9752 8.49946 7.62601 8.28757 8.30277C8.25262 8.42643 8.23801 8.55496 8.24433 8.68331C8.24433 10.4909 15.3622 16.4195 24.9038 16.4195" fill="#EE0000"/>
  <path d="M31.2865 14.1688C31.626 15.7752 31.626 15.9439 31.626 16.1558C31.626 18.9039 28.5384 20.4261 24.48 20.4261C15.306 20.4261 7.27136 15.0574 7.27136 11.505C7.27109 11.0105 7.37189 10.5212 7.56758 10.0671L8.28758 8.29199C8.25262 8.41565 8.23802 8.54418 8.24434 8.67253C8.24434 10.4801 15.3622 16.4088 24.9038 16.4088C27.3557 16.4088 30.906 15.9028 30.906 12.9839C30.9129 12.7588 30.8925 12.5338 30.8454 12.3136L31.2779 14.1688H31.2865Z" fill="black"/>
  <path d="M44.2313 21.5568H47.7838V16.3071H50.4865L53.2086 21.5676H57.1697L53.987 15.7817C54.7945 15.453 55.4851 14.8903 55.9702 14.1659C56.4553 13.4415 56.7127 12.5886 56.7092 11.7168C56.7092 9.12224 54.6681 7.11791 51.6151 7.11791H44.2313V21.5568ZM51.2843 10.1493C52.4605 10.1493 53.12 10.8931 53.12 11.7795C53.12 12.666 52.4605 13.4098 51.2843 13.4098H47.7838V10.1493H51.2843ZM57.04 16.1103C57.04 19.2866 59.6346 21.7622 62.9794 21.7622C64.6538 21.8157 66.285 21.2253 67.5373 20.1125L65.3319 18.1536C64.8151 18.6898 64.0519 18.9774 63.1459 18.9774C62.5764 18.9934 62.0153 18.8368 61.5364 18.5281C61.0575 18.2194 60.6832 17.773 60.4627 17.2476H68.2465V16.4195C68.2465 12.9601 65.9157 10.4585 62.7394 10.4585C61.992 10.4466 61.2498 10.5844 60.5564 10.8637C59.8631 11.143 59.2326 11.5582 58.7021 12.0849C58.1716 12.6115 57.7519 13.239 57.4675 13.9303C57.1832 14.6216 57.04 15.3629 57.0465 16.1103M62.6681 13.1828C63.1847 13.1877 63.6861 13.3584 64.0983 13.6699C64.5106 13.9813 64.8119 14.4169 64.9578 14.9125H60.4021C60.7308 13.8185 61.5567 13.1828 62.6702 13.1828M77.8054 21.5568H81.107V6.39575L77.7686 7.11791V11.226C76.9199 10.7447 75.9594 10.4956 74.9838 10.5039C71.8075 10.5039 69.3124 12.9601 69.3124 16.0952C69.3018 16.832 69.4382 17.5636 69.7137 18.247C69.9891 18.9305 70.3982 19.5521 70.9168 20.0756C71.4354 20.5991 72.0533 21.0138 72.7341 21.2957C73.415 21.5775 74.1453 21.7207 74.8821 21.7168C75.9344 21.7217 76.9605 21.389 77.8097 20.7676V21.572L77.8054 21.5568ZM72.5924 16.0909C72.5924 14.5233 73.8292 13.3255 75.4594 13.3255C76.308 13.3075 77.1323 13.6093 77.7686 14.1709V17.9871C77.4598 18.2764 77.0967 18.5018 76.7004 18.6502C76.3041 18.7987 75.8824 18.8672 75.4594 18.852C73.8508 18.852 72.5924 17.6563 72.5924 16.0887M86.1103 21.5547H89.6584V15.9049H95.6V21.5568H99.1459V7.11791H95.6V12.666H89.6584V7.11791H86.1103V21.5568V21.5547ZM104.242 21.7406C105.31 21.78 106.363 21.4836 107.254 20.8931V21.5547H110.554V14.5644C110.554 11.9028 108.759 10.439 105.769 10.439C104.097 10.439 102.448 10.8303 100.672 11.6347L101.87 14.0887C103.148 13.5525 104.221 13.2239 105.17 13.2239C106.551 13.2239 107.254 13.7601 107.254 14.852V15.3882C106.445 15.1795 105.613 15.0756 104.778 15.079C101.968 15.079 100.281 16.2552 100.281 18.359C100.281 20.2768 101.808 21.7428 104.242 21.7428M103.222 18.2963C103.222 17.5763 103.944 17.2152 105.038 17.2152C105.705 17.2187 106.369 17.3022 107.016 17.4639V18.8671C106.378 19.2152 105.661 19.3924 104.934 19.3817C103.853 19.3817 103.222 18.9687 103.222 18.2876M113.6 18.2271C113.6 20.5579 115.001 21.6866 117.559 21.6866C118.346 21.6666 119.128 21.5556 119.89 21.3558V18.6531C119.4 18.8044 118.889 18.8774 118.376 18.8693C117.323 18.8693 116.932 18.5385 116.932 17.5504V13.4293H120V10.6444H116.947V7.11791L113.606 7.84008V10.6509H111.399V13.4293H113.606V18.2358L113.6 18.2271Z" fill="black"/>
</svg>
