<svg width="100" height="26" viewBox="0 0 100 26" fill="none"
  xmlns="http://www.w3.org/2000/svg">
  <path d="M99.8014 6.15222C99.6761 6.00948 99.4977 5.93811 99.2835 5.93811H90.6835C90.4876 5.93811 90.3266 6.00948 90.1838 6.15222C90.0592 6.29496 90.0053 6.47338 90.0053 6.65181V20.4975C90.0053 20.6759 90.0592 20.8543 90.1838 20.997C90.3091 21.122 90.4876 21.1933 90.666 21.1933H91.6647C91.8432 21.1933 92.0217 21.1398 92.1644 21.0149C92.3072 20.8722 92.3786 20.7116 92.3786 20.5153V14.9485H97.0712C97.2497 14.9485 97.4282 14.8949 97.5709 14.7701C97.7137 14.6273 97.7851 14.4489 97.7851 14.2705V13.4676C97.7851 13.2713 97.7137 13.1108 97.5709 12.9858C97.4457 12.8431 97.2672 12.7717 97.0712 12.7717H92.3786V8.13273H99.266C99.462 8.13273 99.6405 8.07919 99.7832 7.93649C99.926 7.79372 99.9974 7.63314 99.9974 7.43687V6.65181C100.015 6.45554 99.9442 6.27712 99.8014 6.15222Z" fill="#2F74E9"/>
  <path d="M87.544 20.2477L84.4037 14.8058C85.2779 14.5203 85.9917 14.0385 86.5089 13.3605C87.08 12.629 87.3656 11.7012 87.3656 10.5771C87.3656 9.09624 86.8833 7.91864 85.9203 7.13355C84.9748 6.33065 83.6542 5.93811 82.013 5.93811H76.8381C76.6422 5.93811 76.4812 6.00948 76.3391 6.15222C76.2138 6.29496 76.1607 6.47338 76.1607 6.65181V20.4975C76.1607 20.6759 76.2138 20.8543 76.3391 20.997C76.4637 21.122 76.6422 21.1933 76.8206 21.1933H77.8375C78.016 21.1933 78.1945 21.1398 78.3373 21.0149C78.48 20.8722 78.5514 20.7116 78.5514 20.5153V15.1983V14.9842V13.2535V13.0394V8.07919H81.9059C82.9403 8.07919 83.6899 8.29328 84.1714 8.70369C84.6536 9.09624 84.9034 9.70282 84.9034 10.5592C84.9034 11.4158 84.6536 12.0223 84.1714 12.4149C83.7073 12.8074 82.9942 13.0215 81.9773 13.0394V13.2535V14.9842V15.1983H81.9948L85.0462 20.5153C85.1533 20.7116 85.2779 20.8722 85.4024 20.997C85.5809 21.1398 85.7951 21.1933 86.0449 21.1933H86.9729C87.1514 21.1933 87.2942 21.122 87.4188 20.997C87.544 20.8722 87.6154 20.7294 87.6154 20.551C87.6154 20.4618 87.5972 20.3548 87.544 20.2477Z" fill="#2F74E9"/>
  <path d="M74.2149 20.2834L68.9517 6.54475C68.8803 6.34849 68.7732 6.20575 68.6127 6.0987C68.4521 5.99164 68.2737 5.93811 68.0774 5.93811H66.7213C66.5251 5.93811 66.3289 5.99164 66.1861 6.0987C66.0255 6.20575 65.9185 6.36633 65.8471 6.54475L60.5836 20.2834L60.5301 20.551V20.5689C60.5301 20.7472 60.6014 20.89 60.7085 21.0149C60.8156 21.1398 60.9761 21.2112 61.1546 21.2112H62.1716C62.3322 21.2112 62.4749 21.1755 62.5998 21.0863C62.7247 20.997 62.8139 20.8722 62.8853 20.7294L63.813 18.285L64.0629 17.5892L64.7052 15.8228L64.7766 15.6087L64.7944 15.5373L67.3994 8.79292L69.9865 15.5551L70.0222 15.6265L70.0936 15.8406L70.7002 17.607L70.7894 17.8746L71.8957 20.7294C71.9313 20.8543 72.0205 20.9614 72.1098 21.0506L72.1276 21.0684L72.1455 21.0863C72.2882 21.1933 72.4488 21.229 72.6272 21.229H73.6263C73.8048 21.229 73.9476 21.1577 74.0721 21.0506C74.2149 20.9257 74.2863 20.7829 74.2863 20.6045V20.5867L74.2149 20.2834Z" fill="#2F74E9"/>
  <path d="M57.4438 11.1481C57.5687 11.2551 57.7471 11.3087 57.9077 11.3087H58.9604C59.121 11.3087 59.2816 11.2551 59.4065 11.1481C59.5492 11.0232 59.6206 10.8626 59.6206 10.6663V10.6485C59.567 9.79206 59.3173 8.98917 58.8534 8.23975C58.3894 7.47255 57.7115 6.88375 56.8015 6.41985C55.8915 5.95595 54.7853 5.724 53.5007 5.724C51.5737 5.724 50.0928 6.25927 49.04 7.32981C48.023 8.40037 47.4878 9.8456 47.4164 11.6655C47.3986 12.058 47.3986 12.7004 47.3986 13.5746C47.3986 14.0028 47.3986 14.3775 47.3986 14.6987C47.3986 15.0199 47.3986 15.2697 47.4164 15.4659C47.4878 17.2858 48.023 18.7489 49.04 19.8194C50.0749 20.89 51.5737 21.4074 53.5007 21.4074C54.7853 21.4074 55.8915 21.1755 56.8015 20.7294C57.7115 20.2655 58.3894 19.6589 58.8534 18.8916C59.3173 18.1423 59.5849 17.3394 59.6206 16.483V16.4651C59.6206 16.2866 59.5492 16.1261 59.4065 16.019C59.2816 15.8942 59.121 15.8406 58.9604 15.8406H57.9077C57.7293 15.8406 57.5687 15.8942 57.4438 16.0012C57.3011 16.1082 57.2297 16.2866 57.1762 16.4651C56.9442 17.5178 56.516 18.2137 55.9451 18.6061C55.3563 19.0165 54.5533 19.2306 53.5185 19.2306C52.323 19.2306 51.4488 18.9095 50.86 18.2672C50.2712 17.6427 49.9322 16.6613 49.8787 15.341C49.8608 14.9306 49.8608 14.3418 49.8608 13.539C49.8608 13.1464 49.8608 12.8074 49.8608 12.5041C49.8608 12.2186 49.8608 11.9688 49.8787 11.7904C49.9322 10.4522 50.2533 9.47089 50.86 8.8464C51.4488 8.2219 52.323 7.88296 53.5185 7.88296C54.5712 7.88296 55.3741 8.09705 55.9451 8.50738C56.516 8.89994 56.9442 9.61366 57.1762 10.6663C57.2297 10.8626 57.3189 11.041 57.4438 11.1481Z" fill="#2F74E9"/>
  <path d="M45.0963 14.9484C44.7394 14.3952 44.1863 13.967 43.4727 13.6102C42.7768 13.2533 41.8311 12.9143 40.6179 12.5753C39.583 12.272 38.7801 11.9865 38.2448 11.7546C37.7274 11.5226 37.3527 11.255 37.1029 10.9873C36.8888 10.7197 36.7639 10.3628 36.7639 9.9168C36.7639 9.23877 37.0137 8.75705 37.5133 8.43588C38.0307 8.07901 38.7444 7.90062 39.6901 7.90062C40.5465 7.90062 41.2423 8.09686 41.7954 8.45372C42.3486 8.82844 42.6519 9.27446 42.7232 9.80972V9.82757V9.84541C42.7768 10.0239 42.866 10.1666 43.0087 10.2737C43.1336 10.3628 43.2942 10.4164 43.4548 10.4164H44.5075C44.6859 10.4164 44.8465 10.3628 44.9714 10.238C45.0963 10.113 45.1498 9.9525 45.1498 9.77403C45.1141 9.13176 44.8822 8.50726 44.4539 7.90062C44.0258 7.27612 43.3834 6.7587 42.5805 6.36617C41.7776 5.95579 40.7963 5.75952 39.6722 5.75952C38.5839 5.75952 37.6382 5.93795 36.8353 6.31264C36.0323 6.66948 35.4079 7.16907 34.9618 7.81138C34.5336 8.43588 34.3195 9.16738 34.3195 9.97034C34.3195 10.7911 34.4801 11.4869 34.837 12.0578C35.0154 12.3255 35.2295 12.5753 35.4792 12.8073C35.729 13.0392 36.0323 13.2354 36.3535 13.4139C37.0316 13.7708 37.9058 14.1097 38.9942 14.4309C40.1361 14.7699 40.9747 15.0554 41.5456 15.2873C42.1166 15.5015 42.5091 15.7691 42.7589 16.0367C43.0087 16.3044 43.1515 16.6434 43.1515 17.0894C43.1515 17.7674 42.8839 18.3027 42.3486 18.6774C41.8133 19.0699 40.9568 19.2662 39.7792 19.2662C38.6909 19.2662 37.8701 19.0521 37.317 18.6774C36.7461 18.267 36.4249 17.7853 36.3178 17.25V17.2322V17.2143C36.2644 17.0537 36.1751 16.911 36.0502 16.8039C35.9253 16.6969 35.7647 16.6434 35.6042 16.6434H34.5693C34.3909 16.6434 34.2303 16.7147 34.1054 16.8396C33.9805 16.9646 33.927 17.1073 33.927 17.2857C33.9627 18.0172 34.2125 18.713 34.6585 19.3554C35.1402 19.9799 35.8183 20.4794 36.6925 20.8541C37.5847 21.2289 38.6195 21.4251 39.7971 21.4251C40.6714 21.4251 41.4565 21.3359 42.1701 21.1396C42.866 20.9434 43.4905 20.6579 44.0079 20.2832C45.0784 19.4982 45.6137 18.3919 45.6137 17.0002C45.6315 16.1616 45.4531 15.4836 45.0963 14.9484Z" fill="#2F74E9"/>
  <path d="M21.9015 18.0704L11.9098 8.07875H19.4036C19.4392 8.07875 19.4749 8.07875 19.5106 8.0609C19.5642 8.07875 19.6176 8.07875 19.6712 8.07875H21.8123C22.1156 8.07875 22.3476 7.84681 22.3476 7.54348C22.3476 7.24016 22.1156 7.00821 21.8123 7.00821H19.6712V4.86713H21.8123C22.1156 4.86713 22.3476 4.63518 22.3476 4.33185C22.3476 4.02854 22.1156 3.79659 21.8123 3.79659H19.6712V1.6555H21.848C22.1335 1.6555 22.3833 1.42355 22.3833 1.12023C22.3833 0.816912 22.1335 0.584961 21.848 0.584961H19.7069C19.6355 0.584961 19.582 0.602803 19.5285 0.620646C19.4928 0.602803 19.4392 0.584961 19.4036 0.584961H5.84337C4.71934 0.584961 3.38112 1.90529 3.30976 1.99451L2.15001 3.15426L0.990252 4.31401C-0.330084 5.63435 -0.330084 7.79327 0.990252 9.11358L10.304 18.4273H2.82801C2.81017 18.4273 2.81017 18.4273 2.79232 18.4273C2.77448 18.4273 2.75665 18.4273 2.7388 18.4273H0.597719C0.294399 18.4273 0.0624479 18.6592 0.0624479 18.9626C0.0624479 19.2659 0.294399 19.4979 0.597719 19.4979H2.56038V21.6389H0.597719C0.294399 21.6389 0.0624479 21.8709 0.0624479 22.1742C0.0624479 22.4775 0.294399 22.7094 0.597719 22.7094H2.56038V24.8506H0.597719C0.294399 24.8506 0.0624479 25.0825 0.0624479 25.3858C0.0624479 25.6891 0.294399 25.9211 0.597719 25.9211H2.7388C2.75665 25.9211 2.77448 25.9211 2.79232 25.9211C2.81017 25.9211 2.81017 25.9211 2.82801 25.9211H18.2081C18.5472 25.9211 18.9932 25.7427 19.2609 25.4751L21.9015 22.8701C23.2397 21.5497 23.2397 19.3908 21.9015 18.0704ZM5.82553 1.99451C5.70063 1.86961 5.57573 1.7804 5.45084 1.70903C5.57573 1.67334 5.70063 1.6555 5.84337 1.6555H18.6007V7.00821H10.8393L5.82553 1.99451ZM3.61308 24.8506V19.4979H11.3745L16.7272 24.8506H3.61308Z" fill="#2F74E9"/>
</svg>
