<svg width="60" height="25" viewBox="0 0 60 25" fill="none"
  xmlns="http://www.w3.org/2000/svg">
  <path d="M0 22.6117H11.666V24.2817H0V22.6117Z" fill="#1F70C1"/>
  <path d="M0 19.4083H11.666V21.0842H0V19.4083Z" fill="#1F70C1"/>
  <path d="M3.32806 16.2111H8.332V17.887H3.32806V16.2111Z" fill="#1F70C1"/>
  <path d="M3.32806 13.0139H8.332V14.6898H3.32806V13.0139Z" fill="#1F70C1"/>
  <path d="M3.32806 9.81641H8.332V11.4923H3.32806V9.81641Z" fill="#1F70C1"/>
  <path d="M3.32806 6.61328H8.332V8.2892H3.32806V6.61328Z" fill="#1F70C1"/>
  <path d="M11.666 3.41589H0V5.09181H11.666V3.41589Z" fill="#1F70C1"/>
  <path d="M11.666 0.218628H0V1.89455H11.666V0.218628Z" fill="#1F70C1"/>
  <path d="M13.33 21.0842H31.2717C31.5748 20.5672 31.8006 20.0026 31.9373 19.4083H13.33V21.0842Z" fill="#1F70C1"/>
  <path d="M29.8751 13.0139H16.664V14.6898H31.2718C30.8914 14.048 30.4219 13.4834 29.8751 13.0139Z" fill="#1F70C1"/>
  <path d="M16.664 9.81641V11.4923H29.8751C30.4338 11.0228 30.9032 10.4582 31.2718 9.81641H16.664Z" fill="#1F70C1"/>
  <path d="M31.2718 3.41589H13.33V5.09181H31.9373C31.7828 4.49751 31.557 3.93297 31.2718 3.41589Z" fill="#1F70C1"/>
  <path d="M25.7567 0.218628H13.33V1.89455H30.0416C28.9243 0.860448 27.4089 0.218628 25.7567 0.218628Z" fill="#1F70C1"/>
  <path d="M21.662 6.61328H16.664V8.2892H21.662V6.61328Z" fill="#1F70C1"/>
  <path d="M26.6659 8.2892H31.8957C32.0443 7.75436 32.1215 7.18976 32.1215 6.61328H26.6659V8.2892Z" fill="#1F70C1"/>
  <path d="M16.664 16.2111H21.662V17.887H16.664V16.2111Z" fill="#1F70C1"/>
  <path d="M26.6659 16.2111V17.887H32.1215C32.1215 17.3105 32.0443 16.746 31.8957 16.2111H26.6659Z" fill="#1F70C1"/>
  <path d="M13.33 24.2698L25.7567 24.2876C27.4207 24.2876 28.9243 23.6458 30.0475 22.6117H13.33V24.2698Z" fill="#1F70C1"/>
  <path d="M33.334 22.6117H41.666V24.2817H33.334V22.6117Z" fill="#1F70C1"/>
  <path d="M33.334 19.4083H41.666V21.0842H33.334V19.4083Z" fill="#1F70C1"/>
  <path d="M36.6621 16.2111H41.666V17.887H36.6621V16.2111Z" fill="#1F70C1"/>
  <path d="M36.6621 13.0139H41.666V14.6898H36.6621V13.0139Z" fill="#1F70C1"/>
  <path d="M43.9838 3.41589H33.334V5.09181H44.5602L43.9838 3.41589Z" fill="#1F70C1"/>
  <path d="M42.8783 0.218628H33.334V1.89455H43.4548L42.8783 0.218628Z" fill="#1F70C1"/>
  <path d="M51.662 22.6117H60V24.2817H51.662V22.6117Z" fill="#1F70C1"/>
  <path d="M51.662 19.4083H60V21.0842H51.662V19.4083Z" fill="#1F70C1"/>
  <path d="M51.662 16.2111H56.666V17.887H51.662V16.2111Z" fill="#1F70C1"/>
  <path d="M51.662 13.0139H56.666V14.6898H51.662V13.0139Z" fill="#1F70C1"/>
  <path d="M51.662 11.4923H56.666V9.81641H51.662H47.1336L46.6641 11.1714L46.1946 9.81641H41.666H36.6621V11.4923H41.666V9.95309L42.195 11.4923H51.1331L51.662 9.95309V11.4923Z" fill="#1F70C1"/>
  <path d="M56.666 6.61328H48.239L47.6625 8.2892H56.666V6.61328Z" fill="#1F70C1"/>
  <path d="M50.4556 0.218628L49.8792 1.89455H60V0.218628H50.4556Z" fill="#1F70C1"/>
  <path d="M46.6641 24.2698L47.2405 22.6117H46.0876L46.6641 24.2698Z" fill="#1F70C1"/>
  <path d="M45.5587 21.0842H47.7694L48.3637 19.4083H44.9703L45.5587 21.0842Z" fill="#1F70C1"/>
  <path d="M44.4354 17.887H48.8926L49.481 16.2111H43.847L44.4354 17.887Z" fill="#1F70C1"/>
  <path d="M43.3182 14.6898H50.0158L50.5864 13.0139H42.7417L43.3182 14.6898Z" fill="#1F70C1"/>
  <path d="M36.6621 8.2892H45.6656L45.0892 6.61328H36.6621V8.2892Z" fill="#1F70C1"/>
  <path d="M48.7738 5.09181H60V3.41589H49.3443L48.7738 5.09181Z" fill="#1F70C1"/>
</svg>
