<svg width="70" height="30" viewBox="0 0 70 30" fill="none"
  xmlns="http://www.w3.org/2000/svg">
  <path fill-rule="evenodd" clip-rule="evenodd" d="M70.0001 15.7392C70.0001 10.7614 67.589 6.83362 62.9806 6.83362C58.3529 6.83362 55.5529 10.7614 55.5529 15.7003C55.5529 21.5531 58.8584 24.5086 63.6029 24.5086C65.9167 24.5086 67.6667 23.9836 68.989 23.2447V19.3558C67.6667 20.017 66.1501 20.4253 64.2251 20.4253C62.339 20.4253 60.6667 19.7642 60.4529 17.4697H69.9612C69.9612 17.217 70.0001 16.2058 70.0001 15.7392ZM60.3945 13.892C60.3945 11.6947 61.7362 10.7808 62.9612 10.7808C64.1473 10.7808 65.4112 11.6947 65.4112 13.892H60.3945Z" fill="#635BFF"/>
  <path fill-rule="evenodd" clip-rule="evenodd" d="M48.0472 6.83362C46.1417 6.83362 44.9167 7.72806 44.2361 8.35029L43.9833 7.14473H39.7056V29.817L44.5667 28.7864L44.5861 23.2836C45.2861 23.7892 46.3167 24.5086 48.0278 24.5086C51.5083 24.5086 54.6778 21.7086 54.6778 15.5447C54.6583 9.90584 51.45 6.83362 48.0472 6.83362ZM46.8806 20.2308C45.7333 20.2308 45.0528 19.8225 44.5861 19.317L44.5667 12.1031C45.0722 11.5392 45.7722 11.1503 46.8806 11.1503C48.65 11.1503 49.875 13.1336 49.875 15.6808C49.875 18.2864 48.6695 20.2308 46.8806 20.2308Z" fill="#635BFF"/>
  <path fill-rule="evenodd" clip-rule="evenodd" d="M33.0166 5.68643L37.8972 4.63643V0.689209L33.0166 1.71976V5.68643Z" fill="#635BFF"/>
  <path d="M37.8972 7.16418H33.0166V24.1781H37.8972V7.16418Z" fill="#635BFF"/>
  <path fill-rule="evenodd" clip-rule="evenodd" d="M27.7861 8.60313L27.475 7.16425H23.275V24.1781H28.1361V12.6476C29.2834 11.1504 31.2278 11.4226 31.8306 11.6365V7.16425C31.2084 6.93091 28.9334 6.50313 27.7861 8.60313Z" fill="#635BFF"/>
  <path fill-rule="evenodd" clip-rule="evenodd" d="M18.0639 2.9447L13.3194 3.95581L13.3 19.5308C13.3 22.4086 15.4583 24.528 18.3361 24.528C19.9305 24.528 21.0972 24.2364 21.7389 23.8864V19.9391C21.1167 20.1919 18.0444 21.0864 18.0444 18.2086V11.3058H21.7389V7.16415H18.0444L18.0639 2.9447Z" fill="#635BFF"/>
  <path fill-rule="evenodd" clip-rule="evenodd" d="M4.91945 12.1031C4.91945 11.3447 5.54167 11.0531 6.57222 11.0531C8.05 11.0531 9.91667 11.5003 11.3944 12.2975V7.72806C9.78056 7.0864 8.18611 6.83362 6.57222 6.83362C2.625 6.83362 0 8.89473 0 12.3364C0 17.7031 7.38889 16.8475 7.38889 19.1614C7.38889 20.0558 6.61111 20.3475 5.52222 20.3475C3.90833 20.3475 1.84722 19.6864 0.213889 18.792V23.4197C2.02222 24.1975 3.85 24.5281 5.52222 24.5281C9.56667 24.5281 12.3472 22.5253 12.3472 19.0447C12.3278 13.2503 4.91945 14.2808 4.91945 12.1031Z" fill="#635BFF"/>
</svg>
