<svg width="40" height="41" viewBox="0 0 40 41" fill="none" xmlns="http://www.w3.org/2000/svg">
<path d="M5.55555 6.34705C6.47603 6.34705 7.22222 7.09324 7.22222 8.01371V33.5693H34.4444C35.3649 33.5693 36.1111 34.3155 36.1111 35.2359C36.1111 36.1564 35.3649 36.9026 34.4444 36.9026H7.22222C5.38127 36.9026 3.88889 35.4102 3.88889 33.5693V8.01371C3.88889 7.09324 4.63508 6.34705 5.55555 6.34705Z" fill="#FF8B8B"/>
<path fill-rule="evenodd" clip-rule="evenodd" d="M10.5556 21.9026C10.5556 20.3685 11.7992 19.1248 13.3333 19.1248H17.7778C19.3119 19.1248 20.5556 20.3685 20.5556 21.9026V27.4582C20.5556 28.9923 19.3119 30.2359 17.7778 30.2359H13.3333C11.7992 30.2359 10.5556 28.9923 10.5556 27.4582V21.9026Z" fill="#FF8B8B"/>
<path fill-rule="evenodd" clip-rule="evenodd" d="M26.6667 11.347C25.1325 11.347 23.8889 12.5907 23.8889 14.1248V27.4582C23.8889 28.9923 25.1325 30.2359 26.6667 30.2359H32.2222C33.7563 30.2359 35 28.9923 35 27.4582V14.1248C35 12.5907 33.7563 11.347 32.2222 11.347H26.6667Z" fill="#FF8B8B"/>
</svg>
