<svg width="1280" height="216" viewBox="0 0 1280 216" fill="none" xmlns="http://www.w3.org/2000/svg">
<g opacity="0.15">
<path fill-rule="evenodd" clip-rule="evenodd" d="M631.634 123.039C633.379 122.247 656.387 113.05 692.088 104.488C703.195 101.793 710.335 91.0112 708.272 79.7537C706.051 67.2278 693.516 59.4585 681.298 62.9468C665.364 67.4249 654.411 71.4151 650.277 73.0032C649.76 73.264 649.229 73.5062 648.684 73.7287C648.586 73.766 648.423 73.8294 648.198 73.9174C640.766 76.8241 564.758 106.55 470.813 106.55C458.595 106.55 448.599 96.7193 448.757 84.352C448.757 72.1432 458.595 62.3127 470.813 62.3127C551.168 62.3127 618.749 37.8454 630.172 33.4807C630.647 33.245 631.135 33.0248 631.634 32.8211C631.669 32.8076 631.713 32.7907 631.766 32.7704C631.847 32.7387 631.949 32.6988 632.071 32.651L632.105 32.638L632.119 32.6324C639.552 29.7256 715.559 0 809.505 0C907.405 0 953.578 19.0267 987.534 33.1382C1010.22 42.493 1036.09 52.9577 1080.36 58.6657C1092.26 60.2513 1101.3 70.716 1100.19 82.7663C1099.08 94.3409 1089.4 102.903 1078.14 102.903C1077.18 102.903 1076.23 102.903 1075.28 102.744C1024.82 96.4021 994.674 84.0347 970.556 74.0457C938.505 60.8855 898.678 44.5542 809.505 44.5542C794.431 44.5542 779.833 45.347 765.87 46.774C752.7 48.201 743.497 60.5684 745.877 73.57C747.94 85.1446 758.412 93.0724 770.154 92.1211C782.848 91.0112 796.018 90.3769 809.505 90.3769C822.04 90.3769 832.195 101 831.56 113.685C830.925 125.576 820.612 134.614 808.711 134.614C721.679 134.772 649.898 163.527 648.468 164.099L648.453 164.105C645.597 165.215 642.899 165.691 640.043 165.691C632.704 165.691 625.701 161.99 621.583 155.72C619.255 152.226 617.901 148.023 617.901 143.493C617.901 136.831 620.831 130.876 625.479 126.841C627.26 125.279 629.323 123.983 631.634 123.039ZM-45.9807 123.04C-44.2354 122.247 -21.228 113.051 14.4731 104.489C25.5802 101.793 32.7204 91.0113 30.6576 79.7538C28.4362 67.2279 15.9012 59.4587 3.68347 62.9469C-16.6265 68.6549 -28.8442 73.5701 -29.1616 73.7287C-40.4272 78.3268 -53.4383 72.9359 -58.0398 61.6784C-62.6413 50.421 -57.2464 37.4194 -45.9807 32.8212C-45.883 32.784 -45.7212 32.7207 -45.4967 32.6329L-45.4956 32.6325C-38.0629 29.7257 37.9446 0.00014348 131.89 0.00014348C229.791 0.00014348 275.964 19.0269 309.92 33.1384C332.61 42.4932 358.473 52.9579 402.743 58.6659C414.643 60.2514 423.687 70.7161 422.577 82.7664C421.466 94.341 411.787 102.903 400.521 102.903C399.569 102.903 398.617 102.903 397.665 102.744C347.208 96.4022 317.06 84.0349 292.942 74.0458C260.89 60.8857 221.064 44.5544 131.89 44.5544C116.816 44.5544 102.219 45.3472 88.2554 46.7742C75.0857 48.2012 65.8828 60.5686 68.2628 73.5702C70.3255 85.1447 80.7979 93.0725 92.5396 92.1212C105.233 91.0113 118.403 90.3771 131.89 90.3771C144.425 90.3771 154.58 101 153.945 113.685C153.311 125.577 142.997 134.614 131.097 134.614C44.0622 134.772 -27.7195 163.528 -29.1465 164.1L-29.1616 164.106C-32.0176 165.216 -34.7151 165.691 -37.5711 165.691C-46.2981 165.691 -54.549 160.459 -58.0398 151.897C-62.6413 140.639 -57.2464 127.638 -45.9807 123.04ZM24.6281 192.329C12.7278 194.866 5.11151 206.757 7.65025 218.649C9.87166 228.955 19.0746 236.09 29.2296 236.09C30.8163 236.09 32.403 235.932 33.9898 235.614C67.3108 228.321 100.314 224.674 131.731 224.674C168.543 224.674 199.643 227.37 227.093 233.078C238.993 235.614 250.735 227.845 253.274 215.953C255.813 204.062 248.038 192.329 236.137 189.792C205.672 183.608 171.558 180.437 131.89 180.437C97.2997 180.437 61.1226 184.401 24.6281 192.329ZM631.522 303.487L631.547 303.476C632.642 303.036 633.75 302.687 634.863 302.426C651.473 296.145 722.735 270.972 809.187 270.972C846.951 270.972 879.32 273.668 908.516 279.217C920.257 281.437 928.667 292.377 926.922 304.269C925.176 316.795 913.276 325.04 900.9 322.662C891.538 320.917 881.7 319.332 871.228 318.222C857.741 316.636 845.999 327.26 845.999 340.737C845.999 352.47 854.885 362.142 866.626 363.252C926.754 368.786 960.688 382.677 986.997 393.446L987.217 393.536C1009.59 402.732 1035.77 413.356 1080.04 419.064C1090.99 420.491 1099.87 429.528 1099.87 441.42C1100.03 454.897 1088.29 465.521 1074.96 463.776C1024.35 457.276 994.198 444.908 970.239 435.078C938.187 421.918 898.361 405.586 809.187 405.586C792.051 405.586 774.28 406.696 756.35 408.916C743.815 410.343 732.549 401.305 731.597 388.621C730.645 376.729 739.689 366.265 751.59 364.837C763.173 363.41 774.756 362.459 786.18 361.825C798.239 361.191 807.759 351.043 807.759 338.993C807.759 325.833 796.652 315.368 783.483 316.161C707.796 320.917 648.77 344.542 648.136 344.859C647.072 345.273 646.03 345.598 644.994 345.844C628.715 352.012 557.254 377.364 470.495 377.364C373.034 377.364 326.836 358.507 293.079 344.728L292.624 344.542C281.041 339.786 275.647 326.309 281.041 314.734C285.96 303.794 298.971 299.195 310.078 303.794C341.971 316.795 381.798 332.968 470.495 332.968C558.132 332.968 629.797 304.179 631.522 303.487ZM472.241 423.186H470.495C458.278 423.186 448.44 433.017 448.44 445.226C448.44 457.434 458.278 467.265 470.495 467.265H472.399C486.839 467.265 498.104 453.153 493.344 438.09C490.488 429.053 481.761 423.186 472.241 423.186ZM537.931 417.954C582.593 411.098 616.587 399.387 627.764 395.22C628.871 394.511 630.057 393.892 631.316 393.378C631.365 393.365 631.5 393.317 631.721 393.235C631.936 393.155 632.234 393.043 632.61 392.901C636.876 391.286 651.316 385.822 672.73 379.9C684.471 376.571 696.689 383.547 699.863 395.28C703.195 407.172 696.213 419.222 684.471 422.552C668.266 427.031 656.556 431.261 651.271 433.252C650.4 433.759 649.484 434.211 648.525 434.602C648.432 434.636 648.223 434.717 647.903 434.842C642.245 437.046 601.665 452.853 544.595 461.557C543.484 461.715 542.374 461.874 541.263 461.874C530.473 461.874 521.112 454.105 519.366 443.164C517.621 431.114 525.872 419.857 537.931 417.954ZM323.089 233.553C323.089 245.762 313.252 255.593 301.034 255.593C288.975 255.593 278.979 245.762 278.979 233.553C278.979 221.345 288.816 211.514 301.034 211.514C313.252 211.514 323.089 221.345 323.089 233.553ZM-35.8495 255.536C-23.6991 254.673 -14.5493 244.131 -15.4128 231.989C-16.2762 219.848 -26.8261 210.705 -38.9765 211.567C-51.1268 212.43 -60.2767 222.972 -59.4132 235.114C-58.5497 247.256 -47.9999 256.399 -35.8495 255.536ZM660.743 225.467C660.452 224.745 660.127 224.047 659.771 223.375C655.834 215.823 647.679 210.925 638.638 211.567C635.618 211.782 632.784 212.594 630.243 213.88C622.222 216.924 585.26 230.376 535.551 237.834C522.381 239.737 510.322 229.906 509.687 216.588C509.211 204.696 517.779 194.548 529.521 193.121C543.96 191.377 558.717 188.84 573.473 185.828C585.215 183.45 593.307 172.192 591.403 160.459C589.34 147.933 577.281 139.847 565.064 142.383C532.853 149.201 501.119 152.69 470.813 152.69C381.639 152.69 341.813 136.358 309.761 123.198L309.448 123.07C284.748 112.944 254.005 100.34 201.864 94.1825C189.647 92.7555 178.698 101.476 177.27 113.526C175.842 125.577 184.569 136.675 196.628 138.102C242.96 143.652 269.458 154.434 292.942 164.106C323.407 176.632 364.027 193.28 443.839 196.451C455.739 196.927 465.259 206.44 465.894 218.332C466.529 231.809 455.422 242.908 441.934 242.274C417.023 241.164 394.809 238.468 374.658 234.346C362.757 231.809 351.016 239.578 348.477 251.47C345.938 263.362 353.713 275.095 365.613 277.632C396.237 283.974 430.669 287.145 470.813 287.145C564.758 287.145 640.766 257.42 648.198 254.513L648.199 254.512L648.216 254.506C648.432 254.421 648.588 254.36 648.684 254.324C659.949 249.726 665.344 236.724 660.743 225.467ZM-4.88479 379.9C-26.2976 385.822 -40.738 391.286 -45.0045 392.901C-45.7649 393.188 -46.2021 393.354 -46.2981 393.378C-57.5638 397.976 -62.9586 410.977 -58.3571 422.235C-54.8664 430.797 -46.6154 436.029 -37.8885 436.029C-35.0324 436.029 -32.335 435.554 -29.4789 434.444C-29.4572 434.444 -29.1807 434.337 -28.6622 434.137C-25.387 432.875 -12.4582 427.891 6.8569 422.552C18.5986 419.222 25.5802 407.172 22.2481 395.28C19.0746 383.547 6.85691 376.571 -4.88479 379.9ZM309.602 393.536C331.975 402.733 358.156 413.356 402.425 419.064C413.374 420.491 422.259 429.529 422.259 441.42C422.418 454.897 410.676 465.521 397.348 463.777C346.732 457.276 316.584 444.908 292.624 435.078C260.573 421.918 220.746 405.587 131.573 405.587C114.436 405.587 96.6651 406.696 78.7352 408.916C66.2001 410.343 54.9344 401.306 53.9824 388.621C53.0304 376.729 62.0746 366.265 73.975 364.838C85.558 363.411 97.1411 362.459 108.565 361.825C120.624 361.191 130.145 351.043 130.145 338.993C130.145 325.833 119.038 315.368 105.868 316.161C30.1816 320.918 -28.8442 344.542 -29.4789 344.86C-32.335 345.969 -35.0324 346.445 -37.8885 346.445C-46.6154 346.445 -54.8664 341.213 -58.3571 332.651C-62.9586 321.393 -57.5638 308.392 -46.2981 303.794C-46.2019 303.757 -46.0435 303.695 -45.8245 303.609L-45.8129 303.605C-38.3796 300.698 37.6277 270.972 131.573 270.972C169.337 270.972 201.706 273.668 230.901 279.217C242.643 281.437 251.053 292.378 249.307 304.269C247.562 316.795 235.661 325.04 223.285 322.662C213.923 320.918 204.086 319.332 193.613 318.222C180.126 316.637 168.385 327.26 168.385 340.737C168.385 352.47 177.27 362.142 189.012 363.252C249.14 368.786 283.074 382.677 309.383 393.446L309.602 393.536ZM1148.43 106.55C1242.37 106.55 1318.38 76.8237 1325.81 73.9172L1325.82 73.9136C1326.04 73.8275 1326.2 73.7653 1326.3 73.7286C1337.56 69.1304 1342.96 56.1288 1338.36 44.8714C1333.76 33.6139 1320.74 28.223 1309.48 32.8211L1309.47 32.8262C1308.11 33.3679 1235.83 62.3125 1148.43 62.3125C1136.21 62.3125 1126.37 72.143 1126.37 84.3518C1126.21 96.7192 1136.21 106.55 1148.43 106.55ZM702.243 192.329C690.342 194.865 682.726 206.757 685.265 218.649C687.486 228.955 696.689 236.09 706.844 236.09C708.431 236.09 710.018 235.931 711.604 235.614C744.925 228.321 777.929 224.674 809.346 224.674C846.158 224.674 877.257 227.369 904.708 233.077C916.608 235.614 928.35 227.845 930.888 215.953C933.427 204.062 925.652 192.328 913.752 189.792C883.287 183.608 849.173 180.437 809.505 180.437C774.914 180.437 738.737 184.401 702.243 192.329ZM1309.14 303.487L1309.16 303.476C1320.59 298.878 1333.44 304.269 1338.04 315.685C1342.64 326.943 1337.25 339.944 1325.98 344.542C1325.88 344.58 1325.72 344.643 1325.5 344.731C1318.06 347.638 1242.06 377.363 1148.11 377.363C1050.65 377.363 1004.45 358.507 970.694 344.728L970.239 344.542C958.656 339.786 953.261 326.308 958.656 314.734C963.575 303.793 976.586 299.195 987.693 303.793C1019.59 316.795 1059.41 332.968 1148.11 332.968C1235.74 332.968 1307.4 304.182 1309.14 303.487ZM1149.86 423.186H1148.11C1135.89 423.186 1126.05 433.017 1126.05 445.225C1126.05 457.434 1135.89 467.265 1148.11 467.265H1150.01C1164.45 467.265 1175.72 453.153 1170.96 438.09C1168.1 429.053 1159.38 423.186 1149.86 423.186ZM1215.55 417.954C1270.29 409.55 1309 393.853 1309.32 393.695C1320.59 389.097 1333.44 394.487 1338.2 405.745C1342.8 417.002 1337.41 430.004 1326.14 434.602C1326.05 434.636 1325.84 434.717 1325.52 434.842C1319.86 437.046 1279.28 452.852 1222.21 461.557C1221.1 461.715 1219.99 461.874 1218.88 461.874C1208.09 461.874 1198.73 454.105 1196.98 443.164C1195.24 431.114 1203.49 419.856 1215.55 417.954ZM1317.57 121.454C1305.35 121.454 1295.52 131.284 1295.52 143.493C1295.52 155.702 1305.35 165.533 1317.57 165.533C1329.79 165.533 1339.63 155.702 1339.63 143.493C1339.63 131.284 1329.79 121.454 1317.57 121.454ZM1000.7 233.553C1000.7 245.762 990.866 255.592 978.649 255.592C966.589 255.592 956.593 245.762 956.593 233.553C956.593 221.344 966.431 211.514 978.649 211.514C990.866 211.514 1000.7 221.344 1000.7 233.553ZM1309.21 213.361C1309.37 213.3 1309.46 213.265 1309.48 213.258C1320.74 208.66 1333.76 214.051 1338.36 225.467C1342.96 236.724 1337.56 249.726 1326.3 254.324C1326.2 254.361 1326.04 254.423 1325.82 254.509L1325.81 254.513C1318.38 257.419 1242.37 287.145 1148.43 287.145C1108.28 287.145 1073.85 283.974 1043.23 277.632C1031.33 275.095 1023.55 263.362 1026.09 251.47C1028.63 239.578 1040.37 231.809 1052.27 234.346C1072.42 238.468 1094.64 241.164 1119.55 242.274C1133.04 242.908 1144.14 231.809 1143.51 218.332C1142.87 206.44 1133.35 196.927 1121.45 196.451C1041.64 193.28 1001.02 176.631 970.556 164.106C947.073 154.434 920.575 143.652 874.243 138.102C862.184 136.675 853.457 125.576 854.885 113.526C856.313 101.476 867.261 92.7553 879.479 94.1823C931.62 100.34 962.363 112.944 987.062 123.07L987.376 123.198C1019.43 136.358 1059.25 152.689 1148.43 152.689C1178.73 152.689 1210.47 149.201 1242.68 142.383C1254.9 139.846 1266.95 147.933 1269.02 160.459C1270.92 172.192 1262.83 183.449 1251.09 185.828C1236.33 188.84 1221.57 191.377 1207.14 193.121C1195.39 194.548 1186.83 204.696 1187.3 216.588C1187.94 229.906 1200 239.737 1213.17 237.834C1266.81 229.785 1305.61 214.755 1309.21 213.361Z" fill="url(#paint0_linear_998_3756)"/>
</g>
<defs>
<linearGradient id="paint0_linear_998_3756" x1="640" y1="0" x2="640" y2="314.417" gradientUnits="userSpaceOnUse">
<stop stop-color="#88A5F6"/>
<stop offset="0.677083" stop-color="#7497F7" stop-opacity="0"/>
</linearGradient>
</defs>
</svg>
