<svg width="80" height="81" viewBox="0 0 80 81" fill="none" xmlns="http://www.w3.org/2000/svg">
<path d="M65.1359 35.5726L65.0628 35.3857L57.985 16.9143C57.8409 16.5524 57.5859 16.2453 57.2567 16.037C56.9271 15.8324 56.5427 15.7339 56.1553 15.7547C55.768 15.7756 55.3963 15.9147 55.0906 16.1535C54.7887 16.3983 54.5694 16.7301 54.4624 17.1038L49.6835 31.725H30.3321L25.5531 17.1038C25.4496 16.727 25.2298 16.3925 24.9249 16.1481C24.6192 15.9093 24.2476 15.7701 23.8602 15.7493C23.4728 15.7285 23.0884 15.827 22.7588 16.0316C22.4309 16.2414 22.1764 16.548 22.0305 16.9089L14.9392 35.3749L14.8688 35.5617C13.8495 38.2238 13.7235 41.1452 14.5098 43.8852C15.2962 46.6251 16.9522 49.0351 19.2281 50.7515L19.2525 50.7705L19.3174 50.8165L30.0992 58.8906L35.4332 62.9277L38.6824 65.3808C39.0624 65.6694 39.5265 65.8256 40.0037 65.8256C40.4809 65.8256 40.945 65.6694 41.325 65.3808L44.5742 62.9277L49.9082 58.8906L60.7549 50.7677L60.782 50.7461C63.0528 49.0294 64.705 46.6219 65.4901 43.8856C66.2753 41.1493 66.151 38.2321 65.1359 35.5726Z" fill="#E24329"/>
<path d="M65.136 35.5725L65.0628 35.3857C61.6143 36.0941 58.3646 37.5549 55.5455 39.6638L39.993 51.4176C45.2864 55.4221 49.8947 58.9014 49.8947 58.9014L60.7415 50.7786L60.7686 50.7569C63.0437 49.041 64.6997 46.6325 65.4874 43.8939C66.2751 41.1553 66.1518 38.2349 65.136 35.5725Z" fill="#FC6D26"/>
<path d="M30.0992 58.9014L35.4332 62.9385L38.6824 65.3916C39.0624 65.6802 39.5265 65.8364 40.0037 65.8364C40.4809 65.8364 40.9449 65.6802 41.325 65.3916L44.5741 62.9385L49.9082 58.9014C49.9082 58.9014 45.3052 55.4113 40.001 51.4175C34.7076 55.4113 30.0992 58.9014 30.0992 58.9014Z" fill="#FCA326"/>
<path d="M24.4538 39.6638C21.6367 37.5511 18.3878 36.0866 14.9392 35.3749L14.8688 35.5617C13.8495 38.2238 13.7235 41.1452 14.5098 43.8851C15.2962 46.6251 16.9522 49.0351 19.2281 50.7515L19.2525 50.7704L19.3174 50.8165L30.0992 58.8906L39.9929 51.4067L24.4538 39.6638Z" fill="#FC6D26"/>
</svg>
