<svg width="80" height="81" viewBox="0 0 80 81" fill="none" xmlns="http://www.w3.org/2000/svg">
<path d="M57.4018 21.5107L57.3512 21.3814L52.4512 8.59349C52.3514 8.34292 52.1749 8.13034 51.9469 7.98615C51.7188 7.84451 51.4526 7.77629 51.1845 7.79071C50.9163 7.80512 50.659 7.90147 50.4473 8.06675C50.2383 8.23629 50.0865 8.46598 50.0124 8.72471L46.7039 18.8471H33.3068L29.9983 8.72471C29.9267 8.46384 29.7745 8.23225 29.5634 8.06301C29.3517 7.89772 29.0945 7.80137 28.8263 7.78696C28.5581 7.77254 28.292 7.84076 28.0638 7.9824C27.8368 8.12764 27.6606 8.33989 27.5596 8.58974L22.6502 21.3739L22.6015 21.5032C21.8958 23.3462 21.8086 25.3687 22.353 27.2656C22.8974 29.1625 24.0438 30.831 25.6195 32.0192L25.6363 32.0324L25.6813 32.0642L33.1456 37.654L36.8384 40.4489L39.0878 42.1472C39.3509 42.347 39.6722 42.4551 40.0026 42.4551C40.3329 42.4551 40.6542 42.347 40.9173 42.1472L43.1667 40.4489L46.8595 37.654L54.3688 32.0305L54.3876 32.0155C55.9596 30.827 57.1034 29.1603 57.647 27.2659C58.1906 25.3716 58.1045 23.352 57.4018 21.5107Z" fill="#E24329"/>
<path d="M57.4018 21.5107L57.3512 21.3814C54.9637 21.8718 52.7139 22.8831 50.7623 24.3431L39.9951 32.4803C43.6598 35.2527 46.8502 37.6615 46.8502 37.6615L54.3595 32.038L54.3782 32.023C55.9533 30.8351 57.0998 29.1676 57.6451 27.2717C58.1904 25.3757 58.105 23.3539 57.4018 21.5107Z" fill="#FC6D26"/>
<path d="M33.1456 37.6615L36.8384 40.4564L39.0878 42.1547C39.3509 42.3545 39.6722 42.4626 40.0026 42.4626C40.3329 42.4626 40.6542 42.3545 40.9173 42.1547L43.1668 40.4564L46.8595 37.6615C46.8595 37.6615 43.6729 35.2452 40.0007 32.4803C36.336 35.2452 33.1456 37.6615 33.1456 37.6615Z" fill="#FCA326"/>
<path d="M29.2373 24.3431C27.2869 22.8805 25.0377 21.8667 22.6502 21.3739L22.6015 21.5032C21.8958 23.3462 21.8086 25.3687 22.353 27.2656C22.8974 29.1625 24.0438 30.831 25.6195 32.0192L25.6363 32.0324L25.6813 32.0642L33.1456 37.654L39.9951 32.4729L29.2373 24.3431Z" fill="#FC6D26"/>
<path d="M19.72 64.8179C19.72 66.8379 18.66 67.6979 16.48 67.6979H13.24C11.06 67.6979 10 66.8579 10 64.8179V57.0979C10 55.0779 11.06 54.2179 13.24 54.2179H16.5C18.66 54.2179 19.74 55.0779 19.74 57.0979V57.6579C19.74 57.7979 19.64 57.9379 19.5 57.9779L18.16 58.3379C17.96 58.3979 17.74 58.2379 17.74 58.0179V57.4579C17.74 56.4779 17.42 56.0579 16.24 56.0579H13.5C12.32 56.0579 11.98 56.4779 11.98 57.4579V64.4579C11.98 65.4379 12.32 65.8579 13.5 65.8579H16.22C17.4 65.8579 17.72 65.4379 17.72 64.4579V63.7979C17.72 63.5779 17.94 63.4179 18.14 63.4779L19.48 63.8779C19.62 63.9179 19.72 64.0379 19.72 64.1979V64.8179Z" fill="#251B3F"/>
<path d="M22.56 65.8379H25.98V56.0379H22.8C22.62 56.0379 22.48 55.8979 22.48 55.7179V54.5379C22.48 54.3579 22.62 54.2179 22.8 54.2179H31.16C31.34 54.2179 31.48 54.3579 31.48 54.5379V55.7179C31.48 55.8979 31.34 56.0379 31.16 56.0379H27.96V65.8379H31.38C31.56 65.8379 31.7 65.9779 31.7 66.1579V67.3579C31.7 67.5379 31.56 67.6779 31.38 67.6779H22.56C22.38 67.6779 22.24 67.5379 22.24 67.3579V66.1579C22.22 65.9979 22.38 65.8379 22.56 65.8379Z" fill="#251B3F"/>
<path d="M57.76 64.8179C57.76 66.8379 56.7 67.6979 54.52 67.6979H51.26C49.1 67.6979 48.02 66.8579 48.02 64.8179V57.0979C48.02 55.0779 49.08 54.2179 51.26 54.2179H54.52C56.68 54.2179 57.76 55.0779 57.76 57.0979V57.6579C57.76 57.7979 57.66 57.9379 57.52 57.9779L56.18 58.3379C55.98 58.3979 55.76 58.2379 55.76 58.0179V57.4579C55.76 56.4779 55.44 56.0579 54.26 56.0579H51.54C50.36 56.0579 50.02 56.4779 50.02 57.4579V64.4579C50.02 65.4379 50.36 65.8579 51.54 65.8579H54.26C55.44 65.8579 55.76 65.4379 55.76 64.4579V63.7979C55.76 63.5779 55.98 63.4179 56.18 63.4779L57.52 63.8779C57.66 63.9179 57.76 64.0379 57.76 64.1979V64.8179Z" fill="#251B3F"/>
<path d="M70 64.8179C70 66.8379 69 67.6979 66.82 67.6979H60.56C60.38 67.6979 60.24 67.5579 60.24 67.3779V54.5579C60.24 54.3779 60.38 54.2379 60.56 54.2379H66.82C68.98 54.2379 70 55.0779 70 57.1179V64.8179ZM68 57.4579C68 56.4779 67.68 56.0579 66.5 56.0579H62.22V65.8579H66.5C67.68 65.8579 68 65.4379 68 64.4579V57.4579Z" fill="#251B3F"/>
<path d="M42.6 46.4779C42.48 46.4379 42.36 46.4779 42.3 46.5779L35.92 58.2179C35.7 58.6379 35.76 59.1379 36.08 59.4779L39.14 62.7179L42.74 46.7379C42.78 46.6379 42.7 46.5179 42.6 46.4779Z" fill="#D72D20"/>
<path d="M43.38 60.7579L40.32 57.5179L36.72 73.4979C36.7 73.6179 36.76 73.7379 36.86 73.7779C36.88 73.7979 36.92 73.7979 36.94 73.7979C37.02 73.7979 37.1 73.7579 37.14 73.6779L43.52 62.0379C43.78 61.6179 43.72 61.0979 43.38 60.7579Z" fill="#F8911E"/>
</svg>
