<svg width="80" height="81" viewBox="0 0 80 81" fill="none" xmlns="http://www.w3.org/2000/svg">
<path fill-rule="evenodd" clip-rule="evenodd" d="M40 11.7915C56.0166 11.7915 69 24.775 69 40.7915C69 56.8081 56.0166 69.7915 40 69.7915C23.9834 69.7915 11 56.8081 11 40.7915C11 24.775 23.9834 11.7915 40 11.7915ZM54.6803 24.6804C54.68 24.6804 54.6797 24.6804 54.6794 24.6813H34.6301C28.6982 24.6813 23.889 29.4901 23.889 35.4224V55.4716C23.889 56.2626 24.5302 56.9037 25.3211 56.9037H46.4448C51.7835 56.9037 56.1114 52.5759 56.1114 47.2371V39.0027C56.1114 38.2117 55.4702 37.5706 54.6793 37.5706H38.2097C37.4189 37.571 36.7778 38.2119 36.7772 39.0027L36.7763 42.5828C36.7757 43.3273 37.3435 43.9392 38.0697 44.0088L38.2076 44.0153C38.2078 44.0153 38.2079 44.0153 38.208 44.015L48.2345 44.0149C48.9789 44.0149 49.5907 44.5828 49.6601 45.3091L49.6666 45.447V46.163C49.6666 48.5358 47.743 50.4593 45.3703 50.4593H31.7644C30.9736 50.4593 30.3326 49.8182 30.3324 49.0274L30.3321 35.4225C30.3319 33.1217 32.1406 31.2431 34.4137 31.1313L34.6283 31.1261H54.6755C55.4661 31.1252 56.1071 30.4846 56.1085 29.694L56.1107 26.1138C56.112 25.3229 55.4713 24.6813 54.6804 24.6808L54.6803 24.6804Z" fill="#C71D23"/>
</svg>
