<svg width="383" height="289" viewBox="0 0 383 289" fill="none" xmlns="http://www.w3.org/2000/svg">
<g clip-path="url(#clip0_1074_4036)">
<path opacity="0.18" d="M42.1873 135.41C31.3632 148.337 19.9024 163.094 21.01 179.927C21.8921 193.271 30.7066 205.276 30.574 218.627C30.4413 231.978 21.2885 244.494 23.2783 257.758C25.4935 272.814 41.1129 282.126 55.9098 285.701C87.1486 293.248 119.707 285.038 151.742 282.517C176.335 280.587 201.054 282.06 225.674 283.532L294.843 287.644C304.129 288.201 313.746 288.712 322.427 285.382C330.386 282.338 336.813 276.336 342.325 269.896C354.402 255.861 363.469 237.589 360.637 219.297C356.067 189.809 322.872 170.124 320.968 140.371C320.345 130.635 323.057 119.903 317.745 111.726C315.656 108.509 312.532 106.115 309.289 104.078C289.073 91.4104 263.764 91.1053 239.907 91.1982L123.123 91.6359C110.236 91.6823 88.5414 87.431 77.2198 93.9838C71.4894 97.2934 42.1873 129.129 42.1873 135.41Z" fill="#7497F7"/>
<path opacity="0.1" d="M336.919 227.932C337.417 233.537 336.183 238.319 334.107 240.912C332.031 243.505 328.927 245.124 325.717 245.986C322.507 246.848 312.087 249.461 308.771 249.647C311.995 248.645 324.397 244.898 326.016 241.933C326.691 240.57 327.284 239.169 327.793 237.735C328.887 234.983 330.32 222.102 332.436 219.987C334.896 217.546 336.681 225.213 336.919 227.932Z" fill="url(#paint0_linear_1074_4036)"/>
<path opacity="0.1" d="M198.487 243.479C168.885 240.799 139.157 239.772 109.44 240.401C101.004 240.587 91.1081 240.209 86.2664 233.298C91.6718 229.086 99.0206 228.655 105.865 228.423C173.138 226.022 235.536 223.986 302.809 221.585C299.725 219.35 302.809 213.891 302.185 210.131C308.818 208.101 322.852 211.252 327.209 215.861C323.13 212.936 314.429 211.882 310.714 213.401C307 214.919 303.989 218.262 306.012 221.718C306.609 222.739 307.571 223.608 307.73 224.782C307.995 226.738 305.946 228.158 304.122 228.914C288.051 235.546 268.512 229.199 252.986 237.045C252.056 237.442 251.243 238.069 250.625 238.869C248.317 242.378 253.729 245.82 257.867 246.516C272.673 249.024 287.648 250.403 302.663 250.642L251.799 253.003C253.251 254.741 252.515 257.553 250.824 259.058C249.132 260.564 246.804 261.048 244.576 261.446C225.753 264.663 199.091 263.383 183.319 250.834C188.114 248.022 193.433 245.853 198.487 243.479Z" fill="url(#paint1_linear_1074_4036)"/>
<path d="M76.2846 74.9222L68.989 83.2393C67.7155 84.6851 66.336 86.3963 66.6278 88.3064C66.8668 89.3831 67.3994 90.3726 68.1665 91.165C69.5458 92.8113 71.1205 94.2834 72.8557 95.549C75.3097 88.8636 77.2065 81.999 76.2846 74.9222Z" fill="#7497F7"/>
<path d="M76.3775 74.889L69.0818 83.2061C67.8084 84.652 66.4288 86.3698 66.7206 88.2733C66.9502 89.3464 67.4711 90.3355 68.2262 91.1319C69.6081 92.7761 71.185 94.246 72.922 95.5093C75.429 88.8304 77.2994 81.9725 76.3775 74.889Z" fill="url(#paint2_linear_1074_4036)"/>
<path d="M303.054 0.791504H83.4476V220.962H303.054V0.791504Z" fill="#7497F7"/>
<path d="M303.054 0.791504H83.4476V220.962H303.054V0.791504Z" fill="url(#paint3_linear_1074_4036)"/>
<path d="M88.3704 60.1112L48.5333 256.443L49.8983 256.72L89.7354 60.3881L88.3704 60.1112Z" fill="#FF8B8B"/>
<path d="M109.643 60.5828L69.4546 257.411L70.8192 257.69L111.008 60.8614L109.643 60.5828Z" fill="#FF8B8B"/>
<path d="M107.537 72.9258H86.2465V74.3187H107.537V72.9258Z" fill="#FF8B8B"/>
<path d="M104.181 89.5467H82.8905V90.9395H104.181V89.5467Z" fill="#FF8B8B"/>
<path d="M100.818 106.161H79.5279V107.554H100.818V106.161Z" fill="#FF8B8B"/>
<path d="M97.4553 122.782H76.1652V124.175H97.4553V122.782Z" fill="#FF8B8B"/>
<path d="M94.0927 139.403H72.8026V140.795H94.0927V139.403Z" fill="#FF8B8B"/>
<path d="M90.73 156.024H69.4399V157.416H90.73V156.024Z" fill="#FF8B8B"/>
<path d="M87.3741 172.644H66.084V174.037H87.3741V172.644Z" fill="#FF8B8B"/>
<path d="M84.0114 189.265H62.7213V190.658H84.0114V189.265Z" fill="#FF8B8B"/>
<path d="M80.6487 205.886H59.3586V207.279H80.6487V205.886Z" fill="#FF8B8B"/>
<path d="M77.2861 222.507H55.996V223.9H77.2861V222.507Z" fill="#FF8B8B"/>
<path d="M73.9235 239.121H52.6334V240.514H73.9235V239.121Z" fill="#FF8B8B"/>
<path opacity="0.1" d="M113.008 220.776L111.271 62.8313L109.818 62.5527L109.951 74.5773H106.071C106.011 72.508 105.726 70.505 104.996 69.152C102.947 65.3383 100.354 69.152 99.6109 71.7054C99.2792 72.8197 98.7619 73.9936 97.7604 74.5574H93.8473C93.3889 74.4646 92.9221 74.4202 92.4545 74.4247C92.1659 74.4397 91.8795 74.4819 91.5989 74.5508H89.6092L89.4566 62.3139L88.0041 62.042L88.1898 77.2037C88.0903 77.3629 87.9908 77.5287 87.9046 77.7012C87.0159 79.4455 86.7904 81.4352 86.5781 83.3852C84.7211 102.904 85.7027 122.563 86.6909 142.142C86.8633 145.531 87.0424 148.98 88.2031 152.17C88.452 152.859 88.7605 153.525 89.125 154.16L89.9607 220.829L113.008 220.776ZM111.556 220.451L91.4397 220.405L91.2606 205.554L111.39 205.601L111.556 220.451ZM111.377 204.241L91.2275 204.195L91.0418 189.345L111.198 189.398L111.377 204.241ZM111.198 188.038L91.0418 187.965L90.8561 173.115L111.032 173.168L111.198 188.038ZM111.019 171.829L90.8362 171.776L90.6504 156.926H91.9769C92.1619 157.025 92.3524 157.113 92.5473 157.191C93.1201 157.387 93.7266 157.466 94.3306 157.423C94.9346 157.38 95.5236 157.215 96.0625 156.939H110.866L111.019 171.829ZM110.84 155.619H97.5216C97.7093 155.302 97.8311 154.95 97.8798 154.584C98.0655 153.198 97.2961 151.898 96.7722 150.605C95.5187 147.501 95.6447 144.079 96.3875 140.769L110.68 140.802L110.84 155.619ZM110.66 139.409H96.7324C96.9712 138.54 97.2497 137.685 97.5482 136.849C99.0338 132.75 101.05 128.811 102.032 124.579H110.501L110.66 139.409ZM110.462 123.2H102.297C103.133 118.325 102.476 113.251 102.788 108.35H110.302L110.462 123.2ZM110.282 106.99H102.907C103.027 105.805 103.233 104.63 103.524 103.475C103.962 101.803 104.612 100.159 104.884 98.4673C105.102 96.3634 105.062 94.2407 104.764 92.1466H110.123L110.282 106.99ZM109.944 75.9369L110.11 90.7869H104.658C104.604 90.072 104.586 89.3548 104.605 88.638C104.698 86.0779 105.408 83.5775 105.706 81.0306C105.914 79.3424 106.034 77.6443 106.064 75.9436L109.944 75.9369Z" fill="url(#paint4_linear_1074_4036)"/>
<g opacity="0.74">
<path d="M150.674 9.94427H107.722V14.4278H150.674V9.94427Z" fill="#7497F7"/>
<path d="M133.94 18.6261H107.722V22.8443H133.94V18.6261Z" fill="#7497F7"/>
<path opacity="0.54" d="M227.013 18.6261H144.512V22.8709H227.013V18.6261Z" fill="#7497F7"/>
<path d="M281.174 18.6261H234.733V22.8709H281.174V18.6261Z" fill="#7497F7"/>
<path d="M157.406 27.308H121.359V31.7583H157.406V27.308Z" fill="#7497F7"/>
<path opacity="0.48" d="M144.758 60.6757H121.359V65.6832H144.758V60.6757Z" fill="#7497F7"/>
<path d="M195.854 75.9834H185.972V80.971H195.854V75.9834Z" fill="#7497F7"/>
<path d="M144.758 68.1439H121.359V73.1513H144.758V68.1439Z" fill="#7497F7"/>
<path d="M144.758 158.524H121.359V163.531H144.758V158.524Z" fill="#7497F7"/>
<path d="M158.076 117.164H134.677V122.172H158.076V117.164Z" fill="#7497F7"/>
<path opacity="0.48" d="M158.076 125.382H134.677V130.389H158.076V125.382Z" fill="#7497F7"/>
<path d="M158.076 141.067H134.677V146.075H158.076V141.067Z" fill="#7497F7"/>
<path d="M158.076 149.285H134.677V154.292H158.076V149.285Z" fill="#7497F7"/>
<path d="M187.212 125.382H163.813V130.389H187.212V125.382Z" fill="#7497F7"/>
<path opacity="0.48" d="M187.212 149.033H163.813V154.04H187.212V149.033Z" fill="#7497F7"/>
<path d="M228.32 158.524H152.359V163.531H228.32V158.524Z" fill="#7497F7"/>
<path d="M175.884 35.9898H132.932V40.4733H175.884V35.9898Z" fill="#7497F7"/>
<path opacity="0.52" d="M214.69 35.9898H178.689V40.9708H214.69V35.9898Z" fill="#7497F7"/>
<path d="M166.041 44.6783H132.873V48.8965H166.041V44.6783Z" fill="#7497F7"/>
<path opacity="0.48" d="M181.369 76.5471H132.873V80.4802H181.369V76.5471Z" fill="#7497F7"/>
<path d="M295.016 44.6783H261.847V48.8965H295.016V44.6783Z" fill="#7497F7"/>
<path d="M237.672 44.6783H169.225V49.3541H237.672V44.6783Z" fill="#7497F7"/>
<path d="M259.26 44.6783H244.171V49.4337H259.26V44.6783Z" fill="#7497F7"/>
<path opacity="0.48" d="M207.534 53.3602H132.747V57.5452H207.534V53.3602Z" fill="#7497F7"/>
<path d="M182.072 167.272H132.747V171.643H182.072V167.272Z" fill="#7497F7"/>
<path d="M188.956 86.0381H146.005V90.5217H188.956V86.0381Z" fill="#7497F7"/>
<path opacity="0.48" d="M188.956 108.695H146.005V113.178H188.956V108.695Z" fill="#7497F7"/>
<path d="M172.09 199.081H146.005V203.419H172.09V199.081Z" fill="#7497F7"/>
<path d="M151.914 207.485H134.245V211.491H151.914V207.485Z" fill="#7497F7"/>
<path d="M172.488 174.429H146.005V178.912H172.488V174.429Z" fill="#7497F7"/>
<path d="M204.423 174.429H177.94V178.912H204.423V174.429Z" fill="#7497F7"/>
<path d="M184.632 182.646H158.149V187.13H184.632V182.646Z" fill="#7497F7"/>
<path d="M216.561 182.646H190.077V187.13H216.561V182.646Z" fill="#7497F7"/>
<path d="M194.481 191.049H158.149V195.533H194.481V191.049Z" fill="#7497F7"/>
<path d="M209.868 191.049H200.165V195.533H209.868V191.049Z" fill="#7497F7"/>
<path d="M167.487 133.347H146.005V137.632H167.487V133.347Z" fill="#7497F7"/>
<path d="M188.963 100.729H159.064V104.722H188.963V100.729Z" fill="#7497F7"/>
<path d="M226.808 100.729H196.909V104.722H226.808V100.729Z" fill="#7497F7"/>
<path d="M226.808 124.884H196.909V128.877H226.808V124.884Z" fill="#7497F7"/>
<path d="M262.663 100.729H232.764V104.722H262.663V100.729Z" fill="#7497F7"/>
<path d="M262.663 191.235H213.397V195.228H262.663V191.235Z" fill="#7497F7"/>
<path opacity="0.48" d="M239.754 86.0381H196.802V90.5217H239.754V86.0381Z" fill="#7497F7"/>
<path d="M202.904 92.7634H159.953V97.2469H202.904V92.7634Z" fill="#7497F7"/>
<path opacity="0.48" d="M253.696 92.7634H210.744V97.2469H253.696V92.7634Z" fill="#7497F7"/>
<path d="M288.118 86.0381H245.166V90.5217H288.118V86.0381Z" fill="#7497F7"/>
</g>
<path d="M101.223 58.6329C101.095 58.2439 101.039 57.8349 101.057 57.4258C101.083 57.25 101.083 57.0711 101.057 56.8952C100.959 56.6475 100.812 56.422 100.626 56.232C100.416 55.9507 100.278 55.6222 100.225 55.2752C100.172 54.9282 100.204 54.5735 100.321 54.2423C100.778 54.1494 100.937 53.7913 101.097 53.3602C101.208 52.9123 101.395 52.4864 101.647 52.1C101.674 52.0583 101.711 52.0231 101.753 51.9968C101.795 51.9704 101.843 51.9536 101.892 51.9474C101.946 51.9528 101.998 51.9721 102.042 52.0035C102.086 52.0349 102.122 52.0773 102.144 52.1265C102.337 52.5112 102.085 53.0352 102.343 53.3734C102.496 53.5591 102.761 53.6188 102.947 53.7647C103.345 54.0632 103.365 54.6734 103.716 55.0116C103.799 55.076 103.875 55.1494 103.942 55.2305C104.015 55.364 104.043 55.5176 104.021 55.6682C103.981 56.2587 103.777 56.8262 103.431 57.3065C103.095 57.643 102.853 58.0613 102.728 58.5202C102.731 58.6635 102.713 58.8064 102.675 58.9447C102.614 59.0614 102.515 59.1536 102.394 59.2056C102.273 59.2575 102.138 59.2661 102.012 59.2299C101.766 59.1702 101.428 58.759 101.223 58.6329Z" fill="url(#paint5_linear_1074_4036)"/>
<path d="M88.2827 74.6569C88.0978 74.4024 87.874 74.1786 87.6194 73.9937C87.2038 73.7273 86.7118 73.606 86.22 73.6488C85.7333 73.696 85.2502 73.7758 84.7741 73.8875C82.6915 74.2722 80.5559 73.7881 78.4402 73.8875C76.0658 74.0268 75.177 76.5405 74.7592 77.5486C73.942 79.492 73.4189 81.5463 73.2072 83.6438C73.1077 84.6387 73.0812 85.6336 73.0546 86.6417C72.9352 90.7074 72.6633 94.7333 72.8225 98.7989L73.0878 105.471C73.0582 105.872 73.1632 106.271 73.3862 106.605C73.6309 106.848 73.9428 107.012 74.2816 107.076C78.0289 108.157 81.9819 108.184 85.8817 108.184C87.8715 108.184 90.1398 108.064 91.453 106.566C92.8989 104.907 92.5208 102.407 92.2157 100.232C91.0948 91.888 93.3631 81.3689 88.2827 74.6569Z" fill="#7497F7"/>
<path d="M88.2827 74.6569C88.0978 74.4024 87.874 74.1786 87.6194 73.9937C87.2038 73.7273 86.7118 73.606 86.22 73.6488C85.7333 73.696 85.2502 73.7758 84.7741 73.8875C82.6915 74.2722 80.5559 73.7881 78.4402 73.8875C76.0658 74.0268 75.177 76.5405 74.7592 77.5486C73.942 79.492 73.4189 81.5463 73.2072 83.6438C73.1077 84.6387 73.0812 85.6336 73.0546 86.6417C72.9352 90.7074 72.6633 94.7333 72.8225 98.7989L73.0878 105.471C73.0582 105.872 73.1632 106.271 73.3862 106.605C73.6309 106.848 73.9428 107.012 74.2816 107.076C78.0289 108.157 81.9819 108.184 85.8817 108.184C87.8715 108.184 90.1398 108.064 91.453 106.566C92.8989 104.907 92.5208 102.407 92.2157 100.232C91.0948 91.888 93.3631 81.3689 88.2827 74.6569Z" fill="url(#paint6_linear_1074_4036)"/>
<path d="M85.6695 71.606C86.1579 71.2584 86.5615 70.8049 86.8501 70.2795C87.0403 69.7741 87.1062 69.2305 87.0424 68.6943C87.0047 67.8438 86.7781 67.0123 86.3792 66.2602C86.1774 65.8855 85.8998 65.557 85.5641 65.2955C85.2284 65.034 84.8419 64.8453 84.4292 64.7414C83.1027 64.4695 81.7365 65.4046 81.113 66.5852C80.5439 67.8322 80.2736 69.1948 80.3238 70.5647C80.2773 72.2825 78.9575 74.9089 80.5692 75.5125C82.4329 76.2089 83.8854 74.186 84.1971 73.2972C84.5101 72.6004 85.0224 72.0119 85.6695 71.606Z" fill="url(#paint7_linear_1074_4036)"/>
<path d="M86.2665 62.8114C86.2591 63.3997 86.0867 63.9742 85.769 64.4695C85.4922 65.0117 85.1587 65.523 84.7742 65.9949C84.5069 66.2587 84.2831 66.5632 84.1109 66.8969C83.9675 67.4743 84.0188 68.0828 84.2568 68.628C83.9716 68.7739 83.6997 68.1239 83.4344 68.303C83.3855 68.3472 83.3509 68.4049 83.3349 68.4688C83.2705 68.674 83.263 68.8928 83.3132 69.1019C83.3634 69.311 83.4695 69.5025 83.6201 69.656C83.7084 69.7262 83.7807 69.8144 83.8324 69.9147C83.9119 70.1203 83.7395 70.3325 83.6599 70.5381C83.4609 71.0422 83.8125 71.659 83.5472 72.1299C83.4116 72.303 83.2352 72.4396 83.0338 72.5276C82.8323 72.6156 82.6122 72.6522 82.3931 72.634C81.6171 72.687 80.8411 72.7069 80.0651 72.687C79.907 72.6974 79.749 72.6654 79.6075 72.5942C79.5071 72.5131 79.4243 72.4125 79.3638 72.2986C79.3034 72.1846 79.2667 72.0595 79.256 71.931C78.8035 70.021 78.5809 68.0638 78.5927 66.101C78.5448 65.5217 78.6793 64.942 78.9774 64.4429C79.2096 64.1312 79.5478 63.9256 79.7932 63.6404C80.0386 63.3552 80.2774 62.8114 80.6024 62.4532C81.0888 62.0091 81.6874 61.7064 82.3334 61.5777C83.6135 61.2395 86.1205 60.7553 86.2665 62.8114Z" fill="#3F3D56"/>
<path d="M72.9684 123.253C73.0887 124.256 73.1131 125.269 73.0414 126.277C72.9263 127.084 72.7444 127.881 72.4975 128.658C71.6667 131.809 70.6116 134.897 69.3405 137.897C68.4252 139.887 67.3043 141.877 66.5748 143.946C65.8186 146.399 65.3316 148.928 65.1223 151.487C65.7644 151.318 66.3359 150.948 66.7538 150.432C72.6365 144.489 77.5851 137.689 81.4314 130.263C82.305 128.695 82.9737 127.021 83.4211 125.282C83.6997 123.806 83.8396 122.307 83.839 120.805C84.0094 117.567 83.9606 114.321 83.6931 111.089C83.5737 109.961 83.3084 108.694 82.3666 108.098C81.8878 107.842 81.357 107.699 80.8146 107.68C79.0039 107.514 77.1535 107.68 75.3694 107.282C74.7061 107.149 73.6781 106.512 73.1873 106.937C72.6965 107.361 72.9684 109.444 72.9419 110.014C72.678 114.423 72.6868 118.845 72.9684 123.253Z" fill="#3F3D56"/>
<path d="M72.9684 123.253C73.0887 124.256 73.1131 125.269 73.0414 126.277C72.9263 127.084 72.7444 127.881 72.4975 128.658C71.6667 131.809 70.6116 134.897 69.3405 137.897C68.4252 139.887 67.3043 141.877 66.5748 143.946C65.8186 146.399 65.3316 148.928 65.1223 151.487C65.7644 151.318 66.3359 150.948 66.7538 150.432C72.6365 144.489 77.5851 137.689 81.4314 130.263C82.305 128.695 82.9737 127.021 83.4211 125.282C83.6997 123.806 83.8396 122.307 83.839 120.805C84.0094 117.567 83.9606 114.321 83.6931 111.089C83.5737 109.961 83.3084 108.694 82.3666 108.098C81.8878 107.842 81.357 107.699 80.8146 107.68C79.0039 107.514 77.1535 107.68 75.3694 107.282C74.7061 107.149 73.6781 106.512 73.1873 106.937C72.6965 107.361 72.9684 109.444 72.9419 110.014C72.678 114.423 72.6868 118.845 72.9684 123.253Z" fill="url(#paint8_linear_1074_4036)"/>
<path d="M86.7373 132.618C86.8941 135.159 86.7516 137.71 86.3129 140.218L84.5951 153.099C84.6854 153.257 84.8073 153.395 84.9533 153.504C85.0993 153.613 85.2661 153.691 85.4435 153.732C85.6208 153.774 85.8048 153.779 85.9841 153.746C86.1633 153.714 86.334 153.644 86.4853 153.543C87.0806 153.11 87.5406 152.516 87.8118 151.832C90.4183 146.712 93.058 141.492 94.0264 135.834C94.4342 133.175 94.6007 130.485 94.5238 127.796C94.4407 121.04 93.6674 114.311 92.2157 107.713C92.1844 107.397 92.0409 107.103 91.8111 106.884C91.5137 106.727 91.1694 106.685 90.8428 106.764L84.9333 107.507C83.5206 107.686 76.6295 107.474 76.6295 107.474C76.6295 107.474 79.0238 113.364 79.707 115.188C81.7829 120.732 86.7373 126.489 86.7373 132.618Z" fill="#3F3D56"/>
<path d="M63.7825 152.488C63.8912 152.744 64.0568 152.97 64.2667 153.152C65.5863 154.446 67.2806 155.291 69.1084 155.566C69.3483 155.636 69.6023 155.642 69.8454 155.584C70.0884 155.526 70.3122 155.405 70.4945 155.234C70.6232 155.028 70.677 154.783 70.6468 154.542C70.6166 154.3 70.5043 154.076 70.3287 153.908C69.9864 153.579 69.5831 153.32 69.1415 153.145C68.7079 152.975 68.313 152.72 67.9802 152.394C67.6475 152.068 67.3838 151.678 67.2049 151.248C66.2564 148.091 62.9667 149.895 63.7825 152.488Z" fill="url(#paint9_linear_1074_4036)"/>
<path d="M83.965 155.924C84.2972 156.459 84.7993 156.868 85.3909 157.085C86.8236 157.748 88.4352 158.318 89.9872 157.96C90.4406 157.884 90.852 157.649 91.1479 157.297C91.2901 157.119 91.3642 156.897 91.3569 156.67C91.3496 156.442 91.2614 156.225 91.1081 156.057C90.75 155.732 90.1862 155.831 89.702 155.778C89.4219 155.744 89.1523 155.651 88.911 155.504C88.6697 155.358 88.4623 155.162 88.3026 154.929C88.1235 154.664 88.0108 154.359 87.845 154.087C86.419 151.686 82.738 153.397 83.965 155.924Z" fill="url(#paint10_linear_1074_4036)"/>
<path d="M63.6697 150.353C63.7996 150.207 63.9646 150.096 64.149 150.031C64.3335 149.966 64.5315 149.949 64.7243 149.981C65.2814 150.114 65.5733 150.771 66.1038 150.996C66.3426 151.096 66.6079 151.102 66.8533 151.189C67.3112 151.409 67.7179 151.723 68.0471 152.11C68.989 152.973 70.3486 153.437 70.972 154.531C71.0496 154.64 71.0982 154.766 71.1132 154.898C71.1283 155.03 71.1094 155.164 71.0583 155.287C70.9974 155.37 70.92 155.439 70.8309 155.491C70.7419 155.542 70.6431 155.575 70.5409 155.586C69.8313 155.725 68.8961 155.977 68.2262 155.699C67.0686 155.244 65.9467 154.703 64.8702 154.08C64.2799 153.722 63.8554 152.754 63.431 152.177C62.9136 151.487 63.0795 150.963 63.6697 150.353Z" fill="#3F3D56"/>
<path d="M84.0579 153.888C83.8788 153.815 83.6599 153.722 83.5206 153.855C83.489 153.884 83.4642 153.921 83.4477 153.961C83.2849 154.375 83.2556 154.83 83.3638 155.261C83.472 155.693 83.7123 156.08 84.0512 156.368C84.7359 156.94 85.5146 157.389 86.3527 157.695C87.1877 158.131 88.0812 158.443 89.0057 158.623C89.4655 158.709 89.94 158.668 90.3782 158.505C90.8164 158.341 91.2018 158.061 91.4928 157.695C91.688 157.42 91.771 157.081 91.7249 156.746C91.5857 156.017 90.7566 155.699 90.0668 155.42C89.1914 155.075 88.4286 154.445 87.5266 154.166C86.3726 153.788 85.1389 154.332 84.0579 153.888Z" fill="#3F3D56"/>
<path d="M88.2297 74.2324L93.4427 71.6391C94.0994 71.3437 94.7203 70.9743 95.2932 70.5381C98.3905 68.0178 98.2181 63.3618 99.8231 59.7074C99.9029 59.4619 100.064 59.2512 100.281 59.1104C100.471 59.0473 100.674 59.0336 100.871 59.0706L102.974 59.3227L101.296 71.6656C101.204 72.5696 101.008 73.4598 100.712 74.3186C100.453 74.9242 100.133 75.502 99.7568 76.043C97.7417 79.0664 95.1797 81.687 92.2025 83.7698C91.8914 84.0215 91.5293 84.2026 91.1413 84.3004C90.6841 84.3717 90.2162 84.2852 89.8148 84.055C88.3756 83.3055 87.7787 81.5678 87.5001 79.9694C87.0711 78.0303 87.329 76.0024 88.2297 74.2324Z" fill="#7497F7"/>
<path d="M88.2297 74.2324L93.4427 71.6391C94.0994 71.3437 94.7203 70.9743 95.2932 70.5381C98.3905 68.0178 98.2181 63.3618 99.8231 59.7074C99.9029 59.4619 100.064 59.2512 100.281 59.1104C100.471 59.0473 100.674 59.0336 100.871 59.0706L102.974 59.3227L101.296 71.6656C101.204 72.5696 101.008 73.4598 100.712 74.3186C100.453 74.9242 100.133 75.502 99.7568 76.043C97.7417 79.0664 95.1797 81.687 92.2025 83.7698C91.8914 84.0215 91.5293 84.2026 91.1413 84.3004C90.6841 84.3717 90.2162 84.2852 89.8148 84.055C88.3756 83.3055 87.7787 81.5678 87.5001 79.9694C87.0711 78.0303 87.329 76.0024 88.2297 74.2324Z" fill="url(#paint11_linear_1074_4036)"/>
<path d="M303.054 220.962H83.4476V233.285H303.054V220.962Z" fill="#7497F7"/>
<path d="M303.054 223.203H83.4476V233.285H303.054V223.203Z" fill="url(#paint12_linear_1074_4036)"/>
<path d="M334.89 228.708C333.921 233.218 331.275 238.06 326.38 242.172C317.4 249.72 305.787 251.676 297.622 251.995C296.614 252.035 295.632 252.054 294.611 252.054C287.315 252.054 280.02 251.093 272.963 250.158L267.962 249.494C259.505 248.44 249.762 247.571 241.167 250.602L240.411 248.453L239.621 246.225C249.166 242.855 259.552 243.771 268.532 244.898C270.21 245.104 271.888 245.329 273.573 245.561C281.412 246.596 289.524 247.67 297.45 247.365C304.885 247.073 315.43 245.323 323.402 238.624C326.579 235.971 329.371 232.071 330.36 227.946C330.919 225.78 330.861 223.501 330.194 221.366C329.905 220.48 329.507 219.633 329.007 218.846C326.752 215.284 322.699 212.996 319.231 211.975C314.077 210.456 308.453 210.648 303.001 210.841H302.802L302.729 208.798L302.636 206.204C308.234 205.999 314.575 205.767 320.544 207.531C327.488 209.574 332.747 214.216 334.604 219.94C335.462 222.788 335.56 225.811 334.89 228.708Z" fill="#FF8B8B"/>
<path d="M334.983 226.188C334.585 231.381 331.952 237.35 326.102 242.272C317.121 249.813 305.501 251.776 297.337 252.088C296.335 252.127 295.347 252.147 294.326 252.147C287.03 252.147 279.734 251.186 272.684 250.25L267.677 249.587C259.22 248.533 249.477 247.664 240.888 250.695L239.343 246.317C239.728 246.185 240.112 246.052 240.504 245.933L241.26 248.082C249.882 245.051 259.598 245.919 268.055 246.974L273.056 247.637C280.119 248.572 287.395 249.534 294.704 249.534C295.705 249.534 296.693 249.534 297.715 249.474C305.879 249.156 317.493 247.2 326.473 239.652C331.368 235.54 334.014 230.698 334.983 226.188Z" fill="url(#paint13_linear_1074_4036)"/>
<path d="M222.012 224.444L253.384 231.607L247.408 259.058L226.648 269.014L198.202 256.631L217.283 248.102L222.012 224.444Z" fill="#FF8B8B"/>
<path d="M222.012 224.444L253.384 231.607L247.408 259.058L226.648 269.014L198.202 256.631L217.283 248.102L222.012 224.444Z" fill="url(#paint14_linear_1074_4036)"/>
<path d="M219.956 223.887L251.328 231.043L245.352 258.495L224.997 268.397L196.55 256.007L215.227 247.538L219.956 223.887Z" fill="#FF8B8B"/>
<path d="M219.207 247.664L243.488 255.324L248.529 233.099L223.319 227.687L219.207 247.664Z" fill="#FF8B8B"/>
<path d="M219.207 247.664L243.488 255.324L248.529 233.099L223.319 227.687L219.207 247.664Z" fill="url(#paint15_linear_1074_4036)"/>
<path d="M329.703 218.972L329 218.839C326.745 215.278 322.693 212.989 319.224 211.968C314.071 210.449 308.267 210.642 302.815 210.841L302.756 208.612C302.756 208.612 314.694 207.949 321.764 211.345C326.248 213.507 329.703 218.972 329.703 218.972Z" fill="url(#paint16_linear_1074_4036)"/>
</g>
<defs>
<linearGradient id="paint0_linear_1074_4036" x1="308.751" y1="234.565" x2="337.032" y2="234.565" gradientUnits="userSpaceOnUse">
<stop stop-opacity="0"/>
<stop offset="0.99"/>
</linearGradient>
<linearGradient id="paint1_linear_1074_4036" x1="86.2664" y1="236.223" x2="327.209" y2="236.223" gradientUnits="userSpaceOnUse">
<stop stop-opacity="0"/>
<stop offset="0.99"/>
</linearGradient>
<linearGradient id="paint2_linear_1074_4036" x1="66.4487" y1="87.6631" x2="122.095" y2="70.9826" gradientUnits="userSpaceOnUse">
<stop stop-opacity="0"/>
<stop offset="0.99"/>
</linearGradient>
<linearGradient id="paint3_linear_1074_4036" x1="419.228" y1="-137.236" x2="53.2104" y2="264.636" gradientUnits="userSpaceOnUse">
<stop stop-color="white" stop-opacity="0"/>
<stop offset="0.99" stop-color="white"/>
</linearGradient>
<linearGradient id="paint4_linear_1074_4036" x1="21.6272" y1="-20298.4" x2="140.401" y2="10998.5" gradientUnits="userSpaceOnUse">
<stop stop-opacity="0"/>
<stop offset="0.99"/>
</linearGradient>
<linearGradient id="paint5_linear_1074_4036" x1="100.181" y1="55.582" x2="104.002" y2="55.582" gradientUnits="userSpaceOnUse">
<stop stop-color="#ECC4D7"/>
<stop offset="0.42" stop-color="#EFD4D1"/>
<stop offset="1" stop-color="#F2EAC9"/>
</linearGradient>
<linearGradient id="paint6_linear_1074_4036" x1="80.8477" y1="94.6073" x2="178.325" y2="-29.9498" gradientUnits="userSpaceOnUse">
<stop stop-opacity="0"/>
<stop offset="0.99"/>
</linearGradient>
<linearGradient id="paint7_linear_1074_4036" x1="79.76" y1="70.1601" x2="87.0557" y2="70.1601" gradientUnits="userSpaceOnUse">
<stop stop-color="#ECC4D7"/>
<stop offset="0.42" stop-color="#EFD4D1"/>
<stop offset="1" stop-color="#F2EAC9"/>
</linearGradient>
<linearGradient id="paint8_linear_1074_4036" x1="77.4453" y1="127.119" x2="84.4226" y2="125.375" gradientUnits="userSpaceOnUse">
<stop stop-opacity="0"/>
<stop offset="0.99"/>
</linearGradient>
<linearGradient id="paint9_linear_1074_4036" x1="63.6565" y1="152.601" x2="70.6471" y2="152.601" gradientUnits="userSpaceOnUse">
<stop stop-color="#ECC4D7"/>
<stop offset="0.42" stop-color="#EFD4D1"/>
<stop offset="1" stop-color="#F2EAC9"/>
</linearGradient>
<linearGradient id="paint10_linear_1074_4036" x1="83.7196" y1="155.506" x2="91.3601" y2="155.506" gradientUnits="userSpaceOnUse">
<stop stop-color="#ECC4D7"/>
<stop offset="0.42" stop-color="#EFD4D1"/>
<stop offset="1" stop-color="#F2EAC9"/>
</linearGradient>
<linearGradient id="paint11_linear_1074_4036" x1="100.261" y1="76.3349" x2="37.3258" y2="3.50415" gradientUnits="userSpaceOnUse">
<stop stop-opacity="0"/>
<stop offset="0.99"/>
</linearGradient>
<linearGradient id="paint12_linear_1074_4036" x1="193.254" y1="244.182" x2="193.254" y2="213.228" gradientUnits="userSpaceOnUse">
<stop stop-color="white" stop-opacity="0"/>
<stop offset="0.99" stop-color="white"/>
</linearGradient>
<linearGradient id="paint13_linear_1074_4036" x1="334.432" y1="195.142" x2="57.6807" y2="458.449" gradientUnits="userSpaceOnUse">
<stop stop-opacity="0"/>
<stop offset="0.99"/>
</linearGradient>
<linearGradient id="paint14_linear_1074_4036" x1="230.595" y1="247.763" x2="287.362" y2="290.901" gradientUnits="userSpaceOnUse">
<stop stop-opacity="0"/>
<stop offset="0.99"/>
</linearGradient>
<linearGradient id="paint15_linear_1074_4036" x1="241.054" y1="206.755" x2="226.867" y2="272.111" gradientUnits="userSpaceOnUse">
<stop stop-color="white" stop-opacity="0"/>
<stop offset="0.99" stop-color="white"/>
</linearGradient>
<linearGradient id="paint16_linear_1074_4036" x1="323.595" y1="206.788" x2="277.022" y2="251.093" gradientUnits="userSpaceOnUse">
<stop stop-opacity="0"/>
<stop offset="0.99"/>
</linearGradient>
<clipPath id="clip0_1074_4036">
<rect width="382.118" height="288" fill="white" transform="translate(0 0.791504)"/>
</clipPath>
</defs>
</svg>
