<svg width="383" height="289" viewBox="0 0 383 289" fill="none" xmlns="http://www.w3.org/2000/svg">
<g clip-path="url(#clip0_998_3474)">
<path d="M355.284 178.877C349.256 190.235 338.341 199.102 335.312 211.607C334.007 217.001 334.307 222.68 333.635 228.178C331.262 247.517 316.763 263.637 299.481 272.773C298.753 273.168 298.017 273.564 297.29 273.896C285.939 279.433 273.656 282.454 261.127 284.345C253.51 285.476 245.806 286.195 238.189 286.804C206.386 289.314 174.539 290.229 142.647 289.549C127.239 289.233 111.523 288.505 97.032 283.387C96.2885 283.134 95.5529 282.857 94.8173 282.596C83.0635 278.033 72.6227 270.534 63.3842 261.952L62.9571 261.557C49.1784 248.68 37.7805 233.082 30.4166 215.752C19.9092 190.95 18.0836 163.327 25.2357 137.359C29.5939 121.919 37.2031 107.191 38.3816 91.1976C39.2675 79.1749 36.4358 66.9939 38.3183 55.0898C42.0201 31.424 63.9932 14.0148 87.2003 8.19323C110.407 2.37169 134.825 5.6384 158.522 8.9842C170.094 10.6373 183.643 15.0509 195.104 11.5153C209.192 7.18079 221.032 1.77846 236.235 1.74683C242.436 1.74683 248.756 2.39542 254.427 4.91071C261.309 7.91639 266.766 13.3741 272.358 18.3572C287.964 32.3415 305.761 43.6682 321.707 57.2729C337.653 70.8776 352.112 87.4009 357.981 107.515C360.852 117.347 361.556 127.685 361.865 137.92C362.3 151.905 361.849 166.522 355.284 178.877Z" fill="#F0F4FE"/>
<path d="M275.068 93.944H113.307C106.361 93.944 100.73 99.5746 100.73 106.52V214.488C100.73 221.434 106.361 227.064 113.307 227.064H275.068C282.014 227.064 287.645 221.434 287.645 214.488V106.52C287.645 99.5746 282.014 93.944 275.068 93.944Z" fill="#7497F7"/>
<path d="M110.72 174.386C108.798 175.762 106.251 175.968 104.234 177.162C102.319 178.481 100.877 180.38 100.121 182.58C98.2389 187.223 97.9621 192.349 97.9858 197.355C97.9858 202.647 97.9067 208.54 99.1248 213.713C99.457 215.136 101.672 221.393 103.823 221.156C105.184 221.005 106.354 195.932 106.86 192.681C107.367 189.43 107.936 186.353 108.609 183.189C108.949 181.623 109.471 175.287 110.72 174.386Z" fill="url(#paint0_linear_998_3474)"/>
<path d="M276.239 103.451H112.144V214.844H276.239V103.451Z" fill="white"/>
<path d="M219.684 217.96C219.795 215.587 220.286 212.827 218.648 211.094C217.835 210.39 216.913 209.822 215.919 209.41C214.263 208.495 212.849 207.196 211.797 205.624C210.744 204.051 210.083 202.249 209.868 200.369C209.663 198.352 209.987 196.311 209.868 194.278C209.687 190.134 207.788 186.258 205.581 182.738C203.375 179.218 200.836 175.904 199.048 172.147C198.676 171.356 198.423 170.241 199.143 169.774C199.863 169.308 200.836 169.964 201.468 170.565C208.326 177.613 215.919 184.122 224.62 188.639C227.309 190.039 230.117 191.241 232.609 192.965C236.754 195.845 239.838 200.084 242.101 204.577C244.363 209.07 245.81 213.966 247.273 218.814C247.811 220.586 248.341 222.516 247.716 224.256C247.556 224.796 247.208 225.262 246.736 225.569C246.282 225.786 245.783 225.895 245.28 225.886C238.952 226.234 232.569 226.242 226.202 226.321C224.62 226.321 222.745 226.692 221.456 225.577C219.637 223.964 219.582 220.119 219.684 217.96Z" fill="url(#paint1_linear_998_3474)"/>
<path d="M137.139 123.653H132.251V168.39H137.139V123.653Z" fill="#FF8B8B"/>
<path d="M145.65 130.969H140.761V168.39H145.65V130.969Z" fill="#7497F7"/>
<path d="M153.979 137.645H149.09V168.382H153.979V137.645Z" fill="#7497F7"/>
<path d="M162.489 130.969H157.601V168.39H162.489V130.969Z" fill="#7497F7"/>
<path d="M170.826 146.014H165.938V168.382H170.826V146.014Z" fill="#7497F7"/>
<path d="M179.337 130.969H174.449V168.39H179.337V130.969Z" fill="#7497F7"/>
<path d="M187.666 142.201H182.778V168.39H187.666V142.201Z" fill="#7497F7"/>
<path d="M196.177 137.163H191.289V168.39H196.177V137.163Z" fill="#7497F7"/>
<path d="M158.06 182.517H130.075V184.146H158.06V182.517Z" fill="#FF8B8B"/>
<path d="M158.06 187.041H130.075V188.671H158.06V187.041Z" fill="#7497F7"/>
<path d="M158.06 191.565H130.075V193.195H158.06V191.565Z" fill="#7497F7"/>
<path d="M158.06 196.098H130.075V197.727H158.06V196.098Z" fill="#7497F7"/>
<path d="M158.06 200.622H130.075V202.251H158.06V200.622Z" fill="#7497F7"/>
<path d="M230.734 120.71C225.909 120.696 221.276 122.598 217.854 126C214.432 129.401 212.501 134.022 212.487 138.847C212.472 143.672 214.375 148.305 217.776 151.727C221.177 155.15 225.799 157.08 230.624 157.095V150.767H230.552C228.169 150.769 225.84 150.064 223.858 148.741C221.875 147.418 220.33 145.537 219.417 143.336C218.504 141.135 218.265 138.713 218.728 136.375C219.192 134.038 220.339 131.891 222.024 130.205C223.708 128.52 225.854 127.372 228.191 126.906C230.528 126.441 232.951 126.679 235.153 127.591C237.354 128.502 239.236 130.046 240.56 132.027C241.884 134.009 242.591 136.338 242.591 138.721C242.593 139.298 242.551 139.874 242.464 140.445H248.863C248.911 139.918 248.934 139.404 248.934 138.903C248.934 136.513 248.464 134.147 247.549 131.939C246.634 129.731 245.293 127.725 243.603 126.036C241.913 124.347 239.907 123.007 237.699 122.093C235.49 121.179 233.124 120.709 230.734 120.71Z" fill="#FF8B8B"/>
<path d="M367.43 75H267.323C263.925 75 261.169 77.7551 261.169 81.1537V103.745C261.169 107.144 263.925 109.899 267.323 109.899H367.43C370.828 109.899 373.583 107.144 373.583 103.745V81.1537C373.583 77.7551 370.828 75 367.43 75Z" fill="#E0E8FF"/>
<path d="M274.827 90.3146H273.497C273.446 90.0305 273.351 89.7805 273.211 89.5646C273.072 89.3487 272.902 89.1654 272.7 89.0149C272.498 88.8643 272.273 88.7507 272.023 88.674C271.775 88.5972 271.513 88.5589 271.234 88.5589C270.731 88.5589 270.281 88.6853 269.883 88.9382C269.488 89.191 269.176 89.5617 268.946 90.0504C268.719 90.539 268.605 91.1356 268.605 91.8401C268.605 92.5504 268.719 93.1498 268.946 93.6384C269.176 94.1271 269.49 94.4964 269.888 94.7464C270.285 94.9964 270.733 95.1214 271.23 95.1214C271.506 95.1214 271.767 95.0845 272.014 95.0106C272.264 94.9339 272.49 94.8217 272.692 94.674C272.893 94.5262 273.064 94.3458 273.203 94.1328C273.345 93.9168 273.443 93.6697 273.497 93.3913L274.827 93.3955C274.756 93.8245 274.618 94.2194 274.413 94.5802C274.211 94.9382 273.952 95.2478 273.633 95.5092C273.318 95.7677 272.957 95.968 272.551 96.11C272.145 96.2521 271.702 96.3231 271.221 96.3231C270.466 96.3231 269.792 96.1441 269.202 95.7862C268.611 95.4254 268.145 94.9097 267.804 94.2393C267.466 93.5688 267.297 92.7691 267.297 91.8401C267.297 90.9083 267.467 90.1086 267.808 89.441C268.149 88.7705 268.615 88.2563 269.206 87.8984C269.797 87.5376 270.469 87.3572 271.221 87.3572C271.684 87.3572 272.116 87.424 272.517 87.5575C272.92 87.6882 273.282 87.8813 273.604 88.137C273.925 88.3899 274.19 88.6995 274.4 89.066C274.611 89.4296 274.753 89.8458 274.827 90.3146Z" fill="#7497F7"/>
<path d="M279.057 96.3359C278.443 96.3359 277.908 96.1953 277.45 95.914C276.993 95.6328 276.638 95.2393 276.385 94.7336C276.132 94.2279 276.006 93.637 276.006 92.9609C276.006 92.2819 276.132 91.6882 276.385 91.1796C276.638 90.6711 276.993 90.2762 277.45 89.995C277.908 89.7137 278.443 89.5731 279.057 89.5731C279.671 89.5731 280.206 89.7137 280.664 89.995C281.121 90.2762 281.476 90.6711 281.729 91.1796C281.982 91.6882 282.108 92.2819 282.108 92.9609C282.108 93.637 281.982 94.2279 281.729 94.7336C281.476 95.2393 281.121 95.6328 280.664 95.914C280.206 96.1953 279.671 96.3359 279.057 96.3359ZM279.061 95.2663C279.459 95.2663 279.789 95.1612 280.05 94.9509C280.311 94.7407 280.504 94.4609 280.629 94.1115C280.757 93.762 280.821 93.3771 280.821 92.9566C280.821 92.539 280.757 92.1555 280.629 91.8061C280.504 91.4538 280.311 91.1711 280.05 90.958C279.789 90.745 279.459 90.6384 279.061 90.6384C278.661 90.6384 278.328 90.745 278.064 90.958C277.803 91.1711 277.608 91.4538 277.48 91.8061C277.355 92.1555 277.293 92.539 277.293 92.9566C277.293 93.3771 277.355 93.762 277.48 94.1115C277.608 94.4609 277.803 94.7407 278.064 94.9509C278.328 95.1612 278.661 95.2663 279.061 95.2663Z" fill="#7497F7"/>
<path d="M283.53 96.2038V89.6583H284.753V90.7237H284.834C284.971 90.3629 285.194 90.0816 285.503 89.8799C285.813 89.6754 286.184 89.5731 286.616 89.5731C287.053 89.5731 287.42 89.6754 287.715 89.8799C288.013 90.0845 288.233 90.3657 288.376 90.7237H288.444C288.6 90.3742 288.849 90.0958 289.189 89.8884C289.53 89.6782 289.937 89.5731 290.408 89.5731C291.002 89.5731 291.486 89.7592 291.861 90.1313C292.239 90.5035 292.428 91.0646 292.428 91.8146V96.2038H291.154V91.9339C291.154 91.4907 291.033 91.1697 290.792 90.9708C290.55 90.772 290.262 90.6725 289.927 90.6725C289.512 90.6725 289.189 90.8004 288.959 91.0561C288.729 91.3089 288.614 91.6342 288.614 92.0319V96.2038H287.344V91.8529C287.344 91.4978 287.233 91.2123 287.012 90.9964C286.79 90.7805 286.502 90.6725 286.147 90.6725C285.905 90.6725 285.682 90.7365 285.478 90.8643C285.276 90.9893 285.113 91.164 284.988 91.3884C284.866 91.6129 284.805 91.8728 284.805 92.1683V96.2038H283.53Z" fill="#7497F7"/>
<path d="M294.136 96.2038V89.6583H295.359V90.7237H295.44C295.576 90.3629 295.799 90.0816 296.109 89.8799C296.419 89.6754 296.789 89.5731 297.221 89.5731C297.659 89.5731 298.025 89.6754 298.32 89.8799C298.619 90.0845 298.839 90.3657 298.981 90.7237H299.049C299.205 90.3742 299.454 90.0958 299.795 89.8884C300.136 89.6782 300.542 89.5731 301.014 89.5731C301.607 89.5731 302.092 89.7592 302.467 90.1313C302.845 90.5035 303.034 91.0646 303.034 91.8146V96.2038H301.759V91.9339C301.759 91.4907 301.639 91.1697 301.397 90.9708C301.156 90.772 300.867 90.6725 300.532 90.6725C300.117 90.6725 299.795 90.8004 299.565 91.0561C299.335 91.3089 299.22 91.6342 299.22 92.0319V96.2038H297.95V91.8529C297.95 91.4978 297.839 91.2123 297.617 90.9964C297.396 90.7805 297.107 90.6725 296.752 90.6725C296.511 90.6725 296.288 90.7365 296.083 90.8643C295.882 90.9893 295.718 91.164 295.593 91.3884C295.471 91.6129 295.41 91.8728 295.41 92.1683V96.2038H294.136Z" fill="#7497F7"/>
<path d="M308.888 93.4893V89.6583H310.166V96.2038H308.913V95.0703H308.845C308.694 95.4197 308.453 95.7109 308.121 95.9438C307.791 96.174 307.381 96.289 306.889 96.289C306.469 96.289 306.096 96.1967 305.773 96.012C305.452 95.8245 305.199 95.5475 305.014 95.1811C304.832 94.8146 304.741 94.3615 304.741 93.8217V89.6583H306.015V93.6683C306.015 94.1143 306.139 94.4694 306.386 94.7336C306.633 94.9978 306.954 95.1299 307.349 95.1299C307.588 95.1299 307.825 95.0703 308.061 94.9509C308.3 94.8316 308.497 94.6512 308.653 94.4097C308.812 94.1683 308.89 93.8615 308.888 93.4893Z" fill="#7497F7"/>
<path d="M313.152 92.3174V96.2038H311.878V89.6583H313.101V90.7237H313.182C313.333 90.3771 313.568 90.0987 313.889 89.8884C314.213 89.6782 314.621 89.5731 315.112 89.5731C315.558 89.5731 315.949 89.6668 316.284 89.8543C316.619 90.039 316.879 90.3146 317.064 90.6811C317.249 91.0475 317.341 91.5007 317.341 92.0404V96.2038H316.067V92.1938C316.067 91.7194 315.943 91.3487 315.696 91.0816C315.449 90.8117 315.11 90.6768 314.678 90.6768C314.382 90.6768 314.119 90.7407 313.889 90.8686C313.662 90.9964 313.482 91.1839 313.348 91.4311C313.218 91.6754 313.152 91.9708 313.152 92.3174Z" fill="#7497F7"/>
<path d="M319.05 96.2038V89.6583H320.324V96.2038H319.05ZM319.693 88.6484C319.472 88.6484 319.281 88.5745 319.122 88.4268C318.966 88.2762 318.888 88.0972 318.888 87.8899C318.888 87.6796 318.966 87.5007 319.122 87.3529C319.281 87.2024 319.472 87.1271 319.693 87.1271C319.915 87.1271 320.104 87.2024 320.26 87.3529C320.419 87.5007 320.499 87.6796 320.499 87.8899C320.499 88.0972 320.419 88.2762 320.26 88.4268C320.104 88.5745 319.915 88.6484 319.693 88.6484Z" fill="#7497F7"/>
<path d="M325.094 89.6583V90.6811H321.518V89.6583H325.094ZM322.477 88.0901H323.751V94.2819C323.751 94.5291 323.788 94.7151 323.862 94.8401C323.936 94.9623 324.031 95.0461 324.148 95.0916C324.267 95.1342 324.396 95.1555 324.535 95.1555C324.638 95.1555 324.727 95.1484 324.804 95.1342C324.881 95.12 324.94 95.1086 324.983 95.1001L325.213 96.1526C325.139 96.1811 325.034 96.2095 324.898 96.2379C324.761 96.2691 324.591 96.2862 324.386 96.289C324.051 96.2947 323.738 96.235 323.449 96.11C323.159 95.985 322.925 95.7918 322.746 95.5305C322.567 95.2691 322.477 94.941 322.477 94.5461V88.0901Z" fill="#7497F7"/>
<path d="M327.308 98.6583C327.118 98.6583 326.945 98.6427 326.789 98.6115C326.632 98.583 326.516 98.5518 326.439 98.5177L326.746 97.4737C326.979 97.5362 327.186 97.5632 327.368 97.5546C327.55 97.5461 327.71 97.4779 327.85 97.3501C327.992 97.2222 328.117 97.0134 328.225 96.7237L328.382 96.289L325.987 89.6583H327.351L329.009 94.7379H329.077L330.735 89.6583H332.102L329.405 97.0774C329.28 97.4183 329.121 97.7066 328.928 97.9424C328.735 98.1811 328.504 98.36 328.237 98.4793C327.97 98.5987 327.661 98.6583 327.308 98.6583Z" fill="#7497F7"/>
<path d="M336.578 96.2038V87.4765H339.689C340.365 87.4765 340.926 87.593 341.372 87.8259C341.821 88.0589 342.156 88.3813 342.378 88.7933C342.599 89.2024 342.71 89.6754 342.71 90.2123C342.71 90.7464 342.598 91.2166 342.373 91.6228C342.152 92.0262 341.817 92.3401 341.368 92.5646C340.922 92.789 340.361 92.9012 339.684 92.9012H337.328V91.7677H339.565C339.991 91.7677 340.338 91.7066 340.605 91.5845C340.875 91.4623 341.072 91.2847 341.197 91.0518C341.322 90.8188 341.385 90.539 341.385 90.2123C341.385 89.8828 341.321 89.5972 341.193 89.3558C341.068 89.1143 340.871 88.9296 340.601 88.8018C340.334 88.6711 339.983 88.6058 339.548 88.6058H337.895V96.2038H336.578ZM340.886 92.2663L343.042 96.2038H341.542L339.429 92.2663H340.886Z" fill="#7497F7"/>
<path d="M346.949 96.3359C346.304 96.3359 345.749 96.1981 345.283 95.9225C344.82 95.6441 344.462 95.2535 344.209 94.7507C343.959 94.245 343.834 93.6526 343.834 92.9737C343.834 92.3032 343.959 91.7123 344.209 91.2009C344.462 90.6896 344.814 90.2904 345.266 90.0035C345.72 89.7166 346.252 89.5731 346.86 89.5731C347.229 89.5731 347.587 89.6342 347.933 89.7563C348.28 89.8785 348.591 90.0703 348.867 90.3316C349.142 90.593 349.36 90.9325 349.519 91.3501C349.678 91.7649 349.757 92.2691 349.757 92.8629V93.3146H344.554V92.36H348.509C348.509 92.0248 348.441 91.7279 348.304 91.4694C348.168 91.208 347.976 91.0021 347.729 90.8515C347.485 90.7009 347.198 90.6257 346.868 90.6257C346.51 90.6257 346.198 90.7137 345.931 90.8899C345.666 91.0632 345.462 91.2904 345.317 91.5717C345.175 91.8501 345.104 92.1526 345.104 92.4793V93.2251C345.104 93.6626 345.181 94.0347 345.334 94.3416C345.49 94.6484 345.708 94.8828 345.986 95.0447C346.264 95.2038 346.59 95.2833 346.962 95.2833C347.203 95.2833 347.423 95.2492 347.622 95.1811C347.821 95.11 347.993 95.0049 348.138 94.8657C348.283 94.7265 348.394 94.5546 348.47 94.3501L349.676 94.5674C349.58 94.9225 349.406 95.2336 349.156 95.5007C348.909 95.7649 348.598 95.9708 348.223 96.1186C347.851 96.2634 347.426 96.3359 346.949 96.3359Z" fill="#7497F7"/>
<path d="M354.226 89.6583V90.6811H350.651V89.6583H354.226ZM351.61 88.0901H352.884V94.2819C352.884 94.5291 352.921 94.7151 352.995 94.8401C353.069 94.9623 353.164 95.0461 353.28 95.0916C353.4 95.1342 353.529 95.1555 353.668 95.1555C353.77 95.1555 353.86 95.1484 353.937 95.1342C354.013 95.12 354.073 95.1086 354.116 95.1001L354.346 96.1526C354.272 96.1811 354.167 96.2095 354.03 96.2379C353.894 96.2691 353.724 96.2862 353.519 96.289C353.184 96.2947 352.871 96.235 352.581 96.11C352.292 95.985 352.057 95.7918 351.878 95.5305C351.699 95.2691 351.61 94.941 351.61 94.5461V88.0901Z" fill="#7497F7"/>
<path d="M355.636 96.2038V89.6583H356.867V90.6981H356.936C357.055 90.3458 357.265 90.0688 357.566 89.8671C357.87 89.6626 358.214 89.5603 358.597 89.5603C358.677 89.5603 358.771 89.5632 358.879 89.5688C358.99 89.5745 359.076 89.5816 359.139 89.5901V90.8089C359.088 90.7947 358.997 90.7791 358.866 90.762C358.735 90.7421 358.605 90.7322 358.474 90.7322C358.173 90.7322 357.904 90.7961 357.669 90.924C357.436 91.049 357.251 91.2237 357.115 91.4481C356.978 91.6697 356.91 91.9225 356.91 92.2066V96.2038H355.636Z" fill="#7497F7"/>
<path d="M362.764 96.3359C362.15 96.3359 361.615 96.1953 361.157 95.914C360.7 95.6328 360.345 95.2393 360.092 94.7336C359.839 94.2279 359.713 93.637 359.713 92.9609C359.713 92.2819 359.839 91.6882 360.092 91.1796C360.345 90.6711 360.7 90.2762 361.157 89.995C361.615 89.7137 362.15 89.5731 362.764 89.5731C363.378 89.5731 363.913 89.7137 364.371 89.995C364.828 90.2762 365.183 90.6711 365.436 91.1796C365.689 91.6882 365.815 92.2819 365.815 92.9609C365.815 93.637 365.689 94.2279 365.436 94.7336C365.183 95.2393 364.828 95.6328 364.371 95.914C363.913 96.1953 363.378 96.3359 362.764 96.3359ZM362.768 95.2663C363.166 95.2663 363.496 95.1612 363.757 94.9509C364.018 94.7407 364.211 94.4609 364.336 94.1115C364.464 93.762 364.528 93.3771 364.528 92.9566C364.528 92.539 364.464 92.1555 364.336 91.8061C364.211 91.4538 364.018 91.1711 363.757 90.958C363.496 90.745 363.166 90.6384 362.768 90.6384C362.368 90.6384 362.035 90.745 361.771 90.958C361.51 91.1711 361.315 91.4538 361.187 91.8061C361.062 92.1555 361 92.539 361 92.9566C361 93.3771 361.062 93.762 361.187 94.1115C361.315 94.4609 361.51 94.7407 361.771 94.9509C362.035 95.1612 362.368 95.2663 362.768 95.2663Z" fill="#7497F7"/>
<path d="M350.21 164.147H283.004C280.723 164.147 278.873 166.937 278.873 170.379V193.26C278.873 196.702 280.723 199.493 283.004 199.493H350.21C352.492 199.493 354.341 196.702 354.341 193.26V170.379C354.341 166.937 352.492 164.147 350.21 164.147Z" fill="#E0E8FF"/>
<path d="M298.796 177.273H300.109V183.46C300.109 184.02 299.998 184.499 299.776 184.896C299.558 185.294 299.249 185.598 298.852 185.808C298.454 186.016 297.988 186.119 297.454 186.119C296.962 186.119 296.521 186.03 296.129 185.851C295.739 185.672 295.431 185.412 295.204 185.071C294.979 184.727 294.867 184.31 294.867 183.818H296.175C296.175 184.06 296.231 184.269 296.342 184.445C296.455 184.621 296.61 184.759 296.806 184.858C297.005 184.955 297.232 185.003 297.488 185.003C297.766 185.003 298.002 184.945 298.195 184.828C298.391 184.709 298.54 184.534 298.643 184.304C298.745 184.074 298.796 183.793 298.796 183.46V177.273Z" fill="#7497F7"/>
<path d="M304.744 186.132C304.099 186.132 303.544 185.994 303.078 185.719C302.615 185.44 302.257 185.05 302.004 184.547C301.754 184.041 301.629 183.449 301.629 182.77C301.629 182.099 301.754 181.509 302.004 180.997C302.257 180.486 302.609 180.087 303.061 179.8C303.515 179.513 304.047 179.369 304.654 179.369C305.024 179.369 305.382 179.43 305.728 179.553C306.075 179.675 306.386 179.867 306.662 180.128C306.937 180.389 307.154 180.729 307.314 181.146C307.473 181.561 307.552 182.065 307.552 182.659V183.111H302.349V182.156H306.304C306.304 181.821 306.235 181.524 306.099 181.266C305.963 181.004 305.771 180.798 305.524 180.648C305.279 180.497 304.993 180.422 304.663 180.422C304.305 180.422 303.993 180.51 303.725 180.686C303.461 180.859 303.257 181.087 303.112 181.368C302.97 181.646 302.899 181.949 302.899 182.276V183.021C302.899 183.459 302.975 183.831 303.129 184.138C303.285 184.445 303.502 184.679 303.781 184.841C304.059 185 304.385 185.08 304.757 185.08C304.998 185.08 305.218 185.045 305.417 184.977C305.616 184.906 305.788 184.801 305.933 184.662C306.078 184.523 306.189 184.351 306.265 184.146L307.471 184.364C307.375 184.719 307.201 185.03 306.951 185.297C306.704 185.561 306.393 185.767 306.018 185.915C305.646 186.06 305.221 186.132 304.744 186.132Z" fill="#7497F7"/>
<path d="M310.24 182.114V186H308.966V179.455H310.189V180.52H310.27C310.42 180.173 310.656 179.895 310.977 179.685C311.301 179.474 311.709 179.369 312.2 179.369C312.646 179.369 313.037 179.463 313.372 179.651C313.707 179.835 313.967 180.111 314.152 180.477C314.337 180.844 314.429 181.297 314.429 181.837V186H313.155V181.99C313.155 181.516 313.031 181.145 312.784 180.878C312.537 180.608 312.197 180.473 311.766 180.473C311.47 180.473 311.207 180.537 310.977 180.665C310.75 180.793 310.57 180.98 310.436 181.227C310.305 181.472 310.24 181.767 310.24 182.114Z" fill="#7497F7"/>
<path d="M317.31 183.78L317.301 182.224H317.523L320.131 179.455H321.656L318.682 182.608H318.482L317.31 183.78ZM316.138 186V177.273H317.412V186H316.138ZM320.271 186L317.928 182.889L318.805 181.999L321.835 186H320.271Z" fill="#7497F7"/>
<path d="M322.817 186V179.455H324.092V186H322.817ZM323.461 178.445C323.239 178.445 323.049 178.371 322.89 178.223C322.734 178.072 322.656 177.894 322.656 177.686C322.656 177.476 322.734 177.297 322.89 177.149C323.049 176.999 323.239 176.923 323.461 176.923C323.683 176.923 323.871 176.999 324.028 177.149C324.187 177.297 324.266 177.476 324.266 177.686C324.266 177.894 324.187 178.072 324.028 178.223C323.871 178.371 323.683 178.445 323.461 178.445Z" fill="#7497F7"/>
<path d="M327.08 182.114V186H325.806V179.455H327.029V180.52H327.11C327.26 180.173 327.496 179.895 327.817 179.685C328.141 179.474 328.549 179.369 329.04 179.369C329.486 179.369 329.877 179.463 330.212 179.651C330.547 179.835 330.807 180.111 330.992 180.477C331.176 180.844 331.269 181.297 331.269 181.837V186H329.995V181.99C329.995 181.516 329.871 181.145 329.624 180.878C329.377 180.608 329.037 180.473 328.605 180.473C328.31 180.473 328.047 180.537 327.817 180.665C327.59 180.793 327.409 180.98 327.276 181.227C327.145 181.472 327.08 181.767 327.08 182.114Z" fill="#7497F7"/>
<path d="M337.882 181.053L336.728 181.257C336.679 181.109 336.603 180.969 336.498 180.835C336.395 180.702 336.256 180.592 336.08 180.507C335.904 180.422 335.684 180.379 335.419 180.379C335.059 180.379 334.757 180.46 334.516 180.622C334.275 180.781 334.154 180.987 334.154 181.24C334.154 181.459 334.235 181.635 334.397 181.769C334.559 181.902 334.82 182.011 335.181 182.097L336.221 182.335C336.823 182.474 337.272 182.689 337.567 182.979C337.863 183.269 338.01 183.645 338.01 184.108C338.01 184.5 337.897 184.849 337.669 185.156C337.445 185.46 337.131 185.699 336.728 185.872C336.327 186.045 335.863 186.132 335.334 186.132C334.601 186.132 334.003 185.976 333.54 185.663C333.077 185.348 332.793 184.901 332.688 184.321L333.919 184.134C333.996 184.455 334.154 184.697 334.392 184.862C334.631 185.024 334.942 185.105 335.326 185.105C335.743 185.105 336.077 185.019 336.327 184.845C336.577 184.669 336.702 184.455 336.702 184.202C336.702 183.997 336.625 183.825 336.472 183.686C336.321 183.547 336.09 183.442 335.777 183.371L334.669 183.128C334.059 182.989 333.607 182.767 333.314 182.463C333.025 182.159 332.88 181.774 332.88 181.308C332.88 180.922 332.988 180.584 333.203 180.294C333.419 180.004 333.718 179.778 334.098 179.617C334.479 179.452 334.915 179.369 335.407 179.369C336.114 179.369 336.671 179.523 337.077 179.83C337.483 180.134 337.752 180.541 337.882 181.053Z" fill="#7497F7"/>
<path d="M114.327 43.6528H14.2207C10.8221 43.6528 8.06696 46.408 8.06696 49.8066V72.398C8.06696 75.7967 10.8221 78.5518 14.2207 78.5518H114.327C117.726 78.5518 120.481 75.7967 120.481 72.398V49.8066C120.481 46.408 117.726 43.6528 114.327 43.6528Z" fill="#E0E8FF"/>
<path d="M16.0954 65L13.6749 56.2727H15.0598L16.7601 63.0312H16.8411L18.6096 56.2727H19.9817L21.7502 63.0355H21.8311L23.5272 56.2727H24.9164L22.4917 65H21.1664L19.3297 58.463H19.2615L17.4249 65H16.0954Z" fill="#7497F7"/>
<path d="M28.1912 65.1321C27.5463 65.1321 26.9909 64.9943 26.525 64.7187C26.062 64.4403 25.704 64.0497 25.4512 63.5469C25.2012 63.0412 25.0762 62.4488 25.0762 61.7699C25.0762 61.0994 25.2012 60.5085 25.4512 59.9971C25.704 59.4858 26.0563 59.0866 26.508 58.7997C26.9625 58.5128 27.4938 58.3693 28.1017 58.3693C28.4711 58.3693 28.829 58.4304 29.1756 58.5525C29.5222 58.6747 29.8333 58.8665 30.1088 59.1278C30.3844 59.3892 30.6017 59.7287 30.7608 60.1463C30.9199 60.5611 30.9995 61.0653 30.9995 61.6591V62.1108H25.7963V61.1562H29.7509C29.7509 60.821 29.6827 60.5241 29.5463 60.2656C29.41 60.0042 29.2182 59.7983 28.9711 59.6477C28.7267 59.4971 28.4398 59.4219 28.1103 59.4219C27.7523 59.4219 27.4398 59.5099 27.1728 59.6861C26.9086 59.8594 26.704 60.0866 26.5591 60.3679C26.4171 60.6463 26.3461 60.9488 26.3461 61.2755V62.0213C26.3461 62.4588 26.4228 62.8309 26.5762 63.1378C26.7324 63.4446 26.9498 63.679 27.2282 63.8409C27.5066 64 27.8319 64.0795 28.204 64.0795C28.4455 64.0795 28.6657 64.0454 28.8645 63.9773C29.0634 63.9062 29.2353 63.8011 29.3802 63.6619C29.525 63.5227 29.6358 63.3508 29.7125 63.1463L30.9185 63.3636C30.8219 63.7187 30.6486 64.0298 30.3986 64.2969C30.1515 64.5611 29.8404 64.767 29.4654 64.9148C29.0932 65.0596 28.6685 65.1321 28.1912 65.1321Z" fill="#7497F7"/>
<path d="M35.2342 65.1321C34.5893 65.1321 34.0339 64.9943 33.568 64.7187C33.1049 64.4403 32.747 64.0497 32.4941 63.5469C32.2441 63.0412 32.1191 62.4488 32.1191 61.7699C32.1191 61.0994 32.2441 60.5085 32.4941 59.9971C32.747 59.4858 33.0993 59.0866 33.551 58.7997C34.0055 58.5128 34.5368 58.3693 35.1447 58.3693C35.514 58.3693 35.872 58.4304 36.2186 58.5525C36.5652 58.6747 36.8762 58.8665 37.1518 59.1278C37.4274 59.3892 37.6447 59.7287 37.8038 60.1463C37.9629 60.5611 38.0424 61.0653 38.0424 61.6591V62.1108H32.8393V61.1562H36.7939C36.7939 60.821 36.7257 60.5241 36.5893 60.2656C36.4529 60.0042 36.2612 59.7983 36.014 59.6477C35.7697 59.4971 35.4828 59.4219 35.1532 59.4219C34.7953 59.4219 34.4828 59.5099 34.2157 59.6861C33.9515 59.8594 33.747 60.0866 33.6021 60.3679C33.4601 60.6463 33.389 60.9488 33.389 61.2755V62.0213C33.389 62.4588 33.4657 62.8309 33.6191 63.1378C33.7754 63.4446 33.9927 63.679 34.2711 63.8409C34.5495 64 34.8748 64.0795 35.247 64.0795C35.4885 64.0795 35.7086 64.0454 35.9075 63.9773C36.1064 63.9062 36.2782 63.8011 36.4231 63.6619C36.568 63.5227 36.6788 63.3508 36.7555 63.1463L37.9615 63.3636C37.8649 63.7187 37.6916 64.0298 37.4416 64.2969C37.1944 64.5611 36.8833 64.767 36.5083 64.9148C36.1362 65.0596 35.7115 65.1321 35.2342 65.1321Z" fill="#7497F7"/>
<path d="M40.628 62.7798L40.6195 61.2244H40.8411L43.449 58.4545H44.9746L42.0002 61.6079H41.7999L40.628 62.7798ZM39.4561 65V56.2727H40.7303V65H39.4561ZM43.5897 65L41.2459 61.8892L42.1238 60.9986L45.1536 65H43.5897Z" fill="#7497F7"/>
<path d="M47.41 56.2727V65H46.1358V56.2727H47.41Z" fill="#7497F7"/>
<path d="M49.9295 67.4545C49.7392 67.4545 49.5659 67.4389 49.4096 67.4076C49.2534 67.3792 49.1369 67.348 49.0602 67.3139L49.367 66.2699C49.6 66.3324 49.8074 66.3594 49.9892 66.3508C50.171 66.3423 50.3315 66.2741 50.4707 66.1463C50.6128 66.0184 50.7378 65.8096 50.8457 65.5199L51.0034 65.0852L48.6085 58.4545H49.9721L51.6298 63.5341H51.698L53.3557 58.4545H54.7235L52.0261 65.8736C51.9011 66.2145 51.742 66.5028 51.5488 66.7386C51.3557 66.9773 51.1255 67.1562 50.8585 67.2755C50.5914 67.3949 50.2818 67.4545 49.9295 67.4545Z" fill="#7497F7"/>
<path d="M59.199 65V56.2727H62.3951C63.0144 56.2727 63.5272 56.375 63.9334 56.5795C64.3397 56.7812 64.6436 57.0554 64.8454 57.402C65.0471 57.7457 65.1479 58.1335 65.1479 58.5653C65.1479 58.929 65.0811 59.2358 64.9476 59.4858C64.8141 59.7329 64.6351 59.9318 64.4107 60.0824C64.1891 60.2301 63.9448 60.338 63.6777 60.4062V60.4915C63.9675 60.5057 64.2502 60.5994 64.5257 60.7727C64.8042 60.9432 65.0343 61.1861 65.2161 61.5014C65.3979 61.8167 65.4888 62.2003 65.4888 62.652C65.4888 63.098 65.3837 63.4986 65.1735 63.8537C64.9661 64.2059 64.6451 64.4858 64.2104 64.6932C63.7757 64.8977 63.2204 65 62.5442 65H59.199ZM60.5158 63.8707H62.4164C63.0471 63.8707 63.4988 63.7486 63.7715 63.5042C64.0442 63.2599 64.1806 62.9545 64.1806 62.588C64.1806 62.3125 64.111 62.0596 63.9718 61.8295C63.8326 61.5994 63.6337 61.4162 63.3752 61.2798C63.1195 61.1434 62.8155 61.0753 62.4632 61.0753H60.5158V63.8707ZM60.5158 60.0483H62.28C62.5755 60.0483 62.8411 59.9915 63.0769 59.8778C63.3155 59.7642 63.5044 59.6051 63.6436 59.4005C63.7857 59.1932 63.8567 58.9488 63.8567 58.6676C63.8567 58.3068 63.7303 58.0042 63.4775 57.7599C63.2246 57.5156 62.8368 57.3934 62.3141 57.3934H60.5158V60.0483Z" fill="#7497F7"/>
<path d="M71.0946 62.2855V58.4545H72.3731V65H71.1202V63.8665H71.052C70.9015 64.2159 70.66 64.5071 70.3276 64.74C69.9981 64.9701 69.5875 65.0852 69.0961 65.0852C68.6756 65.0852 68.3034 64.9929 67.9796 64.8082C67.6586 64.6207 67.4057 64.3437 67.2211 63.9773C67.0392 63.6108 66.9483 63.1576 66.9483 62.6179V58.4545H68.2225V62.4645C68.2225 62.9105 68.3461 63.2656 68.5932 63.5298C68.8404 63.794 69.1614 63.9261 69.5563 63.9261C69.7949 63.9261 70.0321 63.8665 70.2679 63.7471C70.5066 63.6278 70.704 63.4474 70.8603 63.2059C71.0194 62.9645 71.0975 62.6576 71.0946 62.2855Z" fill="#7497F7"/>
<path d="M76.8294 67.5909C76.3095 67.5909 75.862 67.5227 75.487 67.3863C75.1149 67.25 74.8109 67.0696 74.5751 66.8451C74.3393 66.6207 74.1632 66.375 74.0467 66.1079L75.1419 65.6562C75.2186 65.7812 75.3208 65.9133 75.4487 66.0525C75.5794 66.1946 75.7555 66.3153 75.9771 66.4148C76.2015 66.5142 76.4899 66.5639 76.8422 66.5639C77.3251 66.5639 77.7243 66.446 78.0396 66.2102C78.3549 65.9773 78.5126 65.6051 78.5126 65.0937V63.8068H78.4316C78.3549 63.946 78.2441 64.1008 78.0993 64.2713C77.9572 64.4417 77.7612 64.5895 77.5112 64.7145C77.2612 64.8395 76.9359 64.902 76.5353 64.902C76.0183 64.902 75.5524 64.7812 75.1376 64.5398C74.7257 64.2954 74.399 63.9361 74.1575 63.4616C73.9189 62.9844 73.7995 62.3977 73.7995 61.7017C73.7995 61.0057 73.9174 60.4091 74.1532 59.9119C74.3919 59.4148 74.7186 59.0341 75.1334 58.7699C75.5481 58.5028 76.0183 58.3693 76.5439 58.3693C76.9501 58.3693 77.2782 58.4375 77.5282 58.5738C77.7782 58.7074 77.9728 58.8636 78.112 59.0426C78.2541 59.2216 78.3635 59.3792 78.4402 59.5156H78.5339V58.4545H79.7825V65.1449C79.7825 65.7074 79.6518 66.169 79.3904 66.5298C79.1291 66.8906 78.7754 67.1576 78.3294 67.3309C77.8862 67.5042 77.3862 67.5909 76.8294 67.5909ZM76.8166 63.8451C77.1831 63.8451 77.4927 63.7599 77.7456 63.5895C78.0012 63.4162 78.1944 63.169 78.3251 62.848C78.4586 62.5241 78.5254 62.1363 78.5254 61.6846C78.5254 61.2443 78.4601 60.8565 78.3294 60.5213C78.1987 60.1861 78.0069 59.9247 77.7541 59.7372C77.5012 59.5469 77.1887 59.4517 76.8166 59.4517C76.4331 59.4517 76.1135 59.5511 75.8578 59.75C75.6021 59.946 75.4089 60.213 75.2782 60.5511C75.1504 60.8892 75.0865 61.267 75.0865 61.6846C75.0865 62.1136 75.1518 62.49 75.2825 62.8139C75.4132 63.1378 75.6064 63.3906 75.862 63.5724C76.1206 63.7542 76.4387 63.8451 76.8166 63.8451Z" fill="#7497F7"/>
<path d="M84.7694 65V56.2727H87.8801C88.5563 56.2727 89.1174 56.3892 89.5634 56.6221C90.0122 56.8551 90.3475 57.1775 90.5691 57.5895C90.7907 57.9986 90.9015 58.4716 90.9015 59.0085C90.9015 59.5426 90.7892 60.0128 90.5648 60.419C90.3432 60.8224 90.008 61.1363 89.5591 61.3608C89.1131 61.5852 88.552 61.6974 87.8759 61.6974H85.5194V60.5639H87.7566C88.1827 60.5639 88.5293 60.5028 88.7963 60.3807C89.0662 60.2585 89.2637 60.0809 89.3887 59.848C89.5137 59.615 89.5762 59.3352 89.5762 59.0085C89.5762 58.679 89.5122 58.3934 89.3844 58.152C89.2594 57.9105 89.062 57.7258 88.7921 57.598C88.525 57.4673 88.1742 57.402 87.7395 57.402H86.0861V65H84.7694ZM89.0776 61.0625L91.2338 65H89.7338L87.6202 61.0625H89.0776Z" fill="#7497F7"/>
<path d="M95.1404 65.1321C94.4956 65.1321 93.9402 64.9943 93.4743 64.7187C93.0112 64.4403 92.6532 64.0497 92.4004 63.5469C92.1504 63.0412 92.0254 62.4488 92.0254 61.7699C92.0254 61.0994 92.1504 60.5085 92.4004 59.9971C92.6532 59.4858 93.0055 59.0866 93.4572 58.7997C93.9118 58.5128 94.443 58.3693 95.051 58.3693C95.4203 58.3693 95.7782 58.4304 96.1248 58.5525C96.4714 58.6747 96.7825 58.8665 97.0581 59.1278C97.3336 59.3892 97.551 59.7287 97.7101 60.1463C97.8691 60.5611 97.9487 61.0653 97.9487 61.6591V62.1108H92.7456V61.1562H96.7001C96.7001 60.821 96.6319 60.5241 96.4956 60.2656C96.3592 60.0042 96.1674 59.7983 95.9203 59.6477C95.676 59.4971 95.389 59.4219 95.0595 59.4219C94.7015 59.4219 94.389 59.5099 94.122 59.6861C93.8578 59.8594 93.6532 60.0866 93.5083 60.3679C93.3663 60.6463 93.2953 60.9488 93.2953 61.2755V62.0213C93.2953 62.4588 93.372 62.8309 93.5254 63.1378C93.6816 63.4446 93.899 63.679 94.1774 63.8409C94.4558 64 94.7811 64.0795 95.1532 64.0795C95.3947 64.0795 95.6149 64.0454 95.8137 63.9773C96.0126 63.9062 96.1845 63.8011 96.3294 63.6619C96.4743 63.5227 96.585 63.3508 96.6618 63.1463L97.8677 63.3636C97.7711 63.7187 97.5978 64.0298 97.3478 64.2969C97.1007 64.5611 96.7896 64.767 96.4146 64.9148C96.0424 65.0596 95.6177 65.1321 95.1404 65.1321Z" fill="#7497F7"/>
<path d="M102.418 58.4545V59.4773H98.8425V58.4545H102.418ZM99.8013 56.8863H101.075V63.0781C101.075 63.3253 101.112 63.5113 101.186 63.6363C101.26 63.7585 101.355 63.8423 101.472 63.8878C101.591 63.9304 101.72 63.9517 101.86 63.9517C101.962 63.9517 102.051 63.9446 102.128 63.9304C102.205 63.9162 102.264 63.9048 102.307 63.8963L102.537 64.9488C102.463 64.9773 102.358 65.0057 102.222 65.0341C102.085 65.0653 101.915 65.0824 101.71 65.0852C101.375 65.0909 101.063 65.0312 100.773 64.9062C100.483 64.7812 100.249 64.588 100.07 64.3267C99.8908 64.0653 99.8013 63.7372 99.8013 63.3423V56.8863Z" fill="#7497F7"/>
<path d="M103.827 65V58.4545H105.059V59.4943H105.127C105.246 59.142 105.456 58.865 105.758 58.6633C106.062 58.4588 106.405 58.3565 106.789 58.3565C106.868 58.3565 106.962 58.3594 107.07 58.365C107.181 58.3707 107.268 58.3778 107.33 58.3863V59.6051C107.279 59.5909 107.188 59.5753 107.057 59.5582C106.927 59.5383 106.796 59.5284 106.665 59.5284C106.364 59.5284 106.096 59.5923 105.86 59.7201C105.627 59.8451 105.442 60.0199 105.306 60.2443C105.17 60.4659 105.101 60.7187 105.101 61.0028V65H103.827Z" fill="#7497F7"/>
<path d="M110.955 65.1321C110.342 65.1321 109.806 64.9915 109.349 64.7102C108.892 64.429 108.536 64.0355 108.284 63.5298C108.031 63.0241 107.904 62.4332 107.904 61.7571C107.904 61.0781 108.031 60.4844 108.284 59.9758C108.536 59.4673 108.892 59.0724 109.349 58.7912C109.806 58.5099 110.342 58.3693 110.955 58.3693C111.569 58.3693 112.105 58.5099 112.562 58.7912C113.019 59.0724 113.374 59.4673 113.627 59.9758C113.88 60.4844 114.007 61.0781 114.007 61.7571C114.007 62.4332 113.88 63.0241 113.627 63.5298C113.374 64.0355 113.019 64.429 112.562 64.7102C112.105 64.9915 111.569 65.1321 110.955 65.1321ZM110.96 64.0625C111.357 64.0625 111.687 63.9574 111.948 63.7471C112.21 63.5369 112.403 63.2571 112.528 62.9076C112.656 62.5582 112.72 62.1733 112.72 61.7528C112.72 61.3352 112.656 60.9517 112.528 60.6023C112.403 60.25 112.21 59.9673 111.948 59.7542C111.687 59.5412 111.357 59.4346 110.96 59.4346C110.559 59.4346 110.227 59.5412 109.963 59.7542C109.701 59.9673 109.507 60.25 109.379 60.6023C109.254 60.9517 109.191 61.3352 109.191 61.7528C109.191 62.1733 109.254 62.5582 109.379 62.9076C109.507 63.2571 109.701 63.5369 109.963 63.7471C110.227 63.9574 110.559 64.0625 110.96 64.0625Z" fill="#7497F7"/>
<path d="M224.993 241H111.007C107.137 241 104 243.763 104 247.172V269.828C104 273.237 107.137 276 111.007 276H224.993C228.863 276 232 273.237 232 269.828V247.172C232 243.763 228.863 241 224.993 241Z" fill="#E0E8FF"/>
<path d="M114.902 256.03C114.82 255.771 114.709 255.54 114.57 255.335C114.433 255.128 114.27 254.952 114.08 254.807C113.889 254.659 113.672 254.547 113.428 254.47C113.186 254.394 112.921 254.355 112.631 254.355C112.139 254.355 111.696 254.482 111.301 254.734C110.906 254.987 110.594 255.358 110.364 255.847C110.137 256.332 110.023 256.928 110.023 257.632C110.023 258.34 110.138 258.938 110.368 259.426C110.598 259.915 110.914 260.286 111.314 260.538C111.715 260.791 112.171 260.918 112.682 260.918C113.156 260.918 113.57 260.821 113.922 260.628C114.277 260.435 114.551 260.162 114.744 259.81C114.941 259.455 115.039 259.037 115.039 258.557L115.379 258.621H112.882V257.534H116.313V258.527C116.313 259.26 116.156 259.896 115.844 260.436C115.534 260.973 115.105 261.388 114.557 261.68C114.012 261.973 113.387 262.119 112.682 262.119C111.892 262.119 111.199 261.938 110.602 261.574C110.009 261.21 109.546 260.695 109.213 260.027C108.881 259.357 108.715 258.561 108.715 257.641C108.715 256.945 108.811 256.32 109.004 255.766C109.198 255.212 109.469 254.742 109.818 254.355C110.171 253.966 110.584 253.669 111.058 253.465C111.536 253.257 112.057 253.153 112.622 253.153C113.094 253.153 113.533 253.223 113.939 253.362C114.348 253.501 114.712 253.699 115.03 253.955C115.351 254.21 115.617 254.514 115.827 254.867C116.037 255.216 116.179 255.604 116.253 256.03H114.902Z" fill="#7497F7"/>
<path d="M118.292 262V255.455H119.566V262H118.292ZM118.936 254.445C118.714 254.445 118.524 254.371 118.365 254.223C118.208 254.072 118.13 253.894 118.13 253.686C118.13 253.476 118.208 253.297 118.365 253.149C118.524 252.999 118.714 252.923 118.936 252.923C119.157 252.923 119.346 252.999 119.502 253.149C119.661 253.297 119.741 253.476 119.741 253.686C119.741 253.894 119.661 254.072 119.502 254.223C119.346 254.371 119.157 254.445 118.936 254.445Z" fill="#7497F7"/>
<path d="M124.336 255.455V256.477H120.76V255.455H124.336ZM121.719 253.886H122.993V260.078C122.993 260.325 123.03 260.511 123.104 260.636C123.178 260.759 123.273 260.842 123.39 260.888C123.509 260.93 123.638 260.952 123.778 260.952C123.88 260.952 123.969 260.945 124.046 260.93C124.123 260.916 124.182 260.905 124.225 260.896L124.455 261.949C124.381 261.977 124.276 262.006 124.14 262.034C124.003 262.065 123.833 262.082 123.628 262.085C123.293 262.091 122.981 262.031 122.691 261.906C122.401 261.781 122.167 261.588 121.988 261.327C121.809 261.065 121.719 260.737 121.719 260.342V253.886Z" fill="#7497F7"/>
<path d="M125.988 262V253.273H127.305V257.065H131.656V253.273H132.977V262H131.656V258.195H127.305V262H125.988Z" fill="#7497F7"/>
<path d="M138.938 259.286V255.455H140.217V262H138.964V260.867H138.896C138.745 261.216 138.504 261.507 138.171 261.74C137.842 261.97 137.431 262.085 136.94 262.085C136.519 262.085 136.147 261.993 135.823 261.808C135.502 261.621 135.249 261.344 135.065 260.977C134.883 260.611 134.792 260.158 134.792 259.618V255.455H136.066V259.465C136.066 259.911 136.19 260.266 136.437 260.53C136.684 260.794 137.005 260.926 137.4 260.926C137.639 260.926 137.876 260.867 138.112 260.747C138.35 260.628 138.548 260.447 138.704 260.206C138.863 259.965 138.941 259.658 138.938 259.286Z" fill="#7497F7"/>
<path d="M142.031 262V253.273H143.305V256.516H143.382C143.456 256.379 143.562 256.222 143.702 256.043C143.841 255.864 144.034 255.707 144.281 255.574C144.528 255.438 144.855 255.369 145.261 255.369C145.79 255.369 146.261 255.503 146.676 255.77C147.091 256.037 147.416 256.422 147.652 256.925C147.89 257.428 148.01 258.033 148.01 258.74C148.01 259.447 147.892 260.054 147.656 260.56C147.42 261.063 147.096 261.45 146.684 261.723C146.273 261.993 145.802 262.128 145.274 262.128C144.876 262.128 144.551 262.061 144.298 261.928C144.048 261.794 143.852 261.638 143.71 261.459C143.568 261.28 143.459 261.121 143.382 260.982H143.275V262H142.031ZM143.28 258.727C143.28 259.188 143.346 259.591 143.48 259.938C143.613 260.284 143.807 260.555 144.059 260.751C144.312 260.945 144.622 261.041 144.988 261.041C145.369 261.041 145.687 260.94 145.943 260.739C146.199 260.534 146.392 260.257 146.523 259.908C146.656 259.558 146.723 259.165 146.723 258.727C146.723 258.295 146.657 257.908 146.527 257.564C146.399 257.22 146.206 256.949 145.947 256.75C145.692 256.551 145.372 256.452 144.988 256.452C144.619 256.452 144.307 256.547 144.051 256.737C143.798 256.928 143.606 257.193 143.476 257.534C143.345 257.875 143.28 258.273 143.28 258.727Z" fill="#7497F7"/>
<path d="M152.719 262V253.273H155.915C156.534 253.273 157.047 253.375 157.453 253.58C157.859 253.781 158.163 254.055 158.365 254.402C158.567 254.746 158.667 255.134 158.667 255.565C158.667 255.929 158.601 256.236 158.467 256.486C158.334 256.733 158.155 256.932 157.93 257.082C157.709 257.23 157.464 257.338 157.197 257.406V257.492C157.487 257.506 157.77 257.599 158.045 257.773C158.324 257.943 158.554 258.186 158.736 258.501C158.917 258.817 159.008 259.2 159.008 259.652C159.008 260.098 158.903 260.499 158.693 260.854C158.486 261.206 158.165 261.486 157.73 261.693C157.295 261.898 156.74 262 156.064 262H152.719ZM154.035 260.871H155.936C156.567 260.871 157.018 260.749 157.291 260.504C157.564 260.26 157.7 259.955 157.7 259.588C157.7 259.313 157.631 259.06 157.491 258.83C157.352 258.599 157.153 258.416 156.895 258.28C156.639 258.144 156.335 258.075 155.983 258.075H154.035V260.871ZM154.035 257.048H155.8C156.095 257.048 156.361 256.992 156.596 256.878C156.835 256.764 157.024 256.605 157.163 256.401C157.305 256.193 157.376 255.949 157.376 255.668C157.376 255.307 157.25 255.004 156.997 254.76C156.744 254.516 156.356 254.394 155.834 254.394H154.035V257.048Z" fill="#7497F7"/>
<path d="M162.373 262.145C161.958 262.145 161.583 262.068 161.248 261.915C160.912 261.759 160.647 261.533 160.451 261.237C160.258 260.942 160.161 260.58 160.161 260.151C160.161 259.781 160.232 259.477 160.374 259.239C160.516 259 160.708 258.811 160.949 258.672C161.191 258.533 161.461 258.428 161.759 258.357C162.057 258.286 162.361 258.232 162.671 258.195C163.063 258.149 163.381 258.112 163.626 258.084C163.87 258.053 164.047 258.003 164.158 257.935C164.269 257.867 164.324 257.756 164.324 257.602V257.572C164.324 257.2 164.219 256.912 164.009 256.707C163.802 256.503 163.492 256.401 163.08 256.401C162.651 256.401 162.313 256.496 162.066 256.686C161.822 256.874 161.653 257.082 161.559 257.313L160.361 257.04C160.503 256.642 160.711 256.321 160.983 256.077C161.259 255.83 161.576 255.651 161.934 255.54C162.292 255.426 162.668 255.369 163.063 255.369C163.324 255.369 163.601 255.401 163.894 255.463C164.189 255.523 164.465 255.634 164.721 255.795C164.979 255.957 165.191 256.189 165.356 256.49C165.52 256.788 165.603 257.176 165.603 257.653V262H164.358V261.105H164.307C164.225 261.27 164.101 261.432 163.937 261.591C163.772 261.75 163.56 261.882 163.302 261.987C163.043 262.092 162.733 262.145 162.373 262.145ZM162.65 261.122C163.002 261.122 163.303 261.053 163.553 260.913C163.806 260.774 163.998 260.592 164.128 260.368C164.262 260.141 164.329 259.898 164.329 259.639V258.795C164.283 258.841 164.195 258.884 164.064 258.923C163.937 258.96 163.79 258.993 163.626 259.021C163.461 259.047 163.3 259.071 163.144 259.094C162.988 259.114 162.857 259.131 162.752 259.145C162.505 259.176 162.279 259.229 162.074 259.303C161.873 259.376 161.711 259.483 161.589 259.622C161.469 259.759 161.41 259.94 161.41 260.168C161.41 260.483 161.526 260.722 161.759 260.884C161.992 261.043 162.289 261.122 162.65 261.122Z" fill="#7497F7"/>
<path d="M172.205 257.053L171.05 257.257C171.002 257.109 170.925 256.969 170.82 256.835C170.718 256.702 170.578 256.592 170.402 256.507C170.226 256.422 170.006 256.379 169.742 256.379C169.381 256.379 169.08 256.46 168.838 256.622C168.597 256.781 168.476 256.987 168.476 257.24C168.476 257.459 168.557 257.635 168.719 257.769C168.881 257.902 169.142 258.011 169.503 258.097L170.543 258.335C171.145 258.474 171.594 258.689 171.889 258.979C172.185 259.269 172.333 259.645 172.333 260.108C172.333 260.5 172.219 260.849 171.992 261.156C171.767 261.46 171.453 261.699 171.05 261.872C170.649 262.045 170.185 262.132 169.656 262.132C168.923 262.132 168.325 261.976 167.862 261.663C167.399 261.348 167.115 260.901 167.01 260.321L168.242 260.134C168.318 260.455 168.476 260.697 168.715 260.862C168.953 261.024 169.264 261.105 169.648 261.105C170.066 261.105 170.399 261.019 170.649 260.845C170.899 260.669 171.024 260.455 171.024 260.202C171.024 259.997 170.948 259.825 170.794 259.686C170.644 259.547 170.412 259.442 170.1 259.371L168.992 259.128C168.381 258.989 167.929 258.767 167.637 258.463C167.347 258.159 167.202 257.774 167.202 257.308C167.202 256.922 167.31 256.584 167.526 256.294C167.742 256.004 168.04 255.778 168.421 255.617C168.801 255.452 169.237 255.369 169.729 255.369C170.436 255.369 170.993 255.523 171.399 255.83C171.806 256.134 172.074 256.541 172.205 257.053Z" fill="#7497F7"/>
<path d="M173.733 262V255.455H175.008V262H173.733ZM174.377 254.445C174.155 254.445 173.965 254.371 173.806 254.223C173.65 254.072 173.572 253.894 173.572 253.686C173.572 253.476 173.65 253.297 173.806 253.149C173.965 252.999 174.155 252.923 174.377 252.923C174.599 252.923 174.787 252.999 174.944 253.149C175.103 253.297 175.182 253.476 175.182 253.686C175.182 253.894 175.103 254.072 174.944 254.223C174.787 254.371 174.599 254.445 174.377 254.445Z" fill="#7497F7"/>
<path d="M179.479 262.132C178.845 262.132 178.3 261.989 177.842 261.702C177.388 261.412 177.039 261.013 176.794 260.504C176.55 259.996 176.428 259.413 176.428 258.757C176.428 258.092 176.553 257.506 176.803 256.997C177.053 256.486 177.405 256.087 177.86 255.8C178.314 255.513 178.85 255.369 179.466 255.369C179.963 255.369 180.406 255.462 180.796 255.646C181.185 255.828 181.499 256.084 181.737 256.413C181.979 256.743 182.122 257.128 182.168 257.568H180.928C180.86 257.261 180.703 256.997 180.459 256.776C180.217 256.554 179.894 256.443 179.487 256.443C179.132 256.443 178.821 256.537 178.554 256.724C178.29 256.909 178.084 257.173 177.936 257.517C177.789 257.858 177.715 258.261 177.715 258.727C177.715 259.205 177.787 259.617 177.932 259.963C178.077 260.31 178.281 260.578 178.546 260.769C178.813 260.959 179.127 261.054 179.487 261.054C179.729 261.054 179.948 261.01 180.144 260.922C180.342 260.831 180.509 260.702 180.642 260.534C180.779 260.367 180.874 260.165 180.928 259.929H182.168C182.122 260.352 181.985 260.73 181.754 261.063C181.524 261.395 181.216 261.656 180.83 261.847C180.446 262.037 179.996 262.132 179.479 262.132Z" fill="#7497F7"/>
<path d="M186.808 253.273H188.406L191.185 260.057H191.287L194.066 253.273H195.664V262H194.411V255.685H194.33L191.756 261.987H190.716L188.142 255.68H188.061V262H186.808V253.273Z" fill="#7497F7"/>
<path d="M200.297 262.132C199.652 262.132 199.096 261.994 198.63 261.719C198.167 261.44 197.809 261.05 197.557 260.547C197.307 260.041 197.182 259.449 197.182 258.77C197.182 258.099 197.307 257.509 197.557 256.997C197.809 256.486 198.162 256.087 198.613 255.8C199.068 255.513 199.599 255.369 200.207 255.369C200.577 255.369 200.934 255.43 201.281 255.553C201.628 255.675 201.939 255.867 202.214 256.128C202.49 256.389 202.707 256.729 202.866 257.146C203.025 257.561 203.105 258.065 203.105 258.659V259.111H197.902V258.156H201.856C201.856 257.821 201.788 257.524 201.652 257.266C201.515 257.004 201.324 256.798 201.077 256.648C200.832 256.497 200.545 256.422 200.216 256.422C199.858 256.422 199.545 256.51 199.278 256.686C199.014 256.859 198.809 257.087 198.665 257.368C198.523 257.646 198.452 257.949 198.452 258.276V259.021C198.452 259.459 198.528 259.831 198.682 260.138C198.838 260.445 199.055 260.679 199.334 260.841C199.612 261 199.937 261.08 200.309 261.08C200.551 261.08 200.771 261.045 200.97 260.977C201.169 260.906 201.341 260.801 201.486 260.662C201.631 260.523 201.741 260.351 201.818 260.146L203.024 260.364C202.927 260.719 202.754 261.03 202.504 261.297C202.257 261.561 201.946 261.767 201.571 261.915C201.199 262.06 200.774 262.132 200.297 262.132Z" fill="#7497F7"/>
<path d="M207.574 255.455V256.477H203.999V255.455H207.574ZM204.958 253.886H206.232V260.078C206.232 260.325 206.269 260.511 206.342 260.636C206.416 260.759 206.512 260.842 206.628 260.888C206.747 260.93 206.877 260.952 207.016 260.952C207.118 260.952 207.208 260.945 207.284 260.93C207.361 260.916 207.421 260.905 207.463 260.896L207.693 261.949C207.619 261.977 207.514 262.006 207.378 262.034C207.242 262.065 207.071 262.082 206.867 262.085C206.531 262.091 206.219 262.031 205.929 261.906C205.639 261.781 205.405 261.588 205.226 261.327C205.047 261.065 204.958 260.737 204.958 260.342V253.886Z" fill="#7497F7"/>
<path d="M208.983 262V255.455H210.215V256.494H210.283C210.403 256.142 210.613 255.865 210.914 255.663C211.218 255.459 211.562 255.357 211.945 255.357C212.025 255.357 212.118 255.359 212.226 255.365C212.337 255.371 212.424 255.378 212.486 255.386V256.605C212.435 256.591 212.344 256.575 212.214 256.558C212.083 256.538 211.952 256.528 211.822 256.528C211.52 256.528 211.252 256.592 211.016 256.72C210.783 256.845 210.599 257.02 210.462 257.244C210.326 257.466 210.258 257.719 210.258 258.003V262H208.983Z" fill="#7497F7"/>
<path d="M213.589 262V255.455H214.863V262H213.589ZM214.232 254.445C214.011 254.445 213.82 254.371 213.661 254.223C213.505 254.072 213.427 253.894 213.427 253.686C213.427 253.476 213.505 253.297 213.661 253.149C213.82 252.999 214.011 252.923 214.232 252.923C214.454 252.923 214.643 252.999 214.799 253.149C214.958 253.297 215.038 253.476 215.038 253.686C215.038 253.894 214.958 254.072 214.799 254.223C214.643 254.371 214.454 254.445 214.232 254.445Z" fill="#7497F7"/>
<path d="M219.334 262.132C218.701 262.132 218.155 261.989 217.698 261.702C217.243 261.412 216.894 261.013 216.65 260.504C216.405 259.996 216.283 259.413 216.283 258.757C216.283 258.092 216.408 257.506 216.658 256.997C216.908 256.486 217.26 256.087 217.715 255.8C218.17 255.513 218.705 255.369 219.322 255.369C219.819 255.369 220.262 255.462 220.651 255.646C221.04 255.828 221.354 256.084 221.593 256.413C221.834 256.743 221.978 257.128 222.023 257.568H220.783C220.715 257.261 220.559 256.997 220.314 256.776C220.073 256.554 219.749 256.443 219.343 256.443C218.988 256.443 218.677 256.537 218.41 256.724C218.145 256.909 217.939 257.173 217.792 257.517C217.644 257.858 217.57 258.261 217.57 258.727C217.57 259.205 217.643 259.617 217.787 259.963C217.932 260.31 218.137 260.578 218.401 260.769C218.668 260.959 218.982 261.054 219.343 261.054C219.584 261.054 219.803 261.01 219.999 260.922C220.198 260.831 220.364 260.702 220.498 260.534C220.634 260.367 220.729 260.165 220.783 259.929H222.023C221.978 260.352 221.84 260.73 221.61 261.063C221.38 261.395 221.072 261.656 220.685 261.847C220.302 262.037 219.851 262.132 219.334 262.132Z" fill="#7497F7"/>
<path d="M228.291 257.053L227.136 257.257C227.088 257.109 227.011 256.969 226.906 256.835C226.803 256.702 226.664 256.592 226.488 256.507C226.312 256.422 226.092 256.379 225.828 256.379C225.467 256.379 225.166 256.46 224.924 256.622C224.683 256.781 224.562 256.987 224.562 257.24C224.562 257.459 224.643 257.635 224.805 257.769C224.967 257.902 225.228 258.011 225.589 258.097L226.629 258.335C227.231 258.474 227.68 258.689 227.975 258.979C228.271 259.269 228.418 259.645 228.418 260.108C228.418 260.5 228.305 260.849 228.078 261.156C227.853 261.46 227.539 261.699 227.136 261.872C226.735 262.045 226.271 262.132 225.742 262.132C225.009 262.132 224.411 261.976 223.948 261.663C223.485 261.348 223.201 260.901 223.096 260.321L224.328 260.134C224.404 260.455 224.562 260.697 224.801 260.862C225.039 261.024 225.35 261.105 225.734 261.105C226.151 261.105 226.485 261.019 226.735 260.845C226.985 260.669 227.11 260.455 227.11 260.202C227.11 259.997 227.034 259.825 226.88 259.686C226.73 259.547 226.498 259.442 226.186 259.371L225.078 259.128C224.467 258.989 224.015 258.767 223.722 258.463C223.433 258.159 223.288 257.774 223.288 257.308C223.288 256.922 223.396 256.584 223.612 256.294C223.828 256.004 224.126 255.778 224.507 255.617C224.887 255.452 225.323 255.369 225.815 255.369C226.522 255.369 227.079 255.523 227.485 255.83C227.892 256.134 228.16 256.541 228.291 257.053Z" fill="#7497F7"/>
<path d="M121.785 109H53.2151C50.8872 109 49 111.763 49 115.172V137.828C49 141.237 50.8872 144 53.2151 144H121.785C124.113 144 126 141.237 126 137.828V115.172C126 111.763 124.113 109 121.785 109Z" fill="#E0E8FF"/>
<path d="M63.2621 124.111H61.9325C61.8814 123.827 61.7862 123.577 61.647 123.361C61.5078 123.145 61.3374 122.962 61.1356 122.811C60.9339 122.661 60.7081 122.547 60.4581 122.47C60.2109 122.394 59.9481 122.355 59.6697 122.355C59.1669 122.355 58.7166 122.482 58.3189 122.734C57.924 122.987 57.6115 123.358 57.3814 123.847C57.1541 124.335 57.0405 124.932 57.0405 125.636C57.0405 126.347 57.1541 126.946 57.3814 127.435C57.6115 127.923 57.9254 128.293 58.3231 128.543C58.7209 128.793 59.1683 128.918 59.6655 128.918C59.941 128.918 60.2024 128.881 60.4496 128.807C60.6996 128.73 60.9254 128.618 61.1271 128.47C61.3288 128.322 61.4993 128.142 61.6385 127.929C61.7805 127.713 61.8785 127.466 61.9325 127.188L63.2621 127.192C63.191 127.621 63.0533 128.016 62.8487 128.376C62.647 128.734 62.3871 129.044 62.0689 129.305C61.7535 129.564 61.3927 129.764 60.9865 129.906C60.5802 130.048 60.1371 130.119 59.657 130.119C58.9013 130.119 58.228 129.94 57.6371 129.582C57.0462 129.222 56.5802 128.706 56.2393 128.036C55.9013 127.365 55.7322 126.565 55.7322 125.636C55.7322 124.705 55.9027 123.905 56.2436 123.237C56.5845 122.567 57.0504 122.053 57.6413 121.695C58.2322 121.334 58.9041 121.153 59.657 121.153C60.12 121.153 60.5518 121.22 60.9524 121.354C61.3558 121.484 61.718 121.678 62.0391 121.933C62.3601 122.186 62.6257 122.496 62.8359 122.862C63.0462 123.226 63.1882 123.642 63.2621 124.111Z" fill="#7497F7"/>
<path d="M65.5643 132.455C65.3739 132.455 65.2006 132.439 65.0444 132.408C64.8881 132.379 64.7717 132.348 64.695 132.314L65.0018 131.27C65.2347 131.332 65.4421 131.359 65.6239 131.351C65.8057 131.342 65.9663 131.274 66.1055 131.146C66.2475 131.019 66.3725 130.81 66.4805 130.52L66.6381 130.085L64.2432 123.455H65.6069L67.2646 128.534H67.3327L68.9904 123.455H70.3583L67.6609 130.874C67.5359 131.215 67.3768 131.503 67.1836 131.739C66.9904 131.977 66.7603 132.156 66.4932 132.276C66.2262 132.395 65.9165 132.455 65.5643 132.455Z" fill="#7497F7"/>
<path d="M74.0902 130.132C73.4567 130.132 72.9112 129.989 72.4538 129.702C71.9993 129.412 71.6499 129.013 71.4055 128.504C71.1612 127.996 71.0391 127.413 71.0391 126.757C71.0391 126.092 71.1641 125.506 71.4141 124.997C71.6641 124.486 72.0163 124.087 72.4709 123.8C72.9254 123.513 73.4609 123.369 74.0774 123.369C74.5746 123.369 75.0177 123.462 75.407 123.646C75.7962 123.828 76.1101 124.084 76.3487 124.413C76.5902 124.743 76.7337 125.128 76.7791 125.568H75.5391C75.4709 125.261 75.3146 124.997 75.0703 124.776C74.8288 124.554 74.505 124.443 74.0987 124.443C73.7436 124.443 73.4325 124.537 73.1655 124.724C72.9013 124.909 72.6953 125.173 72.5476 125.517C72.3999 125.858 72.326 126.261 72.326 126.727C72.326 127.205 72.3984 127.617 72.5433 127.963C72.6882 128.31 72.8927 128.578 73.157 128.769C73.424 128.959 73.7379 129.054 74.0987 129.054C74.3402 129.054 74.5589 129.01 74.755 128.922C74.9538 128.831 75.12 128.702 75.2535 128.534C75.3899 128.367 75.4851 128.165 75.5391 127.929H76.7791C76.7337 128.352 76.5959 128.73 76.3658 129.063C76.1356 129.395 75.8274 129.656 75.441 129.847C75.0575 130.037 74.6072 130.132 74.0902 130.132Z" fill="#7497F7"/>
<path d="M79.4158 121.273V130H78.1417V121.273H79.4158Z" fill="#7497F7"/>
<path d="M83.951 130.132C83.3061 130.132 82.7507 129.994 82.2848 129.719C81.8217 129.44 81.4638 129.05 81.2109 128.547C80.9609 128.041 80.8359 127.449 80.8359 126.77C80.8359 126.099 80.9609 125.509 81.2109 124.997C81.4638 124.486 81.816 124.087 82.2677 123.8C82.7223 123.513 83.2535 123.369 83.8615 123.369C84.2308 123.369 84.5888 123.43 84.9354 123.553C85.282 123.675 85.593 123.867 85.8686 124.128C86.1442 124.389 86.3615 124.729 86.5206 125.146C86.6797 125.561 86.7592 126.065 86.7592 126.659V127.111H81.5561V126.156H85.5106C85.5106 125.821 85.4425 125.524 85.3061 125.266C85.1697 125.004 84.978 124.798 84.7308 124.648C84.4865 124.497 84.1996 124.422 83.87 124.422C83.5121 124.422 83.1996 124.51 82.9325 124.686C82.6683 124.859 82.4638 125.087 82.3189 125.368C82.1768 125.646 82.1058 125.949 82.1058 126.276V127.021C82.1058 127.459 82.1825 127.831 82.3359 128.138C82.4922 128.445 82.7095 128.679 82.9879 128.841C83.2663 129 83.5916 129.08 83.9638 129.08C84.2053 129.08 84.4254 129.045 84.6243 128.977C84.8231 128.906 84.995 128.801 85.1399 128.662C85.2848 128.523 85.3956 128.351 85.4723 128.146L86.6783 128.364C86.5817 128.719 86.4084 129.03 86.1584 129.297C85.9112 129.561 85.6001 129.767 85.2251 129.915C84.853 130.06 84.4283 130.132 83.951 130.132Z" fill="#7497F7"/>
<path d="M91.0206 122.406V121.273H97.7748V122.406H95.0518V130H93.7393V122.406H91.0206Z" fill="#7497F7"/>
<path d="M99.1651 130V123.455H100.439V130H99.1651ZM99.8086 122.445C99.587 122.445 99.3967 122.371 99.2376 122.223C99.0813 122.072 99.0032 121.894 99.0032 121.686C99.0032 121.476 99.0813 121.297 99.2376 121.149C99.3967 120.999 99.587 120.923 99.8086 120.923C100.03 120.923 100.219 120.999 100.375 121.149C100.534 121.297 100.614 121.476 100.614 121.686C100.614 121.894 100.534 122.072 100.375 122.223C100.219 122.371 100.03 122.445 99.8086 122.445Z" fill="#7497F7"/>
<path d="M102.153 130V123.455H103.376V124.52H103.457C103.594 124.159 103.817 123.878 104.126 123.676C104.436 123.472 104.807 123.369 105.239 123.369C105.676 123.369 106.043 123.472 106.338 123.676C106.636 123.881 106.857 124.162 106.999 124.52H107.067C107.223 124.17 107.472 123.892 107.812 123.685C108.153 123.474 108.56 123.369 109.031 123.369C109.625 123.369 110.109 123.555 110.484 123.928C110.862 124.3 111.051 124.861 111.051 125.611V130H109.777V125.73C109.777 125.287 109.656 124.966 109.415 124.767C109.173 124.568 108.885 124.469 108.55 124.469C108.135 124.469 107.812 124.597 107.582 124.852C107.352 125.105 107.237 125.43 107.237 125.828V130H105.967V125.649C105.967 125.294 105.857 125.009 105.635 124.793C105.413 124.577 105.125 124.469 104.77 124.469C104.528 124.469 104.305 124.533 104.101 124.661C103.899 124.786 103.736 124.96 103.611 125.185C103.489 125.409 103.428 125.669 103.428 125.965V130H102.153Z" fill="#7497F7"/>
<path d="M115.58 130.132C114.935 130.132 114.38 129.994 113.914 129.719C113.451 129.44 113.093 129.05 112.84 128.547C112.59 128.041 112.465 127.449 112.465 126.77C112.465 126.099 112.59 125.509 112.84 124.997C113.093 124.486 113.445 124.087 113.897 123.8C114.351 123.513 114.882 123.369 115.49 123.369C115.86 123.369 116.218 123.43 116.564 123.553C116.911 123.675 117.222 123.867 117.498 124.128C117.773 124.389 117.99 124.729 118.149 125.146C118.309 125.561 118.388 126.065 118.388 126.659V127.111H113.185V126.156H117.14C117.14 125.821 117.071 125.524 116.935 125.266C116.799 125.004 116.607 124.798 116.36 124.648C116.115 124.497 115.828 124.422 115.499 124.422C115.141 124.422 114.828 124.51 114.561 124.686C114.297 124.859 114.093 125.087 113.948 125.368C113.806 125.646 113.735 125.949 113.735 126.276V127.021C113.735 127.459 113.811 127.831 113.965 128.138C114.121 128.445 114.338 128.679 114.617 128.841C114.895 129 115.221 129.08 115.593 129.08C115.834 129.08 116.054 129.045 116.253 128.977C116.452 128.906 116.624 128.801 116.769 128.662C116.914 128.523 117.024 128.351 117.101 128.146L118.307 128.364C118.211 128.719 118.037 129.03 117.787 129.297C117.54 129.561 117.229 129.767 116.854 129.915C116.482 130.06 116.057 130.132 115.58 130.132Z" fill="#7497F7"/>
<path d="M312.789 2H179.211C174.676 2 171 4.7631 171 8.17156V30.8284C171 34.2369 174.676 37 179.211 37H312.789C317.324 37 321 34.2369 321 30.8284V8.17156C321 4.7631 317.324 2 312.789 2Z" fill="#E0E8FF"/>
<path d="M177.555 23V14.2728H183.026V15.4063H178.871V18.0654H182.741V19.1946H178.871V21.8665H183.077V23H177.555Z" fill="#7497F7"/>
<path d="M185.957 19.1137V23H184.683V16.4546H185.906V17.5199H185.987C186.137 17.1733 186.373 16.8949 186.694 16.6847C187.018 16.4745 187.426 16.3694 187.917 16.3694C188.363 16.3694 188.754 16.4631 189.089 16.6506C189.424 16.8353 189.684 17.1108 189.869 17.4773C190.053 17.8438 190.146 18.2969 190.146 18.8367V23H188.872V18.9901C188.872 18.5157 188.748 18.1449 188.501 17.8779C188.254 17.608 187.914 17.4731 187.482 17.4731C187.187 17.4731 186.924 17.537 186.694 17.6648C186.467 17.7927 186.286 17.9802 186.153 18.2273C186.022 18.4716 185.957 18.7671 185.957 19.1137Z" fill="#7497F7"/>
<path d="M194.599 25.591C194.079 25.591 193.632 25.5228 193.257 25.3864C192.884 25.25 192.58 25.0696 192.345 24.8452C192.109 24.6208 191.933 24.375 191.816 24.108L192.911 23.6563C192.988 23.7813 193.09 23.9134 193.218 24.0526C193.349 24.1946 193.525 24.3154 193.747 24.4148C193.971 24.5142 194.259 24.564 194.612 24.564C195.095 24.564 195.494 24.4461 195.809 24.2103C196.124 23.9773 196.282 23.6052 196.282 23.0938V21.8069H196.201C196.124 21.9461 196.014 22.1009 195.869 22.2714C195.727 22.4418 195.531 22.5895 195.281 22.7145C195.031 22.8395 194.705 22.902 194.305 22.902C193.788 22.902 193.322 22.7813 192.907 22.5398C192.495 22.2955 192.168 21.9361 191.927 21.4617C191.688 20.9844 191.569 20.3978 191.569 19.7017C191.569 19.0057 191.687 18.4091 191.923 17.912C192.161 17.4148 192.488 17.0341 192.903 16.7699C193.318 16.5029 193.788 16.3694 194.313 16.3694C194.72 16.3694 195.048 16.4375 195.298 16.5739C195.548 16.7074 195.742 16.8637 195.882 17.0427C196.024 17.2216 196.133 17.3793 196.21 17.5157H196.303V16.4546H197.552V23.1449C197.552 23.7074 197.421 24.1691 197.16 24.5299C196.899 24.8907 196.545 25.1577 196.099 25.331C195.656 25.5043 195.156 25.591 194.599 25.591ZM194.586 21.8452C194.953 21.8452 195.262 21.76 195.515 21.5895C195.771 21.4162 195.964 21.1691 196.095 20.8481C196.228 20.5242 196.295 20.1364 196.295 19.6847C196.295 19.2444 196.23 18.8566 196.099 18.5214C195.968 18.1861 195.776 17.9248 195.524 17.7373C195.271 17.5469 194.958 17.4517 194.586 17.4517C194.203 17.4517 193.883 17.5512 193.627 17.75C193.372 17.9461 193.178 18.2131 193.048 18.5512C192.92 18.8892 192.856 19.2671 192.856 19.6847C192.856 20.1137 192.921 20.4901 193.052 20.814C193.183 21.1378 193.376 21.3907 193.632 21.5725C193.89 21.7543 194.208 21.8452 194.586 21.8452Z" fill="#7497F7"/>
<path d="M199.261 23V16.4546H200.535V23H199.261ZM199.904 15.4446C199.683 15.4446 199.492 15.3708 199.333 15.2231C199.177 15.0725 199.099 14.8935 199.099 14.6861C199.099 14.4759 199.177 14.2969 199.333 14.1492C199.492 13.9986 199.683 13.9233 199.904 13.9233C200.126 13.9233 200.315 13.9986 200.471 14.1492C200.63 14.2969 200.71 14.4759 200.71 14.6861C200.71 14.8935 200.63 15.0725 200.471 15.2231C200.315 15.3708 200.126 15.4446 199.904 15.4446Z" fill="#7497F7"/>
<path d="M203.523 19.1137V23H202.249V16.4546H203.472V17.5199H203.553C203.704 17.1733 203.939 16.8949 204.26 16.6847C204.584 16.4745 204.992 16.3694 205.483 16.3694C205.93 16.3694 206.32 16.4631 206.655 16.6506C206.991 16.8353 207.251 17.1108 207.435 17.4773C207.62 17.8438 207.712 18.2969 207.712 18.8367V23H206.438V18.9901C206.438 18.5157 206.314 18.1449 206.067 17.8779C205.82 17.608 205.481 17.4731 205.049 17.4731C204.753 17.4731 204.491 17.537 204.26 17.6648C204.033 17.7927 203.853 17.9802 203.719 18.2273C203.589 18.4716 203.523 18.7671 203.523 19.1137Z" fill="#7497F7"/>
<path d="M212.242 23.1321C211.597 23.1321 211.042 22.9944 210.576 22.7188C210.113 22.4404 209.755 22.0498 209.502 21.5469C209.252 21.0412 209.127 20.4489 209.127 19.7699C209.127 19.0995 209.252 18.5086 209.502 17.9972C209.755 17.4858 210.107 17.0867 210.559 16.7998C211.013 16.5128 211.545 16.3694 212.153 16.3694C212.522 16.3694 212.88 16.4304 213.226 16.5526C213.573 16.6748 213.884 16.8665 214.16 17.1279C214.435 17.3892 214.653 17.7287 214.812 18.1464C214.971 18.5611 215.05 19.0654 215.05 19.6591V20.1108H209.847V19.1563H213.802C213.802 18.8211 213.733 18.5242 213.597 18.2657C213.461 18.0043 213.269 17.7983 213.022 17.6478C212.778 17.4972 212.491 17.4219 212.161 17.4219C211.803 17.4219 211.491 17.51 211.224 17.6861C210.959 17.8594 210.755 18.0867 210.61 18.3679C210.468 18.6464 210.397 18.9489 210.397 19.2756V20.0214C210.397 20.4589 210.474 20.831 210.627 21.1378C210.783 21.4446 211.001 21.679 211.279 21.841C211.557 22 211.883 22.0796 212.255 22.0796C212.496 22.0796 212.716 22.0455 212.915 21.9773C213.114 21.9063 213.286 21.8012 213.431 21.662C213.576 21.5228 213.687 21.3509 213.763 21.1464L214.969 21.3637C214.873 21.7188 214.699 22.0299 214.449 22.2969C214.202 22.5611 213.891 22.7671 213.516 22.9148C213.144 23.0597 212.719 23.1321 212.242 23.1321Z" fill="#7497F7"/>
<path d="M219.285 23.1321C218.64 23.1321 218.085 22.9944 217.619 22.7188C217.156 22.4404 216.798 22.0498 216.545 21.5469C216.295 21.0412 216.17 20.4489 216.17 19.7699C216.17 19.0995 216.295 18.5086 216.545 17.9972C216.798 17.4858 217.15 17.0867 217.602 16.7998C218.056 16.5128 218.588 16.3694 219.195 16.3694C219.565 16.3694 219.923 16.4304 220.269 16.5526C220.616 16.6748 220.927 16.8665 221.203 17.1279C221.478 17.3892 221.695 17.7287 221.855 18.1464C222.014 18.5611 222.093 19.0654 222.093 19.6591V20.1108H216.89V19.1563H220.845C220.845 18.8211 220.776 18.5242 220.64 18.2657C220.504 18.0043 220.312 17.7983 220.065 17.6478C219.82 17.4972 219.534 17.4219 219.204 17.4219C218.846 17.4219 218.534 17.51 218.267 17.6861C218.002 17.8594 217.798 18.0867 217.653 18.3679C217.511 18.6464 217.44 18.9489 217.44 19.2756V20.0214C217.44 20.4589 217.517 20.831 217.67 21.1378C217.826 21.4446 218.043 21.679 218.322 21.841C218.6 22 218.926 22.0796 219.298 22.0796C219.539 22.0796 219.759 22.0455 219.958 21.9773C220.157 21.9063 220.329 21.8012 220.474 21.662C220.619 21.5228 220.73 21.3509 220.806 21.1464L222.012 21.3637C221.916 21.7188 221.742 22.0299 221.492 22.2969C221.245 22.5611 220.934 22.7671 220.559 22.9148C220.187 23.0597 219.762 23.1321 219.285 23.1321Z" fill="#7497F7"/>
<path d="M223.507 23V16.4546H224.738V17.4944H224.807C224.926 17.1421 225.136 16.8651 225.437 16.6634C225.741 16.4589 226.085 16.3566 226.469 16.3566C226.548 16.3566 226.642 16.3594 226.75 16.3651C226.861 16.3708 226.947 16.3779 227.01 16.3864V17.6052C226.959 17.591 226.868 17.5753 226.737 17.5583C226.606 17.5384 226.476 17.5285 226.345 17.5285C226.044 17.5285 225.775 17.5924 225.54 17.7202C225.307 17.8452 225.122 18.0199 224.986 18.2444C224.849 18.466 224.781 18.7188 224.781 19.0029V23H223.507Z" fill="#7497F7"/>
<path d="M228.112 23V16.4546H229.387V23H228.112ZM228.756 15.4446C228.534 15.4446 228.344 15.3708 228.185 15.2231C228.029 15.0725 227.95 14.8935 227.95 14.6861C227.95 14.4759 228.029 14.2969 228.185 14.1492C228.344 13.9986 228.534 13.9233 228.756 13.9233C228.977 13.9233 229.166 13.9986 229.323 14.1492C229.482 14.2969 229.561 14.4759 229.561 14.6861C229.561 14.8935 229.482 15.0725 229.323 15.2231C229.166 15.3708 228.977 15.4446 228.756 15.4446Z" fill="#7497F7"/>
<path d="M232.375 19.1137V23H231.101V16.4546H232.324V17.5199H232.405C232.555 17.1733 232.791 16.8949 233.112 16.6847C233.436 16.4745 233.844 16.3694 234.335 16.3694C234.781 16.3694 235.172 16.4631 235.507 16.6506C235.842 16.8353 236.102 17.1108 236.287 17.4773C236.471 17.8438 236.564 18.2969 236.564 18.8367V23H235.29V18.9901C235.29 18.5157 235.166 18.1449 234.919 17.8779C234.672 17.608 234.332 17.4731 233.9 17.4731C233.605 17.4731 233.342 17.537 233.112 17.6648C232.885 17.7927 232.704 17.9802 232.571 18.2273C232.44 18.4716 232.375 18.7671 232.375 19.1137Z" fill="#7497F7"/>
<path d="M241.017 25.591C240.497 25.591 240.05 25.5228 239.675 25.3864C239.302 25.25 238.998 25.0696 238.763 24.8452C238.527 24.6208 238.351 24.375 238.234 24.108L239.329 23.6563C239.406 23.7813 239.508 23.9134 239.636 24.0526C239.767 24.1946 239.943 24.3154 240.165 24.4148C240.389 24.5142 240.677 24.564 241.03 24.564C241.513 24.564 241.912 24.4461 242.227 24.2103C242.542 23.9773 242.7 23.6052 242.7 23.0938V21.8069H242.619C242.542 21.9461 242.432 22.1009 242.287 22.2714C242.145 22.4418 241.949 22.5895 241.699 22.7145C241.449 22.8395 241.123 22.902 240.723 22.902C240.206 22.902 239.74 22.7813 239.325 22.5398C238.913 22.2955 238.586 21.9361 238.345 21.4617C238.106 20.9844 237.987 20.3978 237.987 19.7017C237.987 19.0057 238.105 18.4091 238.341 17.912C238.579 17.4148 238.906 17.0341 239.321 16.7699C239.736 16.5029 240.206 16.3694 240.731 16.3694C241.138 16.3694 241.466 16.4375 241.716 16.5739C241.966 16.7074 242.16 16.8637 242.3 17.0427C242.442 17.2216 242.551 17.3793 242.628 17.5157H242.721V16.4546H243.97V23.1449C243.97 23.7074 243.839 24.1691 243.578 24.5299C243.317 24.8907 242.963 25.1577 242.517 25.331C242.074 25.5043 241.574 25.591 241.017 25.591ZM241.004 21.8452C241.371 21.8452 241.68 21.76 241.933 21.5895C242.189 21.4162 242.382 21.1691 242.513 20.8481C242.646 20.5242 242.713 20.1364 242.713 19.6847C242.713 19.2444 242.648 18.8566 242.517 18.5214C242.386 18.1861 242.194 17.9248 241.942 17.7373C241.689 17.5469 241.376 17.4517 241.004 17.4517C240.621 17.4517 240.301 17.5512 240.045 17.75C239.79 17.9461 239.596 18.2131 239.466 18.5512C239.338 18.8892 239.274 19.2671 239.274 19.6847C239.274 20.1137 239.339 20.4901 239.47 20.814C239.601 21.1378 239.794 21.3907 240.05 21.5725C240.308 21.7543 240.626 21.8452 241.004 21.8452Z" fill="#7497F7"/>
<path d="M248.526 15.4063V14.2728H255.281V15.4063H252.558V23H251.245V15.4063H248.526Z" fill="#7497F7"/>
<path d="M257.945 19.1137V23H256.671V14.2728H257.928V17.5199H258.009C258.162 17.1677 258.397 16.8878 258.712 16.6804C259.028 16.4731 259.439 16.3694 259.948 16.3694C260.397 16.3694 260.789 16.4617 261.124 16.6464C261.462 16.831 261.724 17.1066 261.908 17.4731C262.096 17.8367 262.189 18.2912 262.189 18.8367V23H260.915V18.9901C260.915 18.51 260.792 18.1378 260.545 17.8736C260.297 17.6066 259.954 17.4731 259.513 17.4731C259.212 17.4731 258.942 17.537 258.704 17.6648C258.468 17.7927 258.282 17.9802 258.145 18.2273C258.012 18.4716 257.945 18.7671 257.945 19.1137Z" fill="#7497F7"/>
<path d="M263.89 23V16.4546H265.121V17.4944H265.189C265.309 17.1421 265.519 16.8651 265.82 16.6634C266.124 16.4589 266.468 16.3566 266.851 16.3566C266.931 16.3566 267.025 16.3594 267.133 16.3651C267.243 16.3708 267.33 16.3779 267.393 16.3864V17.6052C267.341 17.591 267.251 17.5753 267.12 17.5583C266.989 17.5384 266.858 17.5285 266.728 17.5285C266.427 17.5285 266.158 17.5924 265.922 17.7202C265.689 17.8452 265.505 18.0199 265.368 18.2444C265.232 18.466 265.164 18.7188 265.164 19.0029V23H263.89Z" fill="#7497F7"/>
<path d="M271.018 23.1321C270.404 23.1321 269.869 22.9915 269.411 22.7103C268.954 22.429 268.599 22.0356 268.346 21.5299C268.093 21.0242 267.967 20.4333 267.967 19.7571C267.967 19.0782 268.093 18.4844 268.346 17.9759C268.599 17.4674 268.954 17.0725 269.411 16.7912C269.869 16.51 270.404 16.3694 271.018 16.3694C271.632 16.3694 272.167 16.51 272.624 16.7912C273.082 17.0725 273.437 17.4674 273.69 17.9759C273.943 18.4844 274.069 19.0782 274.069 19.7571C274.069 20.4333 273.943 21.0242 273.69 21.5299C273.437 22.0356 273.082 22.429 272.624 22.7103C272.167 22.9915 271.632 23.1321 271.018 23.1321ZM271.022 22.0625C271.42 22.0625 271.749 21.9574 272.011 21.7472C272.272 21.537 272.465 21.2571 272.59 20.9077C272.718 20.5583 272.782 20.1733 272.782 19.7529C272.782 19.3353 272.718 18.9517 272.59 18.6023C272.465 18.25 272.272 17.9674 272.011 17.7543C271.749 17.5412 271.42 17.4347 271.022 17.4347C270.622 17.4347 270.289 17.5412 270.025 17.7543C269.764 17.9674 269.569 18.25 269.441 18.6023C269.316 18.9517 269.254 19.3353 269.254 19.7529C269.254 20.1733 269.316 20.5583 269.441 20.9077C269.569 21.2571 269.764 21.537 270.025 21.7472C270.289 21.9574 270.622 22.0625 271.022 22.0625Z" fill="#7497F7"/>
<path d="M279.638 20.2856V16.4546H280.916V23H279.663V21.8665H279.595C279.444 22.216 279.203 22.5071 278.871 22.7401C278.541 22.9702 278.131 23.0853 277.639 23.0853C277.219 23.0853 276.846 22.9929 276.523 22.8083C276.202 22.6208 275.949 22.3438 275.764 21.9773C275.582 21.6108 275.491 21.1577 275.491 20.6179V16.4546H276.765V20.4645C276.765 20.9106 276.889 21.2657 277.136 21.5299C277.383 21.7941 277.704 21.9262 278.099 21.9262C278.338 21.9262 278.575 21.8665 278.811 21.7472C279.05 21.6279 279.247 21.4475 279.403 21.206C279.562 20.9645 279.64 20.6577 279.638 20.2856Z" fill="#7497F7"/>
<path d="M285.372 25.591C284.852 25.591 284.405 25.5228 284.03 25.3864C283.658 25.25 283.354 25.0696 283.118 24.8452C282.882 24.6208 282.706 24.375 282.59 24.108L283.685 23.6563C283.762 23.7813 283.864 23.9134 283.992 24.0526C284.122 24.1946 284.298 24.3154 284.52 24.4148C284.744 24.5142 285.033 24.564 285.385 24.564C285.868 24.564 286.267 24.4461 286.583 24.2103C286.898 23.9773 287.056 23.6052 287.056 23.0938V21.8069H286.975C286.898 21.9461 286.787 22.1009 286.642 22.2714C286.5 22.4418 286.304 22.5895 286.054 22.7145C285.804 22.8395 285.479 22.902 285.078 22.902C284.561 22.902 284.095 22.7813 283.681 22.5398C283.269 22.2955 282.942 21.9361 282.7 21.4617C282.462 20.9844 282.342 20.3978 282.342 19.7017C282.342 19.0057 282.46 18.4091 282.696 17.912C282.935 17.4148 283.262 17.0341 283.676 16.7699C284.091 16.5029 284.561 16.3694 285.087 16.3694C285.493 16.3694 285.821 16.4375 286.071 16.5739C286.321 16.7074 286.516 16.8637 286.655 17.0427C286.797 17.2216 286.906 17.3793 286.983 17.5157H287.077V16.4546H288.325V23.1449C288.325 23.7074 288.195 24.1691 287.933 24.5299C287.672 24.8907 287.318 25.1577 286.872 25.331C286.429 25.5043 285.929 25.591 285.372 25.591ZM285.36 21.8452C285.726 21.8452 286.036 21.76 286.289 21.5895C286.544 21.4162 286.737 21.1691 286.868 20.8481C287.002 20.5242 287.068 20.1364 287.068 19.6847C287.068 19.2444 287.003 18.8566 286.872 18.5214C286.742 18.1861 286.55 17.9248 286.297 17.7373C286.044 17.5469 285.732 17.4517 285.36 17.4517C284.976 17.4517 284.656 17.5512 284.401 17.75C284.145 17.9461 283.952 18.2131 283.821 18.5512C283.693 18.8892 283.629 19.2671 283.629 19.6847C283.629 20.1137 283.695 20.4901 283.825 20.814C283.956 21.1378 284.149 21.3907 284.405 21.5725C284.664 21.7543 284.982 21.8452 285.36 21.8452Z" fill="#7497F7"/>
<path d="M291.308 19.1137V23H290.034V14.2728H291.291V17.5199H291.372C291.526 17.1677 291.76 16.8878 292.075 16.6804C292.391 16.4731 292.803 16.3694 293.311 16.3694C293.76 16.3694 294.152 16.4617 294.487 16.6464C294.825 16.831 295.087 17.1066 295.271 17.4731C295.459 17.8367 295.553 18.2912 295.553 18.8367V23H294.279V18.9901C294.279 18.51 294.155 18.1378 293.908 17.8736C293.661 17.6066 293.317 17.4731 292.877 17.4731C292.575 17.4731 292.306 17.537 292.067 17.6648C291.831 17.7927 291.645 17.9802 291.509 18.2273C291.375 18.4716 291.308 18.7671 291.308 19.1137Z" fill="#7497F7"/>
<path d="M297.253 25.4546V16.4546H298.497V17.5157H298.604C298.678 17.3793 298.784 17.2216 298.923 17.0427C299.063 16.8637 299.256 16.7074 299.503 16.5739C299.75 16.4375 300.077 16.3694 300.483 16.3694C301.012 16.3694 301.483 16.5029 301.898 16.7699C302.313 17.037 302.638 17.4219 302.874 17.9248C303.112 18.4276 303.232 19.0327 303.232 19.7401C303.232 20.4475 303.114 21.054 302.878 21.5597C302.642 22.0625 302.318 22.4503 301.906 22.7231C301.494 22.9929 301.024 23.1279 300.496 23.1279C300.098 23.1279 299.773 23.0611 299.52 22.9276C299.27 22.7941 299.074 22.6378 298.932 22.4589C298.79 22.2799 298.681 22.1208 298.604 21.9816H298.527V25.4546H297.253ZM298.502 19.7273C298.502 20.1875 298.568 20.591 298.702 20.9375C298.835 21.2841 299.029 21.5554 299.281 21.7515C299.534 21.9446 299.844 22.0412 300.21 22.0412C300.591 22.0412 300.909 21.9404 301.165 21.7387C301.421 21.5341 301.614 21.2571 301.744 20.9077C301.878 20.5583 301.945 20.1648 301.945 19.7273C301.945 19.2955 301.879 18.9077 301.749 18.564C301.621 18.2202 301.428 17.9489 301.169 17.75C300.914 17.5512 300.594 17.4517 300.21 17.4517C299.841 17.4517 299.529 17.5469 299.273 17.7373C299.02 17.9276 298.828 18.1932 298.698 18.5341C298.567 18.875 298.502 19.2728 298.502 19.7273Z" fill="#7497F7"/>
<path d="M308.806 20.2856V16.4546H310.084V23H308.831V21.8665H308.763C308.612 22.216 308.371 22.5071 308.039 22.7401C307.709 22.9702 307.298 23.0853 306.807 23.0853C306.387 23.0853 306.014 22.9929 305.691 22.8083C305.369 22.6208 305.117 22.3438 304.932 21.9773C304.75 21.6108 304.659 21.1577 304.659 20.6179V16.4546H305.933V20.4645C305.933 20.9106 306.057 21.2657 306.304 21.5299C306.551 21.7941 306.872 21.9262 307.267 21.9262C307.506 21.9262 307.743 21.8665 307.979 21.7472C308.217 21.6279 308.415 21.4475 308.571 21.206C308.73 20.9645 308.808 20.6577 308.806 20.2856Z" fill="#7497F7"/>
<path d="M314.851 16.4546V17.4773H311.276V16.4546H314.851ZM312.235 14.8864H313.509V21.0782C313.509 21.3253 313.546 21.5114 313.62 21.6364C313.694 21.7586 313.789 21.8424 313.905 21.8878C314.025 21.9304 314.154 21.9517 314.293 21.9517C314.395 21.9517 314.485 21.9446 314.562 21.9304C314.638 21.9162 314.698 21.9049 314.741 21.8964L314.971 22.9489C314.897 22.9773 314.792 23.0057 314.655 23.0341C314.519 23.0654 314.349 23.0824 314.144 23.0853C313.809 23.091 313.496 23.0313 313.206 22.9063C312.917 22.7813 312.682 22.5881 312.503 22.3267C312.324 22.0654 312.235 21.7373 312.235 21.3424V14.8864Z" fill="#7497F7"/>
<path d="M108.458 165.812C109.571 165.165 110.878 164.938 112.144 165.171C112.854 165.433 113.471 165.897 113.921 166.505C114.371 167.114 114.633 167.84 114.675 168.596C114.746 170.095 114.415 171.585 113.718 172.914C111.409 177.945 107.248 181.916 104.677 186.812C103.079 189.859 102.125 193.203 101.877 196.636C101.624 200.211 101.743 204.545 98.6423 206.372C96.4434 207.63 93.4931 206.776 91.7055 204.972C89.9179 203.169 89.0558 200.662 88.4625 198.202C86.8562 191.35 86.7988 184.225 88.2944 177.348C89.79 170.471 92.8009 164.014 97.1078 158.448C97.7802 157.585 98.9271 156.676 99.8367 157.285C100.076 157.502 100.264 157.769 100.39 158.067C100.516 158.365 100.575 158.686 100.564 159.009C100.754 160.892 99.8367 167.789 101.458 169.023C103.238 170.328 106.52 166.729 108.458 165.812Z" fill="url(#paint2_linear_998_3474)"/>
<path d="M98.1836 276.769L99.5203 266.091C98.848 271.469 98.1915 276.848 97.5191 282.234V282.432C96.7756 282.179 96.04 281.902 95.3044 281.641C83.5506 277.077 73.1098 269.579 63.8713 260.997L63.4442 260.601C65.4058 252.549 67.6521 244.553 69.8985 236.587C73.442 224.003 76.2262 209.56 84.6738 199.594C86.0422 198.012 88.6286 198.486 90.6219 199.198C92.6151 199.91 94.7824 200.78 96.8231 201.571C98.1399 201.996 99.3122 202.779 100.208 203.833C101.055 205.02 101.15 206.562 101.205 208.026C102.126 230.984 101.115 253.979 98.1836 276.769Z" fill="#7497F7"/>
<path d="M299.984 271.817C299.256 272.213 298.52 272.608 297.793 272.94C286.442 278.477 274.159 281.499 261.63 283.389C254.867 268.867 247.764 253.585 238.343 240.764C235.18 236.461 231.952 232.751 229.991 227.697C228.52 223.916 226.408 218.996 226.036 214.986C225.68 210.691 228.796 208.5 231.905 205.993C238.919 200.328 247.051 196.209 255.768 193.907C256.516 193.616 257.341 193.597 258.102 193.851C258.756 194.244 259.268 194.834 259.565 195.536L283.943 240.068C289.329 249.899 294.724 259.747 299.216 270.022C299.47 270.631 299.762 271.216 299.984 271.817Z" fill="#7497F7"/>
<path d="M215.674 202.932C213.792 199.618 215.065 195.481 214.844 191.668C214.464 185.341 209.948 180.168 206.459 174.868C204.933 172.558 203.533 169.94 203.762 167.18C203.841 166.191 204.348 165.036 205.344 164.941C205.793 164.931 206.236 165.052 206.618 165.289C208.179 166.093 209.587 167.164 210.778 168.453C212.162 169.948 213.657 171.91 215.682 171.673C216.504 171.493 217.285 171.16 217.984 170.692C220.665 169.252 223.734 168.77 226.74 168.319L230.568 167.726C233.677 167.243 236.896 166.769 239.941 167.425C241.684 167.814 243.328 168.555 244.774 169.602C246.22 170.65 247.436 171.981 248.349 173.516C251.038 178.087 250.722 183.798 252.304 188.837C252.937 190.814 253.886 192.697 254.4 194.706C255.05 196.702 254.926 198.871 254.052 200.78C252.834 203.05 250.224 204.213 247.724 204.775C245.225 205.336 242.567 205.463 240.186 206.451C238.169 207.282 236.437 208.674 234.539 209.734C230.102 212.21 228.417 210.066 224.383 208.366C221.258 207.053 217.501 206.088 215.674 202.932Z" fill="url(#paint3_linear_998_3474)"/>
<path d="M248.863 140.453C248.479 144.996 246.402 149.23 243.045 152.314C239.687 155.399 235.294 157.111 230.734 157.111H230.624V150.783C233.51 150.771 236.296 149.722 238.474 147.827C240.652 145.932 242.077 143.318 242.488 140.461L248.863 140.453Z" fill="#7497F7"/>
<path d="M248.863 140.453C248.479 144.996 246.402 149.23 243.045 152.314C239.687 155.399 235.294 157.111 230.734 157.111H230.624V150.783C233.51 150.771 236.296 149.722 238.474 147.827C240.652 145.932 242.077 143.318 242.488 140.461L248.863 140.453Z" fill="url(#paint4_linear_998_3474)"/>
</g>
<defs>
<linearGradient id="paint0_linear_998_3474" x1="130.669" y1="203.375" x2="55.8825" y2="185.562" gradientUnits="userSpaceOnUse">
<stop stop-opacity="0"/>
<stop offset="0.99"/>
</linearGradient>
<linearGradient id="paint1_linear_998_3474" x1="198.684" y1="197.972" x2="247.97" y2="197.972" gradientUnits="userSpaceOnUse">
<stop stop-opacity="0"/>
<stop offset="0.99"/>
</linearGradient>
<linearGradient id="paint2_linear_998_3474" x1="87.1891" y1="181.987" x2="114.691" y2="181.987" gradientUnits="userSpaceOnUse">
<stop stop-color="#E5C5D5"/>
<stop offset="0.42" stop-color="#EAD4D1"/>
<stop offset="1" stop-color="#F0E9CB"/>
</linearGradient>
<linearGradient id="paint3_linear_998_3474" x1="203.738" y1="187.895" x2="254.819" y2="187.895" gradientUnits="userSpaceOnUse">
<stop stop-color="#E5C5D5"/>
<stop offset="0.42" stop-color="#EAD4D1"/>
<stop offset="1" stop-color="#F0E9CB"/>
</linearGradient>
<linearGradient id="paint4_linear_998_3474" x1="226.93" y1="131.072" x2="257.793" y2="173.737" gradientUnits="userSpaceOnUse">
<stop offset="0.02" stop-color="white" stop-opacity="0"/>
<stop offset="0.32" stop-color="white" stop-opacity="0.39"/>
<stop offset="0.68" stop-color="white" stop-opacity="0.68"/>
<stop offset="1" stop-color="white"/>
</linearGradient>
<clipPath id="clip0_998_3474">
<rect width="382.118" height="288" fill="white" transform="translate(0.882324 0.791504)"/>
</clipPath>
</defs>
</svg>
