<svg width="40" height="41" viewBox="0 0 40 41" fill="none" xmlns="http://www.w3.org/2000/svg">
<path d="M23.5209 14.9137L21.8761 13.3301C21.2304 12.7083 21.5489 11.6171 22.4278 11.4404L28.7146 10.1762C29.4752 10.0232 30.1545 10.6772 30.0304 11.4431L29.0052 17.7733C28.8618 18.6582 27.7835 19.0178 27.1377 18.396L25.9225 17.2261L21.7341 21.4145C21.0832 22.0654 20.0279 22.0654 19.3771 21.4145L16.6667 18.7041L11.1785 24.1923C10.5276 24.8432 9.47237 24.8432 8.8215 24.1923C8.17063 23.5414 8.17063 22.4861 8.8215 21.8353L15.4882 15.1686C16.139 14.5177 17.1943 14.5177 17.8452 15.1686L20.5556 17.879L23.5209 14.9137Z" fill="#FF8B8B"/>
<path fill-rule="evenodd" clip-rule="evenodd" d="M8.33334 4.12488C5.90718 4.12488 3.33334 5.78429 3.33334 8.50759V27.5199C3.33334 30.2432 5.90718 31.9027 8.33334 31.9027H31.6667C34.0928 31.9027 36.6667 30.2432 36.6667 27.5199V8.50759C36.6667 5.78429 34.0928 4.12488 31.6667 4.12488H8.33334ZM6.66668 8.50759C6.66668 8.34216 6.7446 8.11093 7.02911 7.87912C7.31699 7.64454 7.77262 7.45821 8.33334 7.45821H31.6667C32.2274 7.45821 32.683 7.64454 32.9709 7.87912C33.2554 8.11093 33.3333 8.34216 33.3333 8.50759V27.5199C33.3333 27.6854 33.2554 27.9166 32.9709 28.1484C32.683 28.383 32.2274 28.5693 31.6667 28.5693H8.33334C7.77262 28.5693 7.31699 28.383 7.02911 28.1484C6.7446 27.9166 6.66668 27.6854 6.66668 27.5199V8.50759Z" fill="#FF8B8B"/>
<path d="M7.22223 36.3471C7.22223 35.4266 7.96842 34.6804 8.8889 34.6804H31.1111C32.0316 34.6804 32.7778 35.4266 32.7778 36.3471C32.7778 37.2676 32.0316 38.0138 31.1111 38.0138H8.8889C7.96842 38.0138 7.22223 37.2676 7.22223 36.3471Z" fill="#FF8B8B"/>
</svg>
