<svg width="80" height="81" viewBox="0 0 80 81" fill="none" xmlns="http://www.w3.org/2000/svg">
<path fill-rule="evenodd" clip-rule="evenodd" d="M62.4488 39.6343C62.4488 52.3138 52.3922 62.5941 40.0001 62.5941C27.6079 62.5941 17.5534 52.3138 17.5534 39.6343C17.5534 26.9548 27.6038 16.6725 40.0001 16.6725C52.3964 16.6725 62.4488 26.9528 62.4488 39.6343Z" fill="#D33833"/>
<path d="M18.4686 45.3235C18.4686 45.3235 16.8431 21.3766 38.906 20.6952L37.3668 18.1297L25.3953 22.1462L21.974 26.0785L18.9817 31.8087L17.2659 38.4789L17.779 42.9264" fill="#EF3D3A"/>
<path d="M24.6258 23.979C20.5223 28.1886 18.2335 33.8398 18.2511 39.7185C18.2314 45.6001 20.5203 51.2546 24.6258 55.4663C26.6219 57.526 29.0112 59.1641 31.6521 60.2834C34.293 61.4027 37.1317 61.9805 40 61.9825C42.8683 61.9805 45.707 61.4027 48.3479 60.2834C50.9888 59.1641 53.3781 57.526 55.3742 55.4663C59.4804 51.2549 61.7701 45.6004 61.7509 39.7185C61.768 33.8395 59.4785 28.1883 55.3742 23.979C53.3778 21.9196 50.9884 20.2818 48.3476 19.1625C45.7068 18.0432 42.8682 17.4652 40 17.4627C37.1318 17.4652 34.2932 18.0432 31.6524 19.1625C29.0116 20.2818 26.6222 21.9196 24.6258 23.979ZM23.6283 56.4412C19.2687 51.9685 16.837 45.9644 16.8555 39.7185C16.837 33.4726 19.2687 27.4686 23.6283 22.9959C25.7547 20.8038 28.2993 19.0605 31.1114 17.8693C33.9235 16.6782 36.946 16.0632 40 16.0609C43.054 16.0632 46.0765 16.6782 48.8886 17.8693C51.7007 19.0605 54.2453 20.8038 56.3717 22.9959C60.733 27.4675 63.165 33.4722 63.1445 39.7185C63.165 45.9648 60.733 51.9696 56.3717 56.4412C54.246 58.6347 51.7017 60.3795 48.8896 61.5721C46.0774 62.7647 43.0546 63.381 40 63.3843C36.9454 63.381 33.9226 62.7647 31.1104 61.5721C28.2983 60.3795 25.754 58.6347 23.6283 56.4412Z" fill="#231F20"/>
<path fill-rule="evenodd" clip-rule="evenodd" d="M49.4492 39.7616L46.0299 40.2747L41.4121 40.7878L38.4177 40.8719L35.5116 40.7878L33.2868 40.1023L31.3207 37.9658L29.7855 33.6045L29.4428 32.6625L27.3904 31.979L26.1939 30.0129L25.3339 27.1909L26.276 24.7096L28.4987 23.9399L30.2945 24.7999L31.1503 26.6819L32.1765 26.5095L32.5172 26.0826L32.1765 24.1164L32.0903 21.6351L32.6034 18.2159L32.5829 16.2621L34.1427 13.7684L36.8785 11.8023L41.6687 9.74991L46.9699 10.5154L51.5877 13.8505L53.7263 17.2698L55.0932 19.7511L55.4359 25.9082L54.4097 31.2094L52.5277 35.9134L50.7319 38.3927" fill="#F0D6B7"/>
<path fill-rule="evenodd" clip-rule="evenodd" d="M46.543 54.5592L34.313 55.0722V57.1246L35.3391 64.3079L34.826 64.9072L26.2759 61.9949L25.6766 60.9687L24.8208 51.3062L22.8546 45.4898L22.4277 44.1229L29.2683 39.4189L31.4068 38.563L33.2868 40.872L34.9164 42.3271L36.7984 42.9243L37.6522 43.1809L38.6783 47.6283L39.448 48.5683L41.4162 47.8849L40.0473 50.5365L47.4871 54.042L46.5471 54.555" fill="#335061"/>
<path fill-rule="evenodd" clip-rule="evenodd" d="M26.2759 24.7096L28.4986 23.94L30.2944 24.7999L31.1502 26.682L32.1764 26.5096L32.4329 25.4834L31.9198 23.5172L32.4329 18.8132L32.004 16.2477L33.5433 14.4519L36.8784 11.7982L35.9425 10.5155L31.2344 12.8244L29.2682 14.3637L28.1558 16.7567L26.4462 19.0656L25.9331 21.8035L26.2759 24.7096Z" fill="#6D6B6D"/>
<path fill-rule="evenodd" clip-rule="evenodd" d="M29.7854 16.6726C29.7854 16.6726 31.064 13.5119 36.1949 11.9686C41.3258 10.4252 36.4515 10.8562 36.4515 10.8562L30.8937 12.9948L28.7592 15.1333L27.8151 16.8429L29.7854 16.6726Z" fill="#DCD9D8"/>
<path fill-rule="evenodd" clip-rule="evenodd" d="M27.2158 24.1123C27.2158 24.1123 25.42 18.1256 32.2605 17.2698L32.004 16.2436L27.302 17.356L25.9331 21.8034L26.2759 24.7096L27.2158 24.1123Z" fill="#DCD9D8"/>
<path fill-rule="evenodd" clip-rule="evenodd" d="M29.9515 32.0653L31.0721 30.9796C31.2294 31.0082 31.3728 31.0882 31.4798 31.2071C31.5867 31.3259 31.6513 31.4769 31.6632 31.6363C31.7474 32.2356 32.0039 37.6231 35.6817 40.5313C36.0163 40.796 32.9459 40.1023 32.9459 40.1023L30.2081 35.8273" fill="#F7E4CD"/>
<path fill-rule="evenodd" clip-rule="evenodd" d="M45.6873 30.4398C45.6873 30.4398 45.8925 27.8477 46.5842 28.0468C46.7812 28.1022 46.9553 28.2191 47.0812 28.3804C47.2071 28.5418 47.2781 28.7391 47.284 28.9436C47.284 28.9436 45.5888 30.0417 45.6873 30.4398Z" fill="#F7E4CD"/>
<path d="M52.7842 20.9476C52.7842 20.9476 51.3742 21.2452 51.2449 22.4869C51.1156 23.7286 52.7842 22.7434 53.0407 22.6572" fill="#F7E4CD"/>
<path d="M42.4382 21.0338C42.4382 21.0338 40.5562 21.2903 40.5562 22.4869C40.5562 23.6834 42.6947 23.5992 43.2919 23.0861" fill="#F7E4CD"/>
<path fill-rule="evenodd" clip-rule="evenodd" d="M30.8114 26.5916C30.8114 26.5916 27.5605 24.6255 27.2198 26.5054C26.8791 28.3854 26.1074 29.7564 27.7329 31.7225L26.6205 31.3798L25.5943 28.7302L25.2495 26.1647L27.2157 24.1124L29.4384 24.2827L30.7211 25.3089L30.8114 26.5916Z" fill="#F7E4CD"/>
<path fill-rule="evenodd" clip-rule="evenodd" d="M32.3469 21.2041C32.3469 21.2041 33.8 13.6781 41.1557 12.2251C47.2101 11.0285 50.3913 12.4816 51.5878 13.8505C51.5878 13.8505 46.2045 7.4369 41.0736 9.40717C35.9427 11.3774 32.1766 14.9609 32.2607 17.2698C32.4064 21.2021 32.3469 21.2041 32.3469 21.2041Z" fill="#F7E4CD"/>
<path fill-rule="evenodd" clip-rule="evenodd" d="M52.1869 14.7044C52.1869 14.7044 49.7055 14.6202 49.6214 16.8429C49.6288 17.0803 49.6869 17.3133 49.7917 17.5264C49.7917 17.5264 51.7579 15.3037 52.9565 16.5002" fill="#F7E4CD"/>
<path fill-rule="evenodd" clip-rule="evenodd" d="M41.3278 17.7583C41.3278 17.7583 40.9009 14.3452 37.9906 16.3216C36.1086 17.6044 36.281 19.4002 36.6217 19.7429C36.9624 20.0857 36.8721 20.7691 37.1307 20.3012C37.3893 19.8332 37.3051 18.2878 38.2472 17.8609C39.1892 17.434 40.7305 16.9558 41.3257 17.7501" fill="#F7E4CD"/>
<path fill-rule="evenodd" clip-rule="evenodd" d="M33.2868 40.8719L25.2497 44.4636C25.2497 44.4636 28.5848 57.7198 26.8731 61.8245L25.6807 61.3956L25.5945 56.3509L23.3677 46.7725L22.4277 44.1229L30.8116 38.4789L33.2909 40.8719" fill="#49728B"/>
<path fill-rule="evenodd" clip-rule="evenodd" d="M34.114 48.1969L35.2551 49.5884V54.7193H33.8903C33.8903 54.7193 33.7199 51.1276 33.7199 50.7007C33.7199 50.2739 33.8903 48.7346 33.8903 48.7346" fill="#49728B"/>
<path fill-rule="evenodd" clip-rule="evenodd" d="M34.1426 55.495L30.2944 55.6674L31.4068 56.437L34.1426 56.8639" fill="#49728B"/>
<path fill-rule="evenodd" clip-rule="evenodd" d="M47.3129 54.6412L50.4756 54.555L51.2452 62.4217L47.9963 62.8507L47.3129 54.6412Z" fill="#335061"/>
<path fill-rule="evenodd" clip-rule="evenodd" d="M48.1664 54.6413L52.9566 54.3847C52.9566 54.3847 54.9228 49.4242 54.9228 49.1676C54.9228 48.9111 56.6324 41.9843 56.6324 41.9843L52.7842 37.9658L52.0146 37.2803L49.9622 39.3327V47.2856L48.1664 54.6413Z" fill="#335061"/>
<path fill-rule="evenodd" clip-rule="evenodd" d="M50.3093 54.0419L47.3129 54.6412L47.7398 57.0342C48.8501 57.5473 50.7321 56.1805 50.7321 56.1805" fill="#49728B"/>
<path fill-rule="evenodd" clip-rule="evenodd" d="M50.391 39.0762L56.3757 43.5236L56.5481 41.4713L52.0144 37.2803L50.391 39.0762Z" fill="#49728B"/>
<path fill-rule="evenodd" clip-rule="evenodd" d="M37.1102 71.4871L35.339 64.3038L34.4586 59.0025L34.3129 55.0682L42.3273 54.6413H47.3125L46.859 63.6203L47.6286 70.5471L47.5424 71.8298L41.0446 72.3429L37.1102 71.4871Z" fill="white"/>
<path fill-rule="evenodd" clip-rule="evenodd" d="M46.2041 54.5591C46.2041 54.5591 45.7772 63.452 47.0599 69.7815C45.1128 70.8918 42.9585 71.5903 40.7304 71.8339L47.9137 71.5773L48.7695 71.0642L47.7433 57.0384L47.4868 54.0461" fill="#DCD9D8"/>
<path fill-rule="evenodd" clip-rule="evenodd" d="M51.3906 61.7425L54.7257 60.8025L61.0532 60.4597L61.9952 57.5536L60.2835 52.5068L58.3133 52.2462L55.5775 53.102L52.9525 54.3847L51.5569 54.1282L50.4753 54.5592" fill="white"/>
<path fill-rule="evenodd" clip-rule="evenodd" d="M51.3351 60.0287C51.3351 60.0287 53.5579 59.0025 53.9006 59.0867L52.9606 54.3847L54.0709 53.9558C54.0709 53.9558 54.8406 58.4032 54.8406 58.9163C54.8406 58.9163 59.6287 59.1729 60.0577 59.1729C60.0577 59.1729 61.0839 57.2067 60.8273 55.1544L61.7673 57.8902L61.8535 59.4294L60.4846 61.4818L58.9453 61.8245L56.3798 61.7383L55.5261 60.626L52.5317 61.0549L51.5917 61.3956" fill="#DCD9D8"/>
<path d="M47.9692 53.9578L46.0892 49.1676L44.121 46.3497C44.121 46.3497 44.55 45.1532 45.1472 45.1532H47.1154L48.9954 45.8366L48.825 49.0013L47.9692 53.9619" fill="white"/>
<path fill-rule="evenodd" clip-rule="evenodd" d="M48.339 52.3323C48.339 52.3323 45.9439 47.7145 45.9439 47.029C45.9439 47.029 46.3708 46.0028 46.9701 46.2594C47.5694 46.5159 48.8521 47.2014 48.8521 47.2014V45.5759L45.9439 44.9767L43.9777 45.2332L47.3128 53.102L47.9962 53.1861" fill="#DCD9D8"/>
<path d="M37.8798 41.0444L35.5114 40.7878L33.2866 40.1023V40.872L34.3744 42.0705L37.7936 43.6098" fill="white"/>
<path fill-rule="evenodd" clip-rule="evenodd" d="M34.0565 41.3009C34.0565 41.3009 36.7082 42.4133 37.564 42.1567L37.6482 43.1829L35.2551 42.6719L33.8 41.6457L34.0565 41.3029" fill="#DCD9D8"/>
<path fill-rule="evenodd" clip-rule="evenodd" d="M51.3823 45.4405C50.0654 45.4193 48.7559 45.238 47.4828 44.9007C47.5608 44.4307 47.415 43.9689 47.532 43.6303C47.8522 43.4004 48.3879 43.4025 48.8722 43.3491C48.4076 43.1308 47.8839 43.0716 47.3822 43.1808C47.3719 42.8545 47.2262 42.6513 47.1359 42.3968C47.9569 42.1054 49.8779 40.1967 50.9615 40.8288C51.4787 41.1284 51.6963 42.8463 51.7373 43.6816C51.7702 44.3753 51.6737 45.0731 51.3925 45.4405" fill="#D33833"/>
<path d="M51.3823 45.4405C50.0654 45.4193 48.7559 45.238 47.4828 44.9007C47.5608 44.4307 47.415 43.9689 47.532 43.6303C47.8522 43.4004 48.3879 43.4025 48.8722 43.3491C48.4076 43.1308 47.8839 43.0716 47.3822 43.1808C47.3719 42.8545 47.2262 42.6513 47.1359 42.3968C47.9569 42.1054 49.8779 40.1967 50.9615 40.8288C51.4787 41.1284 51.6963 42.8463 51.7373 43.6816C51.7599 44.3753 51.6634 45.0731 51.3823 45.4405Z" stroke="#D33833" stroke-width="2.5" stroke-miterlimit="5"/>
<path fill-rule="evenodd" clip-rule="evenodd" d="M44.4433 43.0659L44.431 43.3964C43.9774 43.694 43.2467 43.6919 42.748 43.9423C43.3788 43.9618 43.9978 44.118 44.5623 44.4C44.55 44.677 44.5397 44.9541 44.5295 45.2312C43.7085 45.7997 42.9409 46.6453 41.962 47.1789C41.5002 47.4313 39.8788 48.0799 39.3862 47.9649C39.1071 47.8993 39.0825 47.5545 38.9758 47.2302C38.7377 46.5324 38.1938 45.4221 38.1548 44.3733C38.0953 43.0475 37.9619 40.8268 39.3862 41.0895C40.5667 41.3385 41.7061 41.7531 42.7706 42.3209C43.3145 42.6206 43.6305 42.988 44.4576 43.0516" fill="#D33833"/>
<path d="M44.4433 43.0659L44.431 43.3964C43.9774 43.694 43.2467 43.6919 42.748 43.9423C43.3788 43.9618 43.9978 44.118 44.5623 44.4C44.55 44.677 44.5397 44.9541 44.5295 45.2312C43.7085 45.7997 42.9409 46.6453 41.962 47.1789C41.5002 47.4313 39.8788 48.0799 39.3862 47.9649C39.1071 47.8993 39.0825 47.5545 38.9758 47.2302C38.7377 46.5324 38.1938 45.4221 38.1548 44.3733C38.0953 43.0475 37.9619 40.8268 39.3862 41.0895C40.5667 41.3385 41.7061 41.7531 42.7706 42.3209C43.3001 42.637 43.6162 43.0044 44.4433 43.0659Z" stroke="#D33833" stroke-width="2.5" stroke-miterlimit="5"/>
<path fill-rule="evenodd" clip-rule="evenodd" d="M45.2682 44.6503C45.141 43.9279 44.9953 43.7206 45.0507 43.0925C46.9758 41.8078 47.337 45.2968 45.2682 44.6503Z" fill="#D33833"/>
<path d="M45.2682 44.6503C45.141 43.9279 44.9953 43.7206 45.0507 43.0925C46.9758 41.8078 47.337 45.2968 45.2682 44.6503Z" stroke="#D33833" stroke-width="2.5" stroke-miterlimit="5"/>
<path fill-rule="evenodd" clip-rule="evenodd" d="M48.0516 45.2353C48.0516 45.2353 47.4523 44.3794 47.8812 44.1229C48.3102 43.8663 48.735 44.1229 48.9916 43.696C49.2481 43.2691 48.9916 43.0105 49.0777 42.4974C49.1639 41.9843 49.5908 41.9002 50.0177 41.814C50.4446 41.7278 51.6432 41.5574 51.8135 41.9843L51.3005 40.4451L50.2743 40.1044L47.0254 41.9843L46.855 42.9264V44.8063" fill="#EF3D3A"/>
<path fill-rule="evenodd" clip-rule="evenodd" d="M39.0764 48.0572C38.9738 46.7218 38.8629 45.3878 38.7439 44.0551C38.5633 42.0643 39.2221 42.4132 40.9481 42.4132C41.2108 42.4132 42.5716 42.7273 42.668 42.9263C43.1339 43.8786 41.8881 43.6672 43.2057 44.3856C44.3181 44.991 46.2843 44.0161 45.8328 42.6698C45.5803 42.3701 44.5234 42.5754 44.1437 42.3784L42.1385 41.3399C41.2888 40.8986 39.3247 40.2562 38.4176 40.8719C36.121 42.4338 38.5633 46.3353 39.3822 47.9649" fill="#EF3D3A"/>
<path fill-rule="evenodd" clip-rule="evenodd" d="M41.3279 17.7583C38.9964 17.2164 37.8388 18.7331 37.1308 20.3094C36.5007 20.1554 36.7511 19.2975 36.9112 18.8604C37.3216 17.7131 39.0087 16.1923 40.3838 16.3976C40.9748 16.4858 41.7753 17.0276 41.3279 17.7624" fill="#231F20"/>
<path fill-rule="evenodd" clip-rule="evenodd" d="M52.6835 20.412H52.7943C53.3197 21.5079 53.7774 22.6696 54.4362 23.6321C53.9908 24.6583 51.0662 25.586 51.1114 23.7245C51.7435 23.4474 52.8353 23.6691 53.3977 23.314C53.0734 22.4253 52.6055 21.6721 52.6794 20.4079" fill="#231F20"/>
<path fill-rule="evenodd" clip-rule="evenodd" d="M42.5206 20.4407C43.0193 21.3581 43.1835 22.3206 43.8936 23.0123C44.2138 23.3242 44.8356 23.7039 44.5278 24.57C44.456 24.7753 43.9285 25.2309 43.6247 25.3212C42.5144 25.6475 39.9305 25.3889 40.8027 24.0036C41.7202 24.0467 42.9557 24.6008 43.6412 23.9338C43.1137 23.0903 42.1737 21.4238 42.5206 20.4448" fill="#231F20"/>
<path fill-rule="evenodd" clip-rule="evenodd" d="M52.2668 29.7522C50.5941 30.8256 48.7285 31.9934 45.9886 31.7224C45.6708 31.4179 45.4722 31.0099 45.4285 30.5719C45.3849 30.1339 45.4991 29.6948 45.7505 29.3335C46.0461 29.8425 45.8593 30.7701 46.6844 30.92C48.2401 31.1847 50.0482 29.9677 51.1667 29.5428C51.8604 28.375 51.1072 27.944 50.4833 27.1908C49.2047 25.6495 47.4889 23.7388 47.5505 21.4319C48.0677 21.0563 48.1128 22.0045 48.1867 22.1769C48.8537 23.7388 50.5346 25.7378 51.7619 27.0759C52.0616 27.4043 52.5582 27.7203 52.6136 27.9379C52.7717 28.5721 52.2032 29.3314 52.2668 29.7522Z" fill="#231F20"/>
<path fill-rule="evenodd" clip-rule="evenodd" d="M30.2225 28.6214C29.6971 28.3217 29.5801 27.0041 28.9644 26.9671C28.0839 26.9138 28.244 28.6768 28.2481 29.7071C27.6365 29.157 27.5278 27.4679 27.9752 26.5977C27.4682 26.3473 27.2425 26.8707 26.9613 27.0554C27.3225 24.4304 30.7992 25.8384 30.2225 28.6214Z" fill="#231F20"/>
<path fill-rule="evenodd" clip-rule="evenodd" d="M53.3302 30.8441C52.5524 32.3259 51.4523 33.9575 49.1681 34.0048C49.1208 33.5266 49.086 32.8 49.1681 32.5106C50.9146 32.3423 51.9921 31.4537 53.3282 30.8441" fill="#231F20"/>
<path fill-rule="evenodd" clip-rule="evenodd" d="M42.389 31.8046C43.8462 32.5722 46.5225 32.6543 48.503 32.5968C48.5931 33.0909 48.6289 33.5933 48.6097 34.0951C46.0648 34.2223 43.0561 33.5922 42.389 31.8046Z" fill="#231F20"/>
<path fill-rule="evenodd" clip-rule="evenodd" d="M42.1119 33.2331C43.1196 35.7636 46.5819 35.4722 49.5004 35.4024C49.3672 35.773 49.0979 36.0791 48.7472 36.2582C47.8113 36.64 45.2315 36.9294 43.9323 36.2377C43.1114 35.8006 42.5798 34.8113 42.1283 34.2305C41.9108 33.9514 40.8251 33.2351 42.1119 33.2331Z" fill="#231F20"/>
<path fill-rule="evenodd" clip-rule="evenodd" d="M52.144 47.185C50.9619 49.2107 49.831 51.2897 48.4293 53.0752C49.0162 51.3472 49.2687 48.4533 49.3569 46.247C50.5883 45.6724 51.6412 46.3763 52.144 47.185Z" fill="#81B0C4"/>
<path fill-rule="evenodd" clip-rule="evenodd" d="M58.506 54.4626C57.1823 54.7274 56.2484 56.0142 54.9616 55.9321C55.6717 54.9306 56.9155 54.5099 58.506 54.4626Z" fill="#231F20"/>
<path fill-rule="evenodd" clip-rule="evenodd" d="M59.0909 56.5335C58.0114 56.6484 56.7451 56.8229 55.6491 56.7388C56.1684 55.9465 58.1632 56.2195 59.0909 56.5335Z" fill="#231F20"/>
<path fill-rule="evenodd" clip-rule="evenodd" d="M59.4645 58.3191C58.2516 58.3457 56.7452 58.3191 55.5917 58.2246C56.2731 57.4919 58.6703 57.9537 59.4645 58.3191Z" fill="#231F20"/>
<path fill-rule="evenodd" clip-rule="evenodd" d="M49.8638 63.2057C50.0382 64.7286 50.6416 66.272 50.5657 67.9405C49.8946 68.1663 49.5108 68.3633 48.6118 68.3613C48.5482 66.9451 48.3594 64.7779 48.4066 63.4356C48.8499 63.4643 49.5005 63.1196 49.8556 63.214" fill="#DCD9D8"/>
<path fill-rule="evenodd" clip-rule="evenodd" d="M47.9097 40.7653C47.294 41.1634 46.7809 41.6601 46.198 42.0849C44.9009 42.1486 44.1928 41.9946 43.2405 41.2496C43.2549 41.1901 43.3514 41.2168 43.3555 41.1429C44.7429 41.7586 46.5079 40.8905 47.9097 40.7653Z" fill="#F0D6B7"/>
<path fill-rule="evenodd" clip-rule="evenodd" d="M40.6237 50.2266C41.0034 48.5847 42.4975 47.7186 43.8562 46.8094C45.2559 48.5868 46.1138 50.871 47.0456 53.0773C44.829 52.4103 42.5653 51.3267 40.6237 50.2266Z" fill="#81B0C4"/>
<path fill-rule="evenodd" clip-rule="evenodd" d="M48.4148 63.4274C48.3594 64.7778 48.5482 66.9451 48.62 68.3531C49.5189 68.3531 49.9027 68.1581 50.5738 67.9323C50.6498 66.2638 50.0464 64.7204 49.8719 63.1975C49.5087 63.1113 48.8581 63.4561 48.4148 63.4274ZM34.43 55.7434C35.0231 61.1883 35.881 65.765 37.4531 70.5881C40.9421 71.6471 45.1556 71.7395 48.2424 70.7831C47.6759 68.0616 47.9222 64.7491 47.5918 61.845C47.3414 59.6634 47.4686 57.4673 47.1279 55.2405C43.3865 54.4606 38.1016 55.0579 34.43 55.7434ZM48.0104 55.2734C47.9797 57.6131 48.1151 59.9179 48.2937 62.2514C49.1926 62.1159 49.8022 62.0277 50.6354 61.8409C50.3645 59.5833 50.3994 57.0507 49.8473 55.0558C49.209 55.0743 48.6467 55.0599 48.0104 55.2734ZM52.5667 54.8978C52.1398 54.7993 51.6431 54.8978 51.2368 54.8978C51.4276 56.8024 51.8915 58.906 52.0577 60.9071C52.698 60.9276 53.0408 60.6259 53.5682 60.5233C53.5949 58.7665 53.4143 56.3467 52.5687 54.8937L52.5667 54.8978ZM59.4626 61.1985C60.7987 60.8743 61.6381 59.2385 61.2646 57.5597C61.0142 56.4309 60.5668 54.3046 60.0906 53.5822C59.7376 53.0486 58.7792 52.3508 58.0157 52.8393C56.772 53.6356 54.5821 53.8654 53.675 54.8301C54.1306 56.3426 54.2722 58.4217 54.459 60.3406C56.0126 60.4371 57.9234 59.9117 59.2143 60.4679C58.3133 60.7614 57.1435 60.7634 56.3636 61.1883C56.9998 61.4961 58.4919 61.4346 59.4626 61.1883V61.1985ZM47.0458 53.0773C46.1079 50.871 45.2562 48.5868 43.8565 46.8094C42.4978 47.7186 41.0037 48.5745 40.624 50.2266C42.5655 51.3267 44.8293 52.4103 47.0458 53.0773ZM49.3568 46.2471C49.2685 48.4534 49.0161 51.3472 48.4291 53.0753C49.8309 51.2897 50.9617 49.2107 52.1439 47.185C51.6411 46.3764 50.5882 45.6724 49.3568 46.2471ZM46.7359 45.3235C46.2064 45.266 45.7549 45.9392 45.0633 45.6457C44.9052 45.8202 44.7616 46.0111 44.5994 46.1814C46.1264 48.0285 46.8201 50.6289 47.9981 52.79C48.6303 50.7151 48.5584 48.4411 48.6959 46.1752C47.8278 46.2224 47.3455 45.381 46.7359 45.3235ZM45.0509 43.1008C44.9955 43.7288 45.1412 43.9361 45.2685 44.6585C47.3393 45.2968 46.9761 41.8078 45.0509 43.0926V43.1008ZM42.7564 42.3455C41.6919 41.7777 40.5526 41.3631 39.3721 41.1141C37.9354 40.8412 38.077 43.0618 38.1406 44.3979C38.1899 45.4467 38.7338 46.557 38.9616 47.2548C39.0724 47.5791 39.097 47.9239 39.3721 47.9895C39.8646 48.1045 41.486 47.4559 41.9478 47.2035C42.9267 46.6699 43.6841 45.8243 44.5153 45.2558C44.5255 44.9787 44.5358 44.7016 44.5481 44.4246C43.9847 44.1438 43.3671 43.9884 42.7379 43.969C43.2367 43.7186 43.9693 43.7206 44.4209 43.423L44.4332 43.0926C43.6163 43.0043 43.3003 42.637 42.7564 42.3373V42.3455ZM34.235 40.7981C33.4941 41.5492 36.312 42.5754 37.2089 42.6308C37.2089 42.1547 37.4798 41.7052 37.4141 41.3645C36.353 41.1695 34.9595 41.2927 34.235 40.7898V40.7981ZM43.3557 41.1511C43.3557 41.2249 43.2572 41.1983 43.2408 41.2578C44.1931 42.0028 44.9011 42.1567 46.1982 42.0931C46.7811 41.6683 47.3003 41.1716 47.9099 40.7734C46.5081 40.8904 44.7431 41.7627 43.3557 41.1429V41.1511ZM51.7273 43.6816C51.6862 42.8463 51.4687 41.1285 50.9515 40.8288C49.8678 40.1967 47.9427 42.1054 47.1259 42.3968C47.2162 42.6513 47.3619 42.8545 47.3722 43.1808C47.8738 43.0717 48.3975 43.1308 48.8622 43.3491C48.3778 43.4025 47.836 43.4005 47.522 43.6303C47.405 43.969 47.5507 44.4307 47.4727 44.9007C48.7459 45.2381 50.0553 45.4193 51.3722 45.4405C51.6637 45.0731 51.7601 44.3753 51.7273 43.6816ZM32.9892 41.5164C32.7552 41.3522 31.1831 39.306 30.9676 39.3901C28.121 40.5128 25.4611 42.4502 23.0825 44.2973C25.3503 49.1614 26.2657 55.1235 26.4258 60.8681C29.024 62.0831 31.3063 63.8338 34.8302 64.0164C34.4197 61.1308 34.0503 58.5571 33.8184 55.8398C32.9317 55.4663 31.6613 55.8562 30.8342 55.7228C30.8342 54.7254 32.0985 55.2857 32.2052 54.6146C32.2853 54.1076 31.5054 54.0686 31.7578 53.2682C32.4063 53.5042 32.747 54.0235 33.4387 54.2205C34.0688 52.8393 33.4387 50.3949 33.5208 49.2394C33.5372 49.0342 33.6275 48.0388 34.1139 48.2132C34.5428 48.3672 34.0893 50.8321 34.1365 51.9239C34.1796 52.9296 34.0154 53.9044 34.4218 54.5366C37.9203 54.0536 41.4426 53.7617 44.973 53.6623C44.1623 53.3134 43.1997 52.985 42.1448 52.3898C41.5722 52.0676 39.7682 51.3965 39.6019 50.8526C39.3392 49.9865 40.2936 49.5247 40.4578 48.7817C38.7379 49.7197 38.4054 47.8828 37.9949 46.5816C37.6965 45.6891 37.4727 44.7733 37.3259 43.8438C35.844 43.1377 34.2617 42.4235 32.9872 41.5164H32.9892ZM50.2291 39.6385C52.5995 38.4871 53.0285 43.9341 52.0988 45.6888C52.2424 46.2122 52.737 46.4133 52.9382 46.8833C51.6144 49.2538 50.1449 51.4662 48.7944 53.81C49.7981 53.1943 51.2327 53.6972 52.4148 53.2292C52.8479 53.0589 53.1598 52.0696 53.4882 51.2795C54.3871 49.1019 55.3353 46.3538 55.7458 44.2809C55.8402 43.8068 56.0988 42.7765 56.0413 42.3537C55.9387 41.6005 54.9146 41.0402 54.3994 40.5744C53.441 39.7124 52.8376 38.955 51.8361 38.1505C51.4256 38.7477 50.5615 39.15 50.2291 39.6385ZM27.5648 18.61C26.436 19.8414 26.672 22.1811 26.8096 23.8394C28.8619 22.5546 31.5628 23.94 31.53 26.1257C32.5049 26.099 31.8953 24.9087 31.7188 24.1411C31.1421 21.6331 32.6896 18.9076 31.7886 16.613C30.172 16.7009 28.6538 17.4176 27.5587 18.61H27.5648ZM35.6491 11.3939C33.0918 12.1184 29.8142 13.9778 28.7593 16.2744C29.5802 16.1574 30.1385 15.7469 30.941 15.6956C31.2447 15.6751 31.6408 15.8229 31.9897 15.7367C32.6896 15.5643 33.2745 14.0045 33.7999 13.4257C34.3253 12.8469 34.9246 12.6171 35.3453 12.1019C35.6162 11.9706 36.0144 11.9808 36.0308 11.5745C35.9138 11.4595 35.7907 11.3528 35.6491 11.3939ZM48.9648 12.0753C46.3111 10.577 41.8164 9.45029 38.9924 10.8582C36.7142 11.9952 33.6337 13.8752 32.5828 16.258C33.5639 18.5566 32.2914 20.6623 32.2114 22.9959C32.1683 24.2376 32.7963 25.3232 32.8435 26.6737C32.509 27.2278 31.4828 27.2894 30.7727 27.2586C30.5346 26.0621 30.1159 24.7178 28.8845 24.5906C27.14 24.3894 25.8675 25.8261 25.7875 27.3428C25.6931 29.114 27.1482 32.0632 29.2108 31.858C30.0071 31.78 30.2042 30.9816 31.0723 30.9898C31.5423 31.9278 30.3458 32.2212 30.2226 32.8944C30.2393 33.2896 30.2985 33.6818 30.3991 34.0643C30.7727 35.6117 31.608 37.6148 32.431 38.7847C33.4736 40.2788 35.5239 40.5046 37.7281 40.6503C38.1222 39.8027 39.5752 39.8724 40.5173 40.0941C39.3844 39.6446 38.3315 38.5569 37.4593 37.5943C36.4557 36.4984 35.4397 35.3039 35.3884 33.859C37.2848 36.4881 38.8487 38.7847 42.2946 39.9402C44.9011 40.8145 47.9468 39.5297 49.9499 38.132C50.7811 37.5471 51.2778 36.6194 51.8668 35.7718C54.0793 32.5907 55.1096 28.0529 54.8838 23.6526C54.7894 21.8383 54.7935 20.0302 54.186 18.8091C53.5498 17.5345 51.3968 16.3914 50.1367 17.5469C49.9048 16.3154 51.1855 15.5376 52.6898 15.985C51.6164 14.5997 50.4897 12.9352 48.9648 12.0855V12.0753ZM53.913 53.0117C55.9859 51.9855 59.8649 50.2348 61.164 53.0117C61.7026 54.2435 62.1345 55.5193 62.455 56.8249C62.8059 58.3191 62.0753 61.4551 60.5401 61.9559C59.1856 62.3971 57.6052 62.3663 55.9736 62.042C55.7439 61.8365 55.5552 61.5893 55.4174 61.3135C54.2517 61.2683 53.1598 61.3771 52.2404 61.8553C52.3286 62.7173 51.7457 62.8548 51.1998 63.0333C50.7893 64.6383 52.0084 66.7379 51.7191 68.2012C51.5138 69.2458 50.227 69.4059 49.2829 69.6009C49.2672 70.1217 49.303 70.6428 49.3896 71.1566C49.1741 71.9509 48.2054 72.4044 47.288 72.5153C44.2731 72.8765 39.6943 73.0407 36.7902 71.996C35.9795 70.0114 35.3535 67.5957 34.668 65.3279C31.8378 65.6419 29.5495 64.1108 27.3904 63.1113C26.6433 62.7665 25.611 62.5757 25.338 61.9805C25.065 61.3853 25.1779 60.3016 25.1102 59.259C24.9398 56.591 24.7941 54.0296 24.084 51.302C23.768 50.0706 23.2179 49.0013 22.8341 47.813C22.4791 46.7212 21.8593 45.3707 21.6992 44.283C21.459 42.6678 22.9798 42.5775 23.9568 41.8776C25.4591 40.796 26.6392 40.1988 28.2667 39.2218C28.749 38.9325 30.2021 38.1957 30.3683 37.8632C30.6967 37.1962 29.8039 36.2521 29.5659 35.7287C29.2084 34.9926 28.9945 34.195 28.9358 33.3788C28.3257 33.2781 27.7426 33.0538 27.2224 32.7196C26.7022 32.3853 26.2558 31.9482 25.9106 31.4352C24.8844 29.9185 24.16 27.115 25.0548 24.9805C25.1246 24.8122 25.4653 24.4818 25.5268 24.2232C25.6274 23.7163 25.3339 23.039 25.3216 22.4992C25.2272 19.7265 25.7895 17.3375 27.6572 16.5001C28.4042 13.4893 31.1175 12.4857 33.6726 10.9855C34.629 10.4334 35.6819 10.066 36.7635 9.66579C40.663 8.22913 46.6497 8.50004 49.8884 10.9485C51.2614 11.987 53.4574 14.181 54.2414 15.7675C56.3143 19.9584 56.1665 26.9631 54.7176 32.0612C54.4951 32.9213 54.2034 33.7621 53.8453 34.5753C53.5703 35.1479 52.7145 36.2972 52.8191 36.8042C52.9238 37.3111 54.7709 38.7293 55.165 39.109C55.8772 39.7965 57.2297 40.7078 57.3405 41.5718C57.4575 42.4954 56.93 43.7555 56.6673 44.6503C55.7807 47.6201 54.9146 50.3662 53.9069 53.0137" fill="#231F20"/>
<path fill-rule="evenodd" clip-rule="evenodd" d="M40.0697 32.4531C40.1826 32.3033 40.8024 32.0755 41.6685 32.4921C41.6685 32.4921 40.6423 32.6625 40.7265 34.3741L40.2996 34.2879C40.2996 34.2879 39.8583 32.7364 40.0697 32.4531Z" fill="#F7E4CD"/>
<path fill-rule="evenodd" clip-rule="evenodd" d="M47.5691 47.1583C47.5695 47.2518 47.5422 47.3432 47.4905 47.4211C47.4389 47.499 47.3653 47.5598 47.2791 47.5959C47.1929 47.6319 47.0979 47.6416 47.0062 47.6236C46.9145 47.6056 46.8302 47.5608 46.764 47.4949C46.6978 47.4289 46.6526 47.3448 46.6342 47.2532C46.6158 47.1616 46.6251 47.0666 46.6607 46.9802C46.6964 46.8938 46.7569 46.82 46.8346 46.768C46.9122 46.7161 47.0036 46.6883 47.097 46.6883C47.2219 46.6883 47.3416 46.7378 47.4301 46.8259C47.5186 46.9139 47.5685 47.0335 47.5691 47.1583Z" fill="#1D1919"/>
<path fill-rule="evenodd" clip-rule="evenodd" d="M48.039 49.3379C48.0394 49.4315 48.012 49.523 47.9603 49.601C47.9086 49.6789 47.8349 49.7397 47.7485 49.7757C47.6622 49.8117 47.5671 49.8212 47.4754 49.8031C47.3836 49.7849 47.2993 49.7399 47.2332 49.6738C47.167 49.6076 47.122 49.5233 47.1039 49.4316C47.0857 49.3398 47.0953 49.2447 47.1312 49.1584C47.1672 49.0721 47.228 48.9984 47.306 48.9467C47.3839 48.8949 47.4755 48.8675 47.569 48.868C47.6936 48.868 47.8132 48.9175 47.9013 49.0056C47.9895 49.0938 48.039 49.2133 48.039 49.3379Z" fill="#1D1919"/>
</svg>
