<svg width="80" height="81" viewBox="0 0 80 81" fill="none" xmlns="http://www.w3.org/2000/svg">
<path fill-rule="evenodd" clip-rule="evenodd" d="M40.1322 13.7915C33.5538 13.7848 27.1881 16.121 22.1757 20.3815C17.1633 24.642 13.832 30.5482 12.7787 37.0417C11.7255 43.5352 13.0191 50.1916 16.4277 55.818C19.8364 61.4444 25.1373 65.673 31.3805 67.746C32.774 68.0009 33.2668 67.1342 33.2668 66.4035C33.2668 65.6728 33.2668 64.0074 33.2668 61.6963C25.5348 63.3787 23.9034 57.9747 23.9034 57.9747C23.3904 56.2999 22.3007 54.8609 20.8276 53.9133C18.3295 52.2139 21.0315 52.2139 21.0315 52.2139C21.9071 52.3376 22.7432 52.6589 23.4763 53.1536C24.2094 53.6482 24.8204 54.3031 25.2629 55.0688C25.6389 55.7506 26.1458 56.3514 26.7546 56.8368C27.3633 57.3222 28.0619 57.6826 28.8103 57.8973C29.5587 58.112 30.3422 58.1769 31.1157 58.0881C31.8892 57.9993 32.6375 57.7587 33.3178 57.3799C33.4245 55.982 34.0271 54.6681 35.0172 53.6754C28.8655 52.9786 22.408 50.5995 22.408 40.0805C22.3657 37.3326 23.3818 34.6737 25.2459 32.6543C24.4157 30.2651 24.5127 27.6512 25.5178 25.3301C25.5178 25.3301 27.8459 24.5824 33.1309 28.1681C37.6691 26.922 42.4593 26.922 46.9976 28.1681C52.2826 24.5824 54.5937 25.3301 54.5937 25.3301C55.6128 27.6267 55.7341 30.2218 54.9336 32.6034C56.7976 34.6228 57.8137 37.2817 57.7715 40.0295C57.7715 50.6675 51.297 52.9956 45.1283 53.6244C45.7898 54.2893 46.3005 55.0886 46.626 55.9682C46.9514 56.8478 47.084 57.7871 47.0146 58.7224C47.0146 62.427 47.0146 65.4179 47.0146 66.3186C47.0146 67.2192 47.5074 67.9159 48.9179 67.644C55.09 65.5163 60.3115 61.2757 63.66 55.6712C67.0085 50.0667 68.2684 43.4591 67.2172 37.0157C66.166 30.5723 62.8714 24.7078 57.9152 20.4581C52.9591 16.2085 46.6606 13.8472 40.1322 13.7915Z" fill="#191717"/>
</svg>
