<svg width="80" height="81" viewBox="0 0 80 81" fill="none" xmlns="http://www.w3.org/2000/svg">
<path d="M22.5634 10.7915C29.5019 10.7915 35.1269 16.4147 35.1269 23.3518C35.1269 30.1698 29.6919 35.715 22.9176 35.9031C22.9176 36.48 22.943 37.5699 23.2695 38.2279C23.7224 39.1407 26.4392 40.84 29.1035 40.84H30.0607C30.6622 36.5577 34.3396 33.2622 38.7887 33.2622C43.2199 33.2622 46.8864 36.5309 47.5101 40.7879H52.4622C53.0861 36.5309 56.7525 33.2622 61.1836 33.2622C66.0527 33.2622 69.9999 37.2083 69.9999 42.0763C69.9999 46.9441 66.0527 50.8902 61.1836 50.8902C56.7525 50.8902 53.0859 47.6213 52.4622 43.3643H47.5103C46.8867 47.6213 43.2201 50.8902 38.7887 50.8902C34.366 50.8902 30.7043 47.634 30.0703 43.3886L29.012 43.4201C27.2695 43.4071 25.4285 42.9417 23.9499 41.9371C23.5468 41.6632 23.1497 41.3753 22.7355 41.1026L22.7353 41.6749C22.7331 41.86 22.6997 44.6414 22.697 47.7296L22.6969 48.3835C22.6982 50.4087 22.7142 52.4955 22.7619 54.0176C22.8665 57.3567 25.5825 60.0517 28.5797 60.6825C28.9693 60.7643 29.6391 60.7748 30.0611 60.7383C30.6637 56.4575 34.3406 53.1633 38.7887 53.1633C43.6577 53.1633 47.605 57.1096 47.605 61.9774C47.605 66.8452 43.6577 70.7915 38.7887 70.7915C34.3898 70.7915 30.7443 67.5703 30.0811 63.3586H29.3185C23.5913 63.046 20.0306 57.793 20.0926 53.5328C20.171 48.1709 20.1119 42.8069 20.1111 37.4438V35.671C14.3467 34.5305 10 29.4492 10 23.3518C10 16.4147 15.6248 10.7915 22.5634 10.7915ZM38.7887 55.7398C35.3431 55.7398 32.5497 58.5324 32.5497 61.9774C32.5497 65.4224 35.3431 68.215 38.7887 68.215C42.2345 68.215 45.0279 65.4224 45.0279 61.9774C45.0279 58.5324 42.2345 55.7398 38.7887 55.7398ZM38.7887 35.8387C35.3431 35.8387 32.5497 38.6313 32.5497 42.0763C32.5497 45.521 35.3431 48.3137 38.7887 48.3137C42.2345 48.3137 45.0279 45.521 45.0279 42.0763C45.0279 38.6313 42.2345 35.8387 38.7887 35.8387ZM61.1836 35.8387C57.7378 35.8387 54.9446 38.6313 54.9446 42.0763C54.9446 45.521 57.7378 48.3137 61.1836 48.3137C64.6294 48.3137 67.4228 45.521 67.4228 42.0763C67.4228 38.6313 64.6294 35.8387 61.1836 35.8387ZM64.7369 39.45C65.2278 39.9398 65.2414 40.7267 64.7768 41.2325L64.7392 41.272L60.9167 45.1028C60.4297 45.5911 59.6477 45.6074 59.1409 45.1492L59.1005 45.111L57.2291 43.2688C56.7221 42.7696 56.7156 41.9539 57.2149 41.447C57.7016 40.953 58.4885 40.9343 58.9977 41.3955L59.0372 41.4331L59.9963 42.3769L62.9146 39.4524C63.4172 38.9485 64.2331 38.9476 64.7369 39.45ZM42.2393 39.4312C42.7302 39.9209 42.7437 40.7078 42.2792 41.2139L42.2416 41.2532L38.4191 45.0839C37.932 45.5722 37.1501 45.5885 36.6433 45.1303L36.6029 45.0921L34.7315 43.2499C34.2244 42.7507 34.218 41.9351 34.7173 41.4282C35.2037 40.9341 35.9908 40.9154 36.5 41.3768L36.5395 41.4142L37.4987 42.358L40.417 39.4335C40.9196 38.9298 41.7354 38.9288 42.2393 39.4312ZM22.5634 13.368C17.0482 13.368 12.5771 17.8377 12.5771 23.3518C12.5771 28.8657 17.0482 33.3356 22.5634 33.3356C28.0787 33.3356 32.5497 28.8657 32.5497 23.3518C32.5497 17.8377 28.0787 13.368 22.5634 13.368ZM21.5244 17.3846C23.6254 18.6468 25.698 19.9524 27.7425 21.3012C29.4552 22.431 29.4509 24.48 27.7191 25.6123C25.6381 26.974 23.524 28.2796 21.3772 29.5292C19.63 30.5463 17.6742 29.3767 17.6267 27.3392C17.5962 26.026 17.6211 24.7116 17.6194 23.3976C17.6179 22.1193 17.5928 20.8403 17.6237 19.5625C17.6759 17.3951 19.6712 16.2657 21.5244 17.3846ZM20.1394 19.4638V20.3705C20.1392 20.8194 20.1392 21.2624 20.1389 21.7004L20.1387 22.5699V23.8545C20.1389 24.846 20.1394 25.8219 20.1411 26.7977C20.142 27.257 20.381 27.2383 20.6902 27.0468C22.4727 25.9419 24.2561 24.8383 26.0403 23.7358C26.3352 23.5539 26.3436 23.3639 26.0543 23.1814C24.1434 21.9771 22.2298 20.7769 20.1394 19.4638Z" fill="#4A7EBF"/>
<path d="M41.2251 63.2631C41.9366 63.2631 42.5137 62.6864 42.5137 61.9749C42.5137 61.2636 41.9366 60.6867 41.2251 60.6867C40.5136 60.6867 39.9366 61.2636 39.9366 61.9749C39.9366 62.6864 40.5136 63.2631 41.2251 63.2631Z" fill="#85B3DF"/>
<path d="M36.2919 63.2631C37.0034 63.2631 37.5805 62.6864 37.5805 61.9749C37.5805 61.2636 37.0034 60.6867 36.2919 60.6867C35.5804 60.6867 35.0034 61.2636 35.0034 61.9749C35.0034 62.6864 35.5804 63.2631 36.2919 63.2631Z" fill="#85B3DF"/>
<path d="M61.1837 68.215C57.7379 68.215 54.9447 65.4223 54.9447 61.9774C54.9447 58.5324 57.7379 55.7397 61.1837 55.7397C64.6293 55.7397 67.4229 58.5324 67.4229 61.9774C67.4229 65.4223 64.6293 68.215 61.1837 68.215ZM61.1837 53.1633C56.7526 53.1633 53.086 56.4322 52.4623 60.6891H51.0204C50.3909 60.6891 49.8802 61.2661 49.8802 61.9774C49.8802 62.6889 50.3909 63.2656 51.0204 63.2656H52.4623C53.086 67.5226 56.7526 70.7915 61.1837 70.7915C66.0527 70.7915 70 66.8452 70 61.9774C70 57.1096 66.0527 53.1633 61.1837 53.1633Z" fill="#85B3DF"/>
</svg>
