<svg width="40" height="41" viewBox="0 0 40 41" fill="none" xmlns="http://www.w3.org/2000/svg">
<path fill-rule="evenodd" clip-rule="evenodd" d="M4.99998 4.12488C4.07951 4.12488 3.33331 4.87107 3.33331 5.79154V17.4582C3.33331 18.3787 4.07951 19.1249 4.99998 19.1249H16.6666C17.5871 19.1249 18.3333 18.3787 18.3333 17.4582V5.79154C18.3333 4.87107 17.5871 4.12488 16.6666 4.12488H4.99998ZM6.66665 15.7915V7.45821H15V15.7915H6.66665Z" fill="#FF8B8B"/>
<path fill-rule="evenodd" clip-rule="evenodd" d="M23.3333 4.12488C22.4128 4.12488 21.6666 4.87107 21.6666 5.79154V17.4582C21.6666 18.3787 22.4128 19.1249 23.3333 19.1249H35C35.9205 19.1249 36.6666 18.3787 36.6666 17.4582V5.79154C36.6666 4.87107 35.9205 4.12488 35 4.12488H23.3333ZM25 15.7915V7.45821H33.3333V15.7915H25Z" fill="#FF8B8B"/>
<path fill-rule="evenodd" clip-rule="evenodd" d="M21.6666 24.1249C21.6666 23.2044 22.4128 22.4582 23.3333 22.4582H35C35.9205 22.4582 36.6666 23.2044 36.6666 24.1249V35.7915C36.6666 36.712 35.9205 37.4582 35 37.4582H23.3333C22.4128 37.4582 21.6666 36.712 21.6666 35.7915V24.1249ZM25 25.7915V34.1249H33.3333V25.7915H25Z" fill="#FF8B8B"/>
<path fill-rule="evenodd" clip-rule="evenodd" d="M4.99998 22.4582C4.07951 22.4582 3.33331 23.2044 3.33331 24.1249V35.7915C3.33331 36.712 4.07951 37.4582 4.99998 37.4582H16.6666C17.5871 37.4582 18.3333 36.712 18.3333 35.7915V24.1249C18.3333 23.2044 17.5871 22.4582 16.6666 22.4582H4.99998ZM6.66665 34.1249V25.7915H15V34.1249H6.66665Z" fill="#FF8B8B"/>
</svg>
