<svg width="40" height="41" viewBox="0 0 40 41" fill="none" xmlns="http://www.w3.org/2000/svg">
<g clip-path="url(#clip0_1186_1544)">
<path d="M38.4281 25.8739L35.504 23.3738C35.6424 22.5256 35.7138 21.6596 35.7138 20.7935C35.7138 19.9274 35.6424 19.0613 35.504 18.2131L38.4281 15.7131C38.6486 15.5243 38.8065 15.2728 38.8807 14.9921C38.9548 14.7114 38.9418 14.4148 38.8433 14.1417L38.8031 14.0256C37.9981 11.7758 36.7927 9.69008 35.2451 7.86938L35.1647 7.77563C34.977 7.55488 34.7267 7.3962 34.447 7.32049C34.1673 7.24478 33.8712 7.2556 33.5977 7.35153L29.9683 8.64171C28.629 7.54349 27.1334 6.67742 25.5174 6.07028L24.8165 2.27563C24.7636 1.99011 24.6251 1.72743 24.4194 1.5225C24.2136 1.31757 23.9504 1.18008 23.6647 1.12831L23.5442 1.10599C21.2183 0.686349 18.7718 0.686349 16.4459 1.10599L16.3254 1.12831C16.0397 1.18008 15.7765 1.31757 15.5707 1.5225C15.365 1.72743 15.2265 1.99011 15.1736 2.27563L14.4683 6.08813C12.8651 6.6954 11.3721 7.56102 10.0486 8.65063L6.39238 7.35153C6.11901 7.25484 5.82269 7.24363 5.5428 7.31938C5.26291 7.39514 5.0127 7.55427 4.82541 7.77563L4.74506 7.86938C3.19928 9.69137 1.99406 11.7767 1.18702 14.0256L1.14684 14.1417C0.945949 14.6997 1.11113 15.3247 1.56202 15.7131L4.52184 18.2399C4.38345 19.0792 4.31648 19.9363 4.31648 20.789C4.31648 21.6462 4.38345 22.5033 4.52184 23.3381L1.56202 25.8649C1.34147 26.0537 1.18361 26.3052 1.10945 26.5859C1.03529 26.8666 1.04833 27.1632 1.14684 27.4364L1.18702 27.5524C1.99506 29.8024 3.19149 31.8783 4.74506 33.7087L4.82541 33.8024C5.01316 34.0232 5.26338 34.1819 5.5431 34.2576C5.82283 34.3333 6.11893 34.3225 6.39238 34.2265L10.0486 32.9274C11.379 34.0212 12.8656 34.8872 14.4683 35.4899L15.1736 39.3024C15.2265 39.5879 15.365 39.8506 15.5707 40.0556C15.7765 40.2605 16.0397 40.398 16.3254 40.4497L16.4459 40.4721C18.7932 40.894 21.1969 40.894 23.5442 40.4721L23.6647 40.4497C23.9504 40.398 24.2136 40.2605 24.4194 40.0556C24.6251 39.8506 24.7636 39.5879 24.8165 39.3024L25.5174 35.5078C27.1328 34.9022 28.6368 34.0333 29.9683 32.9364L33.5977 34.2265C33.8711 34.3232 34.1674 34.3344 34.4473 34.2587C34.7272 34.1829 34.9774 34.0238 35.1647 33.8024L35.2451 33.7087C36.7986 31.8739 37.9951 29.8024 38.8031 27.5524L38.8433 27.4364C39.0442 26.8872 38.879 26.2622 38.4281 25.8739ZM32.3343 18.7399C32.4459 19.414 32.504 20.106 32.504 20.798C32.504 21.4899 32.4459 22.1819 32.3343 22.856L32.0397 24.6462L35.3745 27.4988C34.869 28.6635 34.2308 29.7661 33.4727 30.7846L29.3299 29.3158L27.9281 30.4676C26.8611 31.3426 25.6736 32.0301 24.3879 32.5122L22.687 33.1506L21.8879 37.481C20.6271 37.6239 19.3541 37.6239 18.0933 37.481L17.2942 33.1417L15.6067 32.4944C14.3343 32.0122 13.1513 31.3247 12.0933 30.4542L10.6915 29.298L6.52184 30.7801C5.76291 29.7578 5.12898 28.6551 4.62006 27.4944L7.99059 24.6149L7.70041 22.8292C7.59327 22.164 7.53524 21.4765 7.53524 20.798C7.53524 20.1149 7.58881 19.4319 7.70041 18.7667L7.99059 16.981L4.62006 14.1015C5.12452 12.9363 5.76291 11.8381 6.52184 10.8158L10.6915 12.298L12.0933 11.1417C13.1513 10.2712 14.3343 9.58367 15.6067 9.10153L17.2986 8.46313L18.0977 4.12385C19.3522 3.98099 20.6335 3.98099 21.8924 4.12385L22.6915 8.45421L24.3924 9.0926C25.6736 9.57474 26.8656 10.2622 27.9326 11.1372L29.3343 12.289L33.4772 10.8203C34.2361 11.8426 34.8701 12.9453 35.379 14.106L32.0442 16.9587L32.3343 18.7399ZM19.9995 12.4944C15.6602 12.4944 12.1424 16.0122 12.1424 20.3515C12.1424 24.6908 15.6602 28.2087 19.9995 28.2087C24.3388 28.2087 27.8567 24.6908 27.8567 20.3515C27.8567 16.0122 24.3388 12.4944 19.9995 12.4944ZM23.5352 23.8872C23.0715 24.3523 22.5204 24.7211 21.9136 24.9724C21.3068 25.2237 20.6563 25.3526 19.9995 25.3515C18.6647 25.3515 17.4102 24.8292 16.4638 23.8872C15.9987 23.4235 15.6299 22.8724 15.3786 22.2656C15.1273 21.6588 14.9985 21.0083 14.9995 20.3515C14.9995 19.0167 15.5218 17.7622 16.4638 16.8158C17.4102 15.8694 18.6647 15.3515 19.9995 15.3515C21.3343 15.3515 22.5888 15.8694 23.5352 16.8158C24.0003 17.2796 24.3691 17.8307 24.6204 18.4375C24.8717 19.0443 25.0005 19.6948 24.9995 20.3515C24.9995 21.6863 24.4772 22.9408 23.5352 23.8872Z" fill="#FF8B8B"/>
</g>
<defs>
<clipPath id="clip0_1186_1544">
<rect width="40" height="40" fill="white" transform="translate(0 0.791504)"/>
</clipPath>
</defs>
</svg>
