<svg width="80" height="81" viewBox="0 0 80 81" fill="none" xmlns="http://www.w3.org/2000/svg">
<path d="M3.8166 31.2287C3.44515 31.5234 3.18112 31.9322 3.06533 32.392C2.94953 32.8518 2.98843 33.3369 3.176 33.7723L11.4756 54.7897C11.7822 55.0498 12.1408 55.2415 12.5275 55.352C12.9141 55.4625 13.3199 55.4892 13.7177 55.4303C15.2438 55.3267 24.6644 52.8773 24.6644 52.8773C24.6644 52.8773 25.7666 52.4063 25.9456 51.6055C26.1246 50.8048 24.3441 27.404 24.3441 27.404C24.3441 27.404 24.3441 25.9909 23.4021 26.1322C22.46 26.2735 3.8166 31.2287 3.8166 31.2287Z" fill="#E84441"/>
<path d="M42.2341 33.3766C42.2341 33.3766 38.9934 32.7078 38.381 33.3766C37.6225 34.2725 37.1731 35.3892 37.0998 36.5608C37.0339 37.842 34.999 48.8076 36.4592 50.2489C37.2788 51.0403 47.3118 55.0064 49.6481 55.3455C51.9844 55.6846 52.5308 55.0252 52.5308 55.0252L60.5477 37.5123C60.5477 37.5123 61.0376 35.8637 60.2274 35.9202C59.4173 35.9767 42.2341 33.3766 42.2341 33.3766Z" fill="#9680B9"/>
<path d="M28.3292 31.4737C27.3852 31.3522 26.4276 31.5477 25.6067 32.0295C25.0272 32.6921 24.5995 33.4734 24.3537 34.3187C23.5436 37.1449 21.7913 43.5509 21.7913 43.5509C21.7913 43.5509 21.2732 45.2937 22.4319 46.0945C23.5907 46.8952 39.1064 49.9192 39.1064 49.9192C39.3559 50.0408 39.6297 50.104 39.9072 50.104C40.1847 50.104 40.4585 50.0408 40.7079 49.9192C41.3391 49.467 40.2934 35.939 40.0956 34.1585C40.0593 33.5123 39.9193 32.8762 39.6811 32.2744C39.3985 31.6998 38.0325 31.4548 37.8441 31.4642L28.3292 31.4737Z" fill="#379139"/>
<path d="M58.3335 29.241C58.1828 29.1374 56.1008 28.8548 55.7711 29.5613C55.4414 30.2678 56.0914 52.5005 56.0914 52.5005C56.0914 52.5005 56.6378 54.102 57.3726 54.3846C58.1074 54.6672 69.2332 55.3267 69.2332 55.3267C69.2332 55.3267 70.1752 55.6658 70.5238 55.0064C70.8724 54.3469 76.9298 32.3969 76.9298 32.3969C76.9298 32.3969 77.382 30.5128 75.9878 30.5128C74.5935 30.5128 58.4937 29.3446 58.3335 29.241Z" fill="#F1931D"/>
<path d="M22.8461 29.4766L4.88098 34.6014L5.82304 39.3117L12.0689 37.3239L15.5357 52.0107L21.2729 50.6164L17.8061 35.8449L23.807 34.2528L22.8461 29.4766ZM69.0071 34.2528L68.5832 37.9269L68.0462 37.7573C68.0462 37.7573 64.2309 36.9 62.6011 37.4276C61.5287 37.8114 60.5628 38.4447 59.7832 39.2751C59.0035 40.1055 58.4324 41.1093 58.1169 42.2038C57.2784 45.2278 57.9002 48.9207 61.3199 49.5331C63.2007 49.9297 65.1621 49.5927 66.8027 48.591L66.2563 50.3715H70.7593L73.821 34.6014L69.0165 34.2811L69.0071 34.2528ZM66.9534 44.4082C66.6673 44.983 66.2077 45.4532 65.6396 45.7524C65.0716 46.0516 64.4239 46.1647 63.7881 46.0757C62.6765 45.8779 62.2525 43.7865 63.1381 42.3074C64.0236 40.8284 66.2469 40.1972 67.1512 40.8284C68.0556 41.4596 67.7447 43.014 66.9534 44.4082ZM50.7405 35.5434C48.792 35.3479 46.8241 35.5662 44.9657 36.184C43.9816 36.4221 43.0177 36.7371 42.083 37.1261L43.3642 52.0955L47.5281 51.7752L46.8875 45.7271C47.8651 46.2992 48.9682 46.6227 50.0999 46.6692C51.7485 46.6692 53.8682 45.7271 54.2638 44.1256C54.7248 42.5643 54.8342 40.9203 54.5841 39.3117C54.2733 38.1812 52.7754 35.6282 50.7405 35.5434ZM48.9789 43.8242C48.0368 44.0032 46.5484 42.5806 46.473 41.1581C46.3976 39.7356 46.7933 39.0385 47.7448 38.7747C49.1108 38.4073 50.2036 39.5001 50.4768 40.9132C50.75 42.3263 49.9492 43.6358 48.9789 43.8053V43.8242ZM36.9676 34.5072C35.1683 33.4144 36.0255 33.8006 33.4254 33.6216C31.5022 33.5079 29.5739 33.5079 27.6506 33.6216L26.7085 36.4478C26.7085 36.4478 32.05 36.0898 32.4834 36.4478C32.9167 36.8058 33.303 36.9 33.124 37.3899C33.0592 37.6219 32.9504 37.8394 32.8037 38.0305C32.8037 38.0305 30.4109 38.3037 28.3101 38.6617C26.2093 39.0196 24.5418 40.0371 24.1461 41.535C23.7505 43.0328 24.099 45.1902 25.7476 45.6706C27.3298 45.9751 28.9436 46.0826 30.5522 45.9909L31.4189 44.0503C31.4189 44.0503 28.913 44.1256 28.9507 43.1082C28.9507 42.5712 29.0637 41.94 30.8348 41.5161C32.6059 41.0922 33.0109 41.2523 33.0109 41.2523L32.0029 46.3489L36.6002 46.9235L38.2017 38.0116C38.2017 38.0116 38.7952 35.6094 36.9676 34.5072Z" fill="white"/>
</svg>
