<svg width="80" height="81" viewBox="0 0 80 81" fill="none" xmlns="http://www.w3.org/2000/svg">
<path d="M16.6227 18.3113C16.3889 18.3083 16.1573 18.3565 15.9441 18.4525C15.7309 18.5485 15.5413 18.6901 15.3886 18.8672C15.236 19.0442 15.1239 19.2526 15.0603 19.4776C14.9968 19.7026 14.9832 19.9388 15.0207 20.1696L21.8212 61.4534C21.9059 61.9586 22.166 62.4178 22.5556 62.7503C22.9453 63.0829 23.4396 63.2675 23.9519 63.2717H56.5768C56.9608 63.2766 57.3338 63.1435 57.6278 62.8965C57.9219 62.6495 58.1174 62.3051 58.1788 61.926L64.9793 20.1776C65.0168 19.9468 65.0032 19.7106 64.9397 19.4856C64.8761 19.2606 64.764 19.0523 64.6114 18.8752C64.4587 18.6981 64.2691 18.5565 64.0559 18.4605C63.8427 18.3645 63.6111 18.3163 63.3773 18.3193L16.6227 18.3113ZM45.2586 48.1487H34.8455L32.026 33.4182H47.7818L45.2586 48.1487Z" fill="#2684FF"/>
<path d="M62.8166 33.4182H47.7818L45.2586 48.1487H34.8455L22.5501 62.743C22.9398 63.08 23.4367 63.2674 23.9519 63.2717H56.5848C56.9688 63.2766 57.3418 63.1435 57.6358 62.8965C57.9299 62.6495 58.1254 62.3051 58.1868 61.926L62.8166 33.4182Z" fill="url(#paint0_linear_1170_3721)"/>
<defs>
<linearGradient id="paint0_linear_1170_3721" x1="66.293" y1="37.5434" x2="41.4458" y2="56.9357" gradientUnits="userSpaceOnUse">
<stop offset="0.18" stop-color="#0052CC"/>
<stop offset="1" stop-color="#2684FF"/>
</linearGradient>
</defs>
</svg>
