<svg width="383" height="289" viewBox="0 0 383 289" fill="none" xmlns="http://www.w3.org/2000/svg">
<g clip-path="url(#clip0_1074_4037)">
<path opacity="0.18" d="M77.2072 33.2884C87.8757 15.4287 111.057 9.49373 131.86 9.4998C152.663 9.50587 173.733 13.7842 194.081 9.4998C203.469 7.50932 212.529 3.72257 222.105 3.21888C242.447 2.14475 260.276 15.7564 276.042 28.6399L304.88 52.2161C316.562 61.768 328.547 71.684 335.629 85.0165C341.804 96.7493 343.734 110.256 341.091 123.248C337.765 139.342 327.467 154.58 330.04 170.813C331.333 178.969 335.787 186.227 338.682 193.965C341.592 201.743 342.926 210.023 342.606 218.323C342.285 226.622 340.317 234.774 336.815 242.306C333.314 249.837 328.349 256.596 322.21 262.19C316.071 267.784 308.88 272.1 301.057 274.888C279.307 282.632 255.403 277.874 232.531 274.743C188.953 268.771 144.798 269.051 100.893 266.484C93.2767 266.041 85.1752 265.324 79.1491 260.646C70.4772 253.91 69.13 241.512 68.8812 230.528C68.2197 201.581 70.3134 172.634 73.202 143.82C75.326 122.666 74.0698 106.463 67.4308 86.5883C62.7884 72.6731 69.4395 46.2872 77.2072 33.2884Z" fill="#7497F7"/>
<path d="M166.645 44.8672L169.194 49.2972L187.054 41.3474L188.874 44.1693C188.874 44.1693 170.329 62.6297 169.218 62.3748C168.108 62.12 160.838 49.2183 160.838 49.2183L166.645 44.8672Z" fill="url(#paint0_linear_1074_4037)"/>
<path d="M160.067 27.9299L168.095 43.6535L161.092 49.807L160.067 27.9299Z" fill="#7497F7"/>
<path opacity="0.69" d="M160.067 27.9299L168.095 43.6535L161.092 49.807L160.067 27.9299Z" fill="url(#paint1_linear_1074_4037)"/>
<path d="M175.675 57.5565L180.008 27.9299L197.328 27.6993L191.629 57.7871L175.675 57.5565Z" fill="#FF8B8B"/>
<path d="M224.46 159.386H229.551V122.72C229.551 120.306 230.51 117.991 232.218 116.284C233.925 114.577 236.24 113.617 238.654 113.617H262.412V108.526H238.63C234.873 108.529 231.271 110.023 228.614 112.68C225.957 115.337 224.463 118.939 224.46 122.696V159.386Z" fill="#7497F7"/>
<path d="M224.575 159.386H229.667V122.72C229.667 120.306 230.626 117.991 232.333 116.284C234.04 114.577 236.355 113.617 238.77 113.617H262.534V108.526H238.739C234.983 108.531 231.382 110.025 228.727 112.682C226.072 115.339 224.578 118.94 224.575 122.696V159.386Z" fill="url(#paint2_linear_1074_4037)"/>
<path d="M162.288 81.697H71.3693C59.7897 81.697 50.4025 91.0841 50.4025 102.664V228.07C50.4025 239.649 59.7897 249.037 71.3693 249.037H162.288C173.868 249.037 183.255 239.649 183.255 228.07V102.664C183.255 91.0841 173.868 81.697 162.288 81.697Z" fill="url(#paint3_linear_1074_4037)"/>
<path d="M176.33 230.867C176.332 230.194 176.6 229.548 177.077 229.071C177.553 228.595 178.199 228.326 178.873 228.325H201.284C203.693 228.317 206.001 227.354 207.701 225.648C209.402 223.942 210.357 221.631 210.357 219.222V195.488H215.454V219.246C215.454 221.107 215.088 222.95 214.376 224.669C213.663 226.388 212.62 227.95 211.304 229.266C209.988 230.582 208.426 231.625 206.707 232.338C204.988 233.05 203.145 233.416 201.284 233.416H178.903C178.567 233.419 178.233 233.356 177.921 233.229C177.609 233.103 177.325 232.915 177.086 232.678C176.846 232.441 176.656 232.159 176.527 231.848C176.397 231.538 176.33 231.204 176.33 230.867Z" fill="#7497F7"/>
<path d="M271.327 238.896V233.805H234.661C232.247 233.805 229.932 232.846 228.225 231.138C226.517 229.431 225.558 227.116 225.558 224.702V200.968H220.467V224.726C220.47 228.483 221.964 232.086 224.621 234.742C227.277 237.399 230.88 238.893 234.637 238.896H271.327Z" fill="#7497F7"/>
<path d="M176.33 230.867C176.332 230.194 176.6 229.548 177.077 229.071C177.553 228.595 178.199 228.326 178.873 228.325H201.284C203.693 228.317 206.001 227.354 207.701 225.648C209.402 223.942 210.357 221.631 210.357 219.222V195.488H215.454V219.246C215.454 221.107 215.088 222.95 214.376 224.669C213.663 226.388 212.62 227.95 211.304 229.266C209.988 230.582 208.426 231.625 206.707 232.338C204.988 233.05 203.145 233.416 201.284 233.416H178.903C178.567 233.419 178.233 233.356 177.921 233.229C177.609 233.103 177.325 232.915 177.086 232.678C176.846 232.441 176.656 232.159 176.527 231.848C176.397 231.538 176.33 231.204 176.33 230.867Z" fill="url(#paint4_linear_1074_4037)"/>
<path d="M271.327 238.896V233.805H234.661C232.247 233.805 229.932 232.846 228.225 231.138C226.517 229.431 225.558 227.116 225.558 224.702V200.968H220.467V224.726C220.47 228.483 221.964 232.086 224.621 234.742C227.277 237.399 230.88 238.893 234.637 238.896H271.327Z" fill="url(#paint5_linear_1074_4037)"/>
<path d="M346.54 280.192C346.543 281.325 346.322 282.447 345.89 283.493C345.458 284.54 344.825 285.492 344.025 286.293C343.225 287.095 342.275 287.731 341.229 288.165C340.183 288.599 339.062 288.822 337.929 288.822H52.9696C50.8387 288.815 48.786 288.019 47.2082 286.587C45.6305 285.154 44.6398 283.188 44.4277 281.068C44.2156 278.948 44.7971 276.824 46.0599 275.108C47.3227 273.391 49.177 272.204 51.2643 271.775C51.8258 271.663 52.397 271.606 52.9696 271.605H337.929C340.209 271.605 342.395 272.509 344.01 274.119C345.624 275.729 346.534 277.913 346.54 280.192Z" fill="#7497F7"/>
<path d="M165.808 238.113H55.84V275.404H165.808V238.113Z" fill="#7497F7"/>
<path d="M165.808 238.113H55.84V265.452H165.808V238.113Z" fill="url(#paint6_linear_1074_4037)"/>
<path d="M147.463 81.697H56.5439C44.9643 81.697 35.5771 91.0841 35.5771 102.664V228.076C35.5771 239.655 44.9643 249.043 56.5439 249.043H147.463C159.042 249.043 168.429 239.655 168.429 228.076V102.664C168.429 91.0841 159.042 81.697 147.463 81.697Z" fill="#7497F7"/>
<path d="M168.429 180.76V228.094C168.428 233.654 166.218 238.986 162.286 242.918C158.355 246.85 153.023 249.059 147.463 249.061H56.5439C53.7892 249.06 51.0616 248.517 48.517 247.461C45.9724 246.406 43.6605 244.86 41.7135 242.912C39.7665 240.963 38.2224 238.65 37.1695 236.104C36.1167 233.559 35.5756 230.831 35.5772 228.076V180.741C35.5772 175.181 37.7861 169.848 41.7182 165.916C45.6502 161.984 50.9832 159.775 56.5439 159.775H147.463C150.217 159.775 152.945 160.318 155.49 161.372C158.035 162.427 160.348 163.973 162.295 165.922C164.242 167.871 165.786 170.184 166.839 172.73C167.891 175.276 168.432 178.005 168.429 180.76Z" fill="url(#paint7_linear_1074_4037)"/>
<path d="M249.183 152.596H194.336V204.33H249.183V152.596Z" fill="#435276"/>
<path d="M248.971 145.253H195.483C192.44 145.253 189.973 147.72 189.973 150.763V160.181C189.973 163.224 192.44 165.691 195.483 165.691H248.971C252.014 165.691 254.481 163.224 254.481 160.181V150.763C254.481 147.72 252.014 145.253 248.971 145.253Z" fill="#7497F7"/>
<path d="M248.971 168.884H195.483C192.44 168.884 189.973 171.351 189.973 174.394V183.812C189.973 186.855 192.44 189.322 195.483 189.322H248.971C252.014 189.322 254.481 186.855 254.481 183.812V174.394C254.481 171.351 252.014 168.884 248.971 168.884Z" fill="#7497F7"/>
<path d="M248.971 192.514H195.483C192.44 192.514 189.973 194.981 189.973 198.025V207.443C189.973 210.486 192.44 212.953 195.483 212.953H248.971C252.014 212.953 254.481 210.486 254.481 207.443V198.025C254.481 194.981 252.014 192.514 248.971 192.514Z" fill="#7497F7"/>
<path d="M219.993 145.362H214.902V108.696C214.902 106.282 213.943 103.966 212.236 102.259C210.529 100.552 208.213 99.5931 205.799 99.5931H178.558C177.882 99.5931 177.233 99.3245 176.755 98.8466C176.277 98.3686 176.009 97.7203 176.009 97.0443C176.01 96.3694 176.28 95.7226 176.758 95.246C177.235 94.7693 177.883 94.5016 178.558 94.5016H205.823C207.685 94.5008 209.528 94.8668 211.247 95.5786C212.967 96.2904 214.529 97.3341 215.845 98.6501C217.161 99.9661 218.205 101.528 218.917 103.248C219.628 104.968 219.994 106.811 219.993 108.672V145.362Z" fill="#7497F7"/>
<path d="M219.993 145.362H214.902V108.696C214.902 106.282 213.943 103.966 212.236 102.259C210.529 100.552 208.213 99.5931 205.799 99.5931H178.558C177.882 99.5931 177.233 99.3245 176.755 98.8466C176.277 98.3686 176.009 97.7203 176.009 97.0443C176.01 96.3694 176.28 95.7226 176.758 95.246C177.235 94.7693 177.883 94.5016 178.558 94.5016H205.823C207.685 94.5008 209.528 94.8668 211.247 95.5786C212.967 96.2904 214.529 97.3341 215.845 98.6501C217.161 99.9661 218.205 101.528 218.917 103.248C219.628 104.968 219.994 106.811 219.993 108.672V145.362Z" fill="url(#paint8_linear_1074_4037)"/>
<path d="M245.178 157.25C246.374 157.25 247.344 156.28 247.344 155.084C247.344 153.887 246.374 152.917 245.178 152.917C243.981 152.917 243.011 153.887 243.011 155.084C243.011 156.28 243.981 157.25 245.178 157.25Z" fill="url(#paint9_linear_1074_4037)"/>
<path d="M239.741 157.25C240.937 157.25 241.907 156.28 241.907 155.084C241.907 153.887 240.937 152.917 239.741 152.917C238.544 152.917 237.574 153.887 237.574 155.084C237.574 156.28 238.544 157.25 239.741 157.25Z" fill="url(#paint10_linear_1074_4037)"/>
<path d="M234.37 157.25C235.566 157.25 236.536 156.28 236.536 155.084C236.536 153.887 235.566 152.917 234.37 152.917C233.173 152.917 232.203 153.887 232.203 155.084C232.203 156.28 233.173 157.25 234.37 157.25Z" fill="url(#paint11_linear_1074_4037)"/>
<path d="M223.622 56.4277H325.659C326.977 56.4285 328.283 56.1694 329.502 55.6654C330.72 55.1613 331.827 54.4221 332.76 53.49C333.693 52.5578 334.433 51.451 334.937 50.2329C335.442 49.0147 335.702 47.709 335.702 46.3903C335.702 40.8103 333.485 35.4588 329.54 31.5131C325.594 27.5674 320.243 25.3508 314.662 25.3508H306.057C306.057 19.7723 303.841 14.4224 299.897 10.4778C295.952 6.53328 290.602 4.31726 285.024 4.31726H271.145C268.382 4.31646 265.647 4.85992 263.094 5.9166C260.541 6.97328 258.222 8.52247 256.268 10.4757C254.314 12.4289 252.765 14.7479 251.707 17.3002C250.65 19.8525 250.106 22.5881 250.106 25.3508V29.6533H238.375C232.926 29.6546 227.69 31.7697 223.769 35.5536C219.849 39.3375 217.549 44.495 217.354 49.9404C217.324 50.7821 217.463 51.6212 217.765 52.4075C218.067 53.1938 218.524 53.9113 219.109 54.5169C219.694 55.1225 220.395 55.6039 221.171 55.9322C221.947 56.2605 222.78 56.429 223.622 56.4277Z" fill="#7497F7"/>
<path d="M106.998 56.4277H45.0987C44.4502 56.4285 43.808 56.3015 43.2087 56.0539C42.6095 55.8063 42.0649 55.4431 41.6061 54.9848C41.1473 54.5266 40.7833 53.9825 40.535 53.3835C40.2867 52.7845 40.1589 52.1424 40.1589 51.494V50.4442C40.1589 47.1216 41.4771 43.9347 43.8242 41.5831C46.1714 39.2314 49.3557 37.907 52.6782 37.9005H57.8365C57.8365 34.5732 59.1578 31.3821 61.5101 29.0287C63.8623 26.6753 67.0528 25.3524 70.3801 25.3508H78.6515C80.2993 25.3508 81.9309 25.6755 83.4532 26.3062C84.9754 26.937 86.3585 27.8615 87.5234 29.0269C88.6882 30.1923 89.6121 31.5759 90.2421 33.0984C90.8721 34.621 91.196 36.2528 91.1952 37.9005V40.4615H98.1922C101.442 40.4625 104.565 41.7243 106.903 43.9812C109.242 46.2382 110.613 49.3142 110.73 52.5621C110.748 53.0633 110.664 53.563 110.485 54.0314C110.305 54.4997 110.033 54.927 109.685 55.2878C109.337 55.6487 108.919 55.9356 108.457 56.1314C107.996 56.3273 107.499 56.4281 106.998 56.4277Z" fill="#7497F7"/>
<path d="M145.891 121.774H58.5526C55.1206 121.774 52.3384 124.556 52.3384 127.988C52.3384 131.42 55.1206 134.202 58.5526 134.202H145.891C149.323 134.202 152.105 131.42 152.105 127.988C152.105 124.556 149.323 121.774 145.891 121.774Z" fill="white"/>
<path d="M116.125 124.177H59.1169C56.8781 124.177 55.0632 125.992 55.0632 128.231V128.237C55.0632 130.475 56.8781 132.29 59.1169 132.29H116.125C118.363 132.29 120.178 130.475 120.178 128.237V128.231C120.178 125.992 118.363 124.177 116.125 124.177Z" fill="#7497F7"/>
<path d="M311.938 81.697H269.713C264.337 81.697 259.979 86.055 259.979 91.4309V149.677C259.979 155.053 264.337 159.411 269.713 159.411H311.938C317.314 159.411 321.672 155.053 321.672 149.677V91.4309C321.672 86.055 317.314 81.697 311.938 81.697Z" fill="#7497F7"/>
<path d="M311.932 81.697H299.352C293.976 81.697 289.618 86.055 289.618 91.4309V149.677C289.618 155.053 293.976 159.411 299.352 159.411H311.932C317.308 159.411 321.666 155.053 321.666 149.677V91.4309C321.666 86.055 317.308 81.697 311.932 81.697Z" fill="url(#paint12_linear_1074_4037)"/>
<path d="M321.672 91.437H259.979C259.975 90.1594 260.223 88.8935 260.709 87.712C261.196 86.5305 261.91 85.4565 262.812 84.5517C263.714 83.6468 264.786 82.9289 265.966 82.439C267.146 81.9492 268.411 81.697 269.689 81.6971H311.907C313.19 81.6898 314.461 81.9367 315.647 82.4233C316.833 82.9099 317.911 83.6267 318.819 84.5322C319.727 85.4378 320.447 86.5142 320.936 87.6993C321.426 88.8844 321.676 90.1548 321.672 91.437Z" fill="url(#paint13_linear_1074_4037)"/>
<path d="M321.672 149.677C321.672 150.954 321.419 152.219 320.93 153.399C320.44 154.579 319.722 155.651 318.817 156.553C317.912 157.455 316.838 158.17 315.657 158.656C314.475 159.142 313.209 159.39 311.932 159.386H269.713C267.138 159.386 264.668 158.363 262.847 156.542C261.026 154.721 260.003 152.252 260.003 149.677H321.672Z" fill="url(#paint14_linear_1074_4037)"/>
<path d="M339.568 267.181H269.325V178.077L321.459 177.47L340.369 191.562L339.568 267.181ZM272.007 264.548H336.94L337.717 192.939L320.604 180.195L272.007 180.741V264.548Z" fill="#7497F7"/>
<path d="M339.683 193.728L323.747 193.989L320.962 178.429L339.683 193.728ZM325.98 191.301L333.79 190.87L324.876 184.619L325.98 191.301Z" fill="#7497F7"/>
<path d="M327.625 197.472H283.695C282.843 197.472 282.153 198.162 282.153 199.014V199.02C282.153 199.871 282.843 200.561 283.695 200.561H327.625C328.476 200.561 329.166 199.871 329.166 199.02V199.014C329.166 198.162 328.476 197.472 327.625 197.472Z" fill="#7497F7"/>
<path d="M327.625 207.673H283.695C282.843 207.673 282.153 208.364 282.153 209.215V209.221C282.153 210.072 282.843 210.762 283.695 210.762H327.625C328.476 210.762 329.166 210.072 329.166 209.221V209.215C329.166 208.364 328.476 207.673 327.625 207.673Z" fill="#7497F7"/>
<path d="M327.625 217.875H283.695C282.843 217.875 282.153 218.565 282.153 219.416V219.422C282.153 220.274 282.843 220.964 283.695 220.964H327.625C328.476 220.964 329.166 220.274 329.166 219.422V219.416C329.166 218.565 328.476 217.875 327.625 217.875Z" fill="#7497F7"/>
<path d="M327.625 228.07H283.695C282.843 228.07 282.153 228.76 282.153 229.611V229.617C282.153 230.469 282.843 231.159 283.695 231.159H327.625C328.476 231.159 329.166 230.469 329.166 229.617V229.611C329.166 228.76 328.476 228.07 327.625 228.07Z" fill="#7497F7"/>
<path d="M327.625 238.271H283.695C282.843 238.271 282.153 238.961 282.153 239.812V239.818C282.153 240.67 282.843 241.36 283.695 241.36H327.625C328.476 241.36 329.166 240.67 329.166 239.818V239.812C329.166 238.961 328.476 238.271 327.625 238.271Z" fill="#7497F7"/>
<path d="M327.625 248.472H283.695C282.843 248.472 282.153 249.162 282.153 250.014V250.02C282.153 250.871 282.843 251.561 283.695 251.561H327.625C328.476 251.561 329.166 250.871 329.166 250.02V250.014C329.166 249.162 328.476 248.472 327.625 248.472Z" fill="#7497F7"/>
<path d="M190.221 130.876H176.822C176.522 130.875 176.235 130.755 176.023 130.542C175.812 130.329 175.693 130.041 175.693 129.742C175.693 129.442 175.812 129.155 176.024 128.943C176.236 128.732 176.523 128.613 176.822 128.613H190.221C193 128.611 195.664 127.506 197.628 125.541C199.592 123.576 200.696 120.911 200.696 118.132V95.6122C200.696 92.3594 201.988 89.2399 204.288 86.9399C206.588 84.6398 209.707 83.3477 212.96 83.3477H239.801C242.786 83.3461 245.649 82.1596 247.759 80.0488C249.87 77.938 251.057 75.0757 251.058 72.0906V53.885H253.322V72.0906C253.32 75.676 251.895 79.1141 249.36 81.6494C246.825 84.1846 243.387 85.6096 239.801 85.6112H212.96C210.308 85.6112 207.764 86.6649 205.888 88.5405C204.013 90.416 202.959 92.9598 202.959 95.6122V118.132C202.959 121.511 201.617 124.752 199.229 127.142C196.84 129.531 193.6 130.875 190.221 130.876Z" fill="#7497F7"/>
<path d="M110.851 80.8171H113.115V79.4941C113.11 76.2493 111.819 73.1388 109.524 70.8443C107.23 68.5499 104.119 67.2588 100.874 67.2539H89.0894C86.5871 67.2491 84.1887 66.2525 82.4199 64.4826C80.6511 62.7126 79.656 60.3136 79.6528 57.8113V55.9543H77.3893V57.8113C77.3925 60.914 78.626 63.8887 80.8193 66.0831C83.0127 68.2776 85.9868 69.5127 89.0894 69.5175H100.881C103.526 69.5191 106.063 70.5707 107.933 72.4414C109.804 74.312 110.856 76.8487 110.857 79.4941L110.851 80.8171Z" fill="#7497F7"/>
<path opacity="0.25" d="M314.025 98.5068H268.602V129.104H314.025V98.5068Z" fill="white"/>
<path d="M304.146 280.362C304.152 282.348 303.471 284.275 302.219 285.817C300.967 287.359 299.221 288.42 297.276 288.822H52.9696C50.8387 288.815 48.786 288.019 47.2082 286.587C45.6305 285.154 44.6398 283.188 44.4277 281.068C44.2156 278.948 44.7971 276.824 46.0599 275.108C47.3227 273.391 49.177 272.204 51.2643 271.775H295.541C297.82 271.775 300.006 272.679 301.619 274.289C303.232 275.899 304.141 278.083 304.146 280.362Z" fill="url(#paint15_linear_1074_4037)"/>
<path d="M134.312 39.4054V73.3892H162.343V37.0994C162.343 37.0994 162.628 25.3629 156.474 25.8787C150.321 26.3945 136.928 23.6273 134.312 39.4054Z" fill="#7497F7"/>
<path opacity="0.69" d="M134.312 39.4054V73.3892H162.343V37.0994C162.343 37.0994 162.628 25.3629 156.474 25.8787C150.321 26.3945 136.928 23.6273 134.312 39.4054Z" fill="url(#paint16_linear_1074_4037)"/>
<path d="M162.343 73.3407C162.343 73.3407 180.548 73.9111 185.706 82.4435C190.865 90.9758 198.013 112.531 198.013 112.531L191.514 115.092L179.893 100.394L162.343 73.3407Z" fill="white"/>
<path d="M162.343 73.3407C162.343 73.3407 180.548 73.9111 185.706 82.4435C190.865 90.9758 198.013 112.531 198.013 112.531L191.514 115.092L179.893 100.394L162.343 73.3407Z" fill="url(#paint17_linear_1074_4037)"/>
<path d="M134.312 73.3407C134.312 73.3407 131.8 85.8783 138.414 87.9052C145.029 89.932 165.304 92.0075 165.304 92.0075L175.335 125.281L183.655 121.519C183.655 121.519 180.578 85.3928 176.476 80.8596C172.374 76.3264 162.343 73.3407 162.343 73.3407H134.312Z" fill="white"/>
<path d="M148.561 15.6169C148.851 13.8803 149.361 12.1878 150.078 10.58C150.808 9.20686 151.882 8.04662 153.194 7.21269C154.507 6.37876 156.013 5.89968 157.567 5.82228C157.943 5.79672 158.32 5.82327 158.689 5.90117C159.086 6.00298 159.463 6.16902 159.806 6.39272C160.652 6.98156 161.371 7.73288 161.924 8.60287C162.476 9.47286 162.849 10.4441 163.022 11.4599C163.352 13.4906 163.403 15.5568 163.174 17.6013C163.022 19.8345 162.616 22.4561 160.625 23.4695C159.241 24.1674 157.591 23.8094 156.092 23.3482C155.943 23.2791 155.78 23.2433 155.616 23.2433C155.451 23.2433 155.288 23.2791 155.139 23.3482C155.035 23.441 154.95 23.5537 154.889 23.6798C154.829 23.8059 154.794 23.9428 154.787 24.0825C154.447 26.255 155.145 28.5125 154.648 30.6486C154.616 30.8951 154.531 31.1316 154.397 31.3413C154.264 31.5511 154.087 31.729 153.877 31.8623C153.484 32.0011 153.056 32.0011 152.663 31.8623C150.706 31.3552 148.902 30.3782 147.408 29.0162C146.801 28.4518 145.205 27.4748 144.98 26.6737C144.756 25.8727 145.903 24.1432 146.194 23.3542C147.168 20.8353 147.959 18.2495 148.561 15.6169Z" fill="url(#paint18_linear_1074_4037)"/>
<path opacity="0.69" d="M134.603 39.4359L143.263 55.8209L152.493 48.9877C152.493 48.9877 145.648 31.917 144.313 31.2312C142.978 30.5455 139.695 28.5004 138.159 30.7215C136.624 32.9426 134.312 36.5291 134.603 39.4359Z" fill="url(#paint19_linear_1074_4037)"/>
<path d="M145.363 54.765C145.363 54.765 149.125 61.4404 150.825 61.6042C152.524 61.7681 176.81 51.1724 176.81 51.1724L180.572 49.9587C180.572 49.9587 181.428 45.8564 181.598 45.0007C181.768 44.1451 183.133 41.2443 181.252 40.8984C179.371 40.5525 176.476 42.9678 176.476 42.9678L175.105 46.3904L154.593 52.7138L152.487 49.012L145.363 54.765Z" fill="url(#paint20_linear_1074_4037)"/>
<path d="M167.234 6.508C168.089 4.55393 167.313 1.82916 165.28 1.17376C163.605 0.627597 161.827 1.58036 160.067 1.61677C158.568 1.61677 157.136 1.00991 155.649 0.833927C153.887 0.682473 152.129 1.15933 150.685 2.18005C149.241 3.20078 148.205 4.69952 147.76 6.4109C147.682 6.94025 147.533 7.45667 147.317 7.94624C146.71 9.04464 145.157 9.49978 144.853 10.7196C144.765 11.3193 144.849 11.9318 145.096 12.4855L147.026 18.2324C147.244 18.8756 147.736 19.6646 148.379 19.4461C148.737 19.3247 148.907 18.9242 149.04 18.5601L150.333 14.9614C151.498 14.8583 151.243 17.5709 152.402 17.3889C153.155 17.2675 153.009 16.1752 152.821 15.4105C152.736 14.9099 152.751 14.3974 152.864 13.9025C152.978 13.4075 153.188 12.9399 153.483 12.5266C153.778 12.1132 154.152 11.7622 154.583 11.4937C155.014 11.2253 155.494 11.0447 155.995 10.9623C156.559 10.9714 157.12 10.8789 157.652 10.6892C157.98 10.4424 158.322 10.2155 158.677 10.0095C160.103 9.4755 161.614 10.671 163.241 10.052C164.978 9.42849 166.408 8.15913 167.234 6.508Z" fill="#3F3D56"/>
<path d="M180.918 122.623L182.114 125.876L191.344 125.706L179.723 131.004L177.502 123.825L180.918 122.623Z" fill="#7497F7"/>
<path d="M180.148 123.054L181.349 126.301L190.573 126.131L178.952 131.429L176.731 124.25L180.148 123.054Z" fill="url(#paint21_linear_1074_4037)"/>
<path d="M197.158 112.883L198.353 116.13L207.583 115.96L195.962 121.258L193.741 114.079L197.158 112.883Z" fill="#7497F7"/>
<path d="M196.387 113.308L197.582 116.561L206.819 116.385L195.191 121.689L192.97 114.503L196.387 113.308Z" fill="url(#paint22_linear_1074_4037)"/>
</g>
<defs>
<linearGradient id="paint0_linear_1074_4037" x1="160.831" y1="51.8581" x2="188.868" y2="51.8581" gradientUnits="userSpaceOnUse">
<stop stop-color="#ECC4D7"/>
<stop offset="0.42" stop-color="#EFD4D1"/>
<stop offset="1" stop-color="#F2EAC9"/>
</linearGradient>
<linearGradient id="paint1_linear_1074_4037" x1="160.067" y1="38.8654" x2="168.095" y2="38.8654" gradientUnits="userSpaceOnUse">
<stop offset="0.02" stop-color="white" stop-opacity="0"/>
<stop offset="0.58" stop-color="white" stop-opacity="0.39"/>
<stop offset="0.68" stop-color="white" stop-opacity="0.68"/>
<stop offset="1" stop-color="white"/>
</linearGradient>
<linearGradient id="paint2_linear_1074_4037" x1="243.552" y1="134.269" x2="244.917" y2="166.408" gradientUnits="userSpaceOnUse">
<stop stop-opacity="0"/>
<stop offset="0.99"/>
</linearGradient>
<linearGradient id="paint3_linear_1074_4037" x1="50.4025" y1="165.37" x2="183.255" y2="165.37" gradientUnits="userSpaceOnUse">
<stop stop-opacity="0"/>
<stop offset="0.99"/>
</linearGradient>
<linearGradient id="paint4_linear_1074_4037" x1="196.751" y1="226.99" x2="194.7" y2="194.171" gradientUnits="userSpaceOnUse">
<stop stop-opacity="0"/>
<stop offset="0.99"/>
</linearGradient>
<linearGradient id="paint5_linear_1074_4037" x1="245.845" y1="223.767" x2="246.191" y2="202.06" gradientUnits="userSpaceOnUse">
<stop stop-opacity="0"/>
<stop offset="0.99"/>
</linearGradient>
<linearGradient id="paint6_linear_1074_4037" x1="111.009" y1="265.027" x2="110.536" y2="230.892" gradientUnits="userSpaceOnUse">
<stop stop-opacity="0"/>
<stop offset="0.99"/>
</linearGradient>
<linearGradient id="paint7_linear_1074_4037" x1="100.887" y1="247.671" x2="108.114" y2="-32.106" gradientUnits="userSpaceOnUse">
<stop stop-opacity="0"/>
<stop offset="0.99"/>
</linearGradient>
<linearGradient id="paint8_linear_1074_4037" x1="199.197" y1="135.853" x2="200.222" y2="164.229" gradientUnits="userSpaceOnUse">
<stop stop-opacity="0"/>
<stop offset="0.99"/>
</linearGradient>
<linearGradient id="paint9_linear_1074_4037" x1="243.011" y1="155.084" x2="247.344" y2="155.084" gradientUnits="userSpaceOnUse">
<stop stop-opacity="0"/>
<stop offset="0.99"/>
</linearGradient>
<linearGradient id="paint10_linear_1074_4037" x1="237.574" y1="155.084" x2="241.907" y2="155.084" gradientUnits="userSpaceOnUse">
<stop stop-opacity="0"/>
<stop offset="0.99"/>
</linearGradient>
<linearGradient id="paint11_linear_1074_4037" x1="232.203" y1="155.084" x2="236.542" y2="155.084" gradientUnits="userSpaceOnUse">
<stop stop-opacity="0"/>
<stop offset="0.99"/>
</linearGradient>
<linearGradient id="paint12_linear_1074_4037" x1="276.091" y1="119.904" x2="421.117" y2="123.09" gradientUnits="userSpaceOnUse">
<stop stop-opacity="0"/>
<stop offset="0.99"/>
</linearGradient>
<linearGradient id="paint13_linear_1074_4037" x1="236.221" y1="85.4717" x2="504.65" y2="91.3703" gradientUnits="userSpaceOnUse">
<stop stop-opacity="0"/>
<stop offset="0.99"/>
</linearGradient>
<linearGradient id="paint14_linear_1074_4037" x1="290.71" y1="147.437" x2="292.937" y2="192.702" gradientUnits="userSpaceOnUse">
<stop stop-opacity="0"/>
<stop offset="0.99"/>
</linearGradient>
<linearGradient id="paint15_linear_1074_4037" x1="368.266" y1="296.128" x2="-120.839" y2="256.155" gradientUnits="userSpaceOnUse">
<stop stop-opacity="0"/>
<stop offset="0.41" stop-opacity="0.41"/>
<stop offset="0.99"/>
</linearGradient>
<linearGradient id="paint16_linear_1074_4037" x1="134.312" y1="49.6006" x2="162.343" y2="49.6006" gradientUnits="userSpaceOnUse">
<stop offset="0.02" stop-color="white" stop-opacity="0"/>
<stop offset="0.58" stop-color="white" stop-opacity="0.39"/>
<stop offset="0.68" stop-color="white" stop-opacity="0.68"/>
<stop offset="1" stop-color="white"/>
</linearGradient>
<linearGradient id="paint17_linear_1074_4037" x1="190.082" y1="92.2199" x2="148.543" y2="98.5433" gradientUnits="userSpaceOnUse">
<stop stop-opacity="0"/>
<stop offset="0.99"/>
</linearGradient>
<linearGradient id="paint18_linear_1074_4037" x1="144.98" y1="18.8817" x2="163.32" y2="18.8817" gradientUnits="userSpaceOnUse">
<stop stop-color="#ECC4D7"/>
<stop offset="0.42" stop-color="#EFD4D1"/>
<stop offset="1" stop-color="#F2EAC9"/>
</linearGradient>
<linearGradient id="paint19_linear_1074_4037" x1="134.658" y1="45.9353" x2="153.343" y2="37.1602" gradientUnits="userSpaceOnUse">
<stop offset="0.02" stop-color="white" stop-opacity="0"/>
<stop offset="0.58" stop-color="white" stop-opacity="0.39"/>
<stop offset="0.68" stop-color="white" stop-opacity="0.68"/>
<stop offset="1" stop-color="white"/>
</linearGradient>
<linearGradient id="paint20_linear_1074_4037" x1="145.363" y1="51.2452" x2="182.241" y2="51.2452" gradientUnits="userSpaceOnUse">
<stop stop-color="#ECC4D7"/>
<stop offset="0.42" stop-color="#EFD4D1"/>
<stop offset="1" stop-color="#F2EAC9"/>
</linearGradient>
<linearGradient id="paint21_linear_1074_4037" x1="176.731" y1="127.241" x2="190.579" y2="127.241" gradientUnits="userSpaceOnUse">
<stop stop-opacity="0"/>
<stop offset="0.99"/>
</linearGradient>
<linearGradient id="paint22_linear_1074_4037" x1="192.97" y1="117.495" x2="206.813" y2="117.495" gradientUnits="userSpaceOnUse">
<stop stop-opacity="0"/>
<stop offset="0.99"/>
</linearGradient>
<clipPath id="clip0_1074_4037">
<rect width="382.118" height="288" fill="white" transform="translate(0 0.791504)"/>
</clipPath>
</defs>
</svg>
