<svg width="20" height="21" viewBox="0 0 20 21" fill="none" xmlns="http://www.w3.org/2000/svg">
<path d="M10.5893 4.36896C10.2638 4.04352 9.73618 4.04352 9.41074 4.36896C9.0853 4.69439 9.0853 5.22203 9.41074 5.54747L13.8215 9.95821H4.16666C3.70642 9.95821 3.33333 10.3313 3.33333 10.7915C3.33333 11.2518 3.70642 11.6249 4.16666 11.6249H13.8215L9.41074 16.0356C9.0853 16.3611 9.0853 16.8887 9.41074 17.2141C9.73618 17.5396 10.2638 17.5396 10.5893 17.2141L16.4226 11.3808C16.5853 11.2181 16.6667 11.0048 16.6667 10.7915C16.6667 10.6786 16.6442 10.5708 16.6034 10.4726C16.5628 10.3743 16.5025 10.2822 16.4226 10.2023L10.5893 4.36896Z" fill="#FF8B8B"/>
</svg>
