<svg width="80" height="81" viewBox="0 0 80 81" fill="none" xmlns="http://www.w3.org/2000/svg">
<g clip-path="url(#clip0_1090_3937)">
<path d="M66.6261 39.1873L42.0489 14.5259L39.6674 12.1363L21.1663 30.7007L12.7061 39.1873C12.2835 39.6135 12.0463 40.1902 12.0463 40.7915C12.0463 41.3927 12.2835 41.9694 12.7061 42.3956L29.6086 59.3559L39.6674 69.4467L58.166 50.8822L58.4541 50.5956L66.6261 42.4084C66.8379 42.1975 67.006 41.9466 67.1207 41.6702C67.2354 41.3937 67.2944 41.0973 67.2944 40.7979C67.2944 40.4984 67.2354 40.202 67.1207 39.9256C67.006 39.6491 66.8379 39.3982 66.6261 39.1873ZM39.6674 49.2652L31.2226 40.7915L39.6674 32.3177L48.1097 40.7915L39.6674 49.2652Z" fill="#2684FF"/>
<path d="M39.6673 32.3177C37.0114 29.6534 35.5142 26.0426 35.5028 22.2742C35.4913 18.5058 36.9665 14.886 39.6061 12.2054L21.128 30.7392L31.1842 40.8299L39.6673 32.3177Z" fill="url(#paint0_linear_1090_3937)"/>
<path d="M48.1324 40.7683L39.6672 49.2651C42.3331 51.9409 43.8308 55.5696 43.8308 59.3533C43.8308 63.1369 42.3331 66.7656 39.6672 69.4414L58.1963 50.859L48.1324 40.7683Z" fill="url(#paint1_linear_1090_3937)"/>
</g>
<defs>
<linearGradient id="paint0_linear_1090_3937" x1="38.1553" y1="23.7442" x2="26.3223" y2="35.5342" gradientUnits="userSpaceOnUse">
<stop offset="0.18" stop-color="#0052CC"/>
<stop offset="1" stop-color="#2684FF"/>
</linearGradient>
<linearGradient id="paint1_linear_1090_3937" x1="41.2786" y1="57.7363" x2="53.0886" y2="45.9692" gradientUnits="userSpaceOnUse">
<stop offset="0.18" stop-color="#0052CC"/>
<stop offset="1" stop-color="#2684FF"/>
</linearGradient>
<clipPath id="clip0_1090_3937">
<rect width="54.5882" height="58" fill="white" transform="translate(12.7059 11.7915)"/>
</clipPath>
</defs>
</svg>
