<svg width="88" height="87" viewBox="0 0 88 87" fill="none" xmlns="http://www.w3.org/2000/svg">
<path d="M44 87C68.0244 87 87.5 67.5244 87.5 43.5C87.5 19.4756 68.0244 0 44 0C19.9756 0 0.5 19.4756 0.5 43.5C0.5 67.5244 19.9756 87 44 87Z" fill="white"/>
<path d="M19.0061 22.2889H15.3302C14.2243 22.2889 13.3279 23.117 13.3279 24.1385V41.9447C13.3279 42.9662 14.2243 43.7943 15.3302 43.7943H19.0061C20.1119 43.7943 21.0084 42.9662 21.0084 41.9447V24.1385C21.0084 23.117 20.1119 22.2889 19.0061 22.2889Z" fill="#ED6A45"/>
<path d="M30.0278 16.1443H25.814C24.8567 16.1443 24.0806 16.8685 24.0806 17.7618V42.1768C24.0806 43.0701 24.8567 43.7942 25.814 43.7942H30.0278C30.9851 43.7942 31.7611 43.0701 31.7611 42.1768V17.7618C31.7611 16.8685 30.9851 16.1443 30.0278 16.1443Z" fill="#ED6A45"/>
<path d="M40.6909 10H36.6564C35.6495 10 34.8334 10.7789 34.8334 11.7396V42.0547C34.8334 43.0154 35.6495 43.7943 36.6564 43.7943H40.6909C41.6977 43.7943 42.5139 43.0154 42.5139 42.0547V11.7396C42.5139 10.7789 41.6977 10 40.6909 10Z" fill="#ED6A45"/>
<path d="M48.7847 45.5099H11.9307C10.738 45.5099 9.77118 45.846 9.77118 46.2606V48.1902C9.77118 48.6049 10.738 48.941 11.9307 48.941H48.7847C49.9774 48.941 50.9442 48.6049 50.9442 48.1902V46.2606C50.9442 45.846 49.9774 45.5099 48.7847 45.5099Z" fill="#ED6A45"/>
<path d="M54.4267 30.6017C42.1606 30.6017 32.2276 40.5347 32.2276 52.8009C32.2276 65.067 42.1606 75 54.4267 75C66.6929 75 76.6258 65.067 76.6258 52.8009H54.4267V30.6017Z" fill="#25306A"/>
<path d="M56.2109 29.092V51.2912H78.41C78.41 39.025 68.477 29.092 56.2109 29.092Z" fill="#ED6A45"/>
<path d="M8.72473 40.1916L31.1126 26.7933L36.5508 31.0821L60.7571 17.4092" stroke="#25306A" stroke-width="3.32448" stroke-miterlimit="10"/>
<path d="M65.0803 14.7158L56.5369 24.8204L52.0593 17.0661L65.0803 14.7158Z" fill="#25306A"/>
</svg>
