<svg width="88" height="88" viewBox="0 0 88 88" fill="none" xmlns="http://www.w3.org/2000/svg">
<g clip-path="url(#clip0_91_303)">
<path d="M86.4475 53.5146C91.9323 30.0749 77.377 6.62707 53.9373 1.1423C30.4977 -4.34248 7.0498 10.2128 1.56503 33.6525C-3.91974 57.0921 10.6356 80.54 34.0752 86.0247C57.5148 91.5095 80.9627 76.9542 86.4475 53.5146Z" fill="white"/>
<path d="M40.3643 8.55522C44.307 11.1497 48.2497 13.7441 52.2537 16.3794C47.9637 18.7287 43.7146 21.0371 39.445 23.3864C39.4654 22.9574 39.5063 22.5693 39.5267 22.2016C39.5267 21.8338 39.5267 21.4661 39.5267 21.0371C33.1325 22.4876 28.1479 25.8583 24.7159 31.4149C21.3043 36.951 20.5281 42.9366 22.1215 49.2899C21.6516 48.9426 21.2022 48.6158 20.7732 48.2685C19.2002 47.0428 17.6272 45.8171 16.0542 44.5914C15.7273 44.3462 15.7069 44.3462 15.5435 44.7343C15.0736 45.8988 14.6037 47.0632 14.1543 48.2276C13.6436 49.5555 13.1533 50.8834 12.6426 52.2112C12.6017 52.2929 12.5609 52.3747 12.4792 52.4972C12.3566 52.0682 12.2136 51.7005 12.1523 51.3124C11.9072 50.1071 11.6416 48.8814 11.4577 47.6761C11.1309 45.6945 11.0696 43.6925 11.1717 41.6905C11.2534 40.383 11.4169 39.0552 11.6212 37.7478C11.7846 36.665 12.0502 35.5823 12.3157 34.4996C12.7447 32.8449 13.3372 31.231 14.0317 29.6784C14.7263 28.1259 15.523 26.655 16.4423 25.225C18.5873 21.936 21.2431 19.1168 24.4095 16.7675C26.5749 15.1537 28.9038 13.8462 31.3961 12.8248C33.2551 12.0485 35.1754 11.4357 37.157 11.0475C37.9945 10.8841 38.8321 10.7615 39.6697 10.6185C40.1191 10.5368 40.1396 10.5368 40.16 10.0669C40.16 9.57665 40.2008 9.08636 40.2213 8.59608L40.3234 8.53479L40.3643 8.55522Z" fill="#25306A"/>
<path d="M75.665 57.9313C71.3341 60.015 67.0645 62.0579 62.7541 64.1212C62.9583 59.2387 63.1422 54.438 63.3465 49.5555C63.7959 49.862 64.1841 50.1275 64.5926 50.3931C64.6539 50.434 64.7356 50.4953 64.7969 50.5361C65.3076 50.8834 65.3076 50.863 65.5119 50.2705C65.9818 48.7588 66.3495 47.2267 66.4925 45.6537C66.6151 44.3462 66.7376 43.0184 66.5538 41.6905C66.4108 40.7099 66.3291 39.7089 66.1656 38.7488C65.9205 37.3188 65.4711 35.9501 64.9195 34.6222C63.6325 31.5375 61.7735 28.8613 59.322 26.5937C57.1975 24.6122 54.7665 23.1209 52.0494 22.0994C51.4162 21.8543 50.7624 21.65 50.0679 21.4049C50.9872 21.0371 51.8656 20.7103 52.744 20.363C54.2149 19.791 55.7062 19.219 57.177 18.647C57.5856 18.4836 57.5856 18.4631 57.32 18.1158C55.9717 16.359 54.6235 14.6021 53.2752 12.8657C52.9483 12.4367 52.601 12.0077 52.2946 11.5174C52.9483 11.7013 53.5816 11.8851 54.2353 12.0894C57.5448 13.1721 60.609 14.7247 63.4282 16.7676C65.9818 18.6266 68.2289 20.8329 70.1492 23.3456C71.4771 25.1024 72.6415 26.941 73.6017 28.9226C74.5414 30.8633 75.2972 32.8653 75.8284 34.9695C76.1961 36.3995 76.5025 37.8703 76.6251 39.3412C76.7272 40.6282 76.8703 41.9152 76.8907 43.2022C76.9111 44.9999 76.7477 46.7772 76.4617 48.5545C76.1144 50.7608 75.522 52.8854 74.7457 54.9896C74.5618 55.5003 74.3371 56.011 74.1124 56.5217C74.0102 56.7464 74.0715 56.869 74.2554 57.012C74.7252 57.3184 75.1747 57.6248 75.6854 57.9926L75.665 57.9313Z" fill="#25306A"/>
<path d="M60.0779 59.0957C59.9758 59.9332 59.8532 60.7504 59.751 61.5879C59.608 62.6911 59.4446 63.7738 59.3016 64.877C59.2199 65.4898 59.1382 66.1231 59.0565 66.736C59.0156 66.9607 59.0973 67.0424 59.322 67.0015C60.466 66.8381 61.61 66.6747 62.754 66.5113C63.612 66.3887 64.4701 66.2661 65.3281 66.1231C66.0226 66.021 66.6968 65.8984 67.3914 65.7962C67.4526 65.7962 67.5344 65.7962 67.6774 65.7758C67.5344 65.9392 67.4526 66.0414 67.3505 66.1231C65.2055 68.3294 62.7949 70.1884 60.1188 71.7001C57.9329 72.9463 55.6449 73.9269 53.2343 74.6214C51.8043 75.03 50.3334 75.3773 48.8626 75.602C46.4111 75.9901 43.9393 76.1127 41.4674 75.888C40.1191 75.7654 38.7504 75.6224 37.4225 75.3569C36.0742 75.0913 34.7464 74.6827 33.4185 74.2946C31.5391 73.7226 29.7618 72.9054 28.0458 71.9657C25.3083 70.4744 22.816 68.6563 20.6506 66.4091C19.6292 65.3468 18.6895 64.2028 17.7293 63.0792C17.525 62.8545 17.382 62.8341 17.1369 62.9567C16.6874 63.2018 16.2176 63.4265 15.666 63.7125C15.952 58.9322 16.2176 54.2132 16.5036 49.4125C20.671 51.9456 24.7976 54.4583 28.9651 56.9915C28.5973 57.1754 28.2705 57.3388 27.9436 57.5022C27.6781 57.6452 27.3921 57.7882 27.1265 57.9312C26.9631 58.0129 26.9222 58.0947 27.0652 58.2581C28.4952 59.8515 30.1295 61.2202 31.9476 62.3438C33.7454 63.4674 35.6452 64.3254 37.6881 64.8974C38.6482 65.163 39.6492 65.3468 40.6298 65.5102C42.305 65.7962 44.0005 65.8371 45.6961 65.6941C47.2487 65.5511 48.7604 65.2855 50.2517 64.8565C52.458 64.2028 54.5213 63.2631 56.4416 61.9965C57.5856 61.2202 58.6887 60.3827 59.6693 59.4021C59.7715 59.2999 59.894 59.1978 59.9962 59.0957H60.0575H60.0779Z" fill="#25306A"/>
<path d="M44.0006 59.2386C52.6881 59.2386 59.7307 52.196 59.7307 43.5086C59.7307 34.8211 52.6881 27.7785 44.0006 27.7785C35.3132 27.7785 28.2706 34.8211 28.2706 43.5086C28.2706 52.196 35.3132 59.2386 44.0006 59.2386Z" fill="#ED6A45"/>
<path d="M36.0733 45.3524C36.0733 45.1667 36.0458 45.0028 35.9909 44.8608C35.9393 44.7152 35.8466 44.5841 35.7126 44.4675C35.582 44.351 35.4 44.2399 35.1663 44.1343C34.9362 44.0287 34.6441 43.9213 34.2903 43.8121C33.9192 43.6955 33.5843 43.5663 33.2854 43.4243C32.9865 43.2786 32.7305 43.1129 32.5175 42.9272C32.3045 42.7415 32.1413 42.5285 32.028 42.2881C31.9146 42.0478 31.8579 41.7729 31.8579 41.4633C31.8579 41.1538 31.918 40.8679 32.0383 40.6058C32.1585 40.3436 32.3303 40.116 32.5536 39.923C32.7803 39.7263 33.05 39.5734 33.3627 39.4642C33.6753 39.3549 34.024 39.3003 34.4088 39.3003C34.9722 39.3003 35.4498 39.415 35.8414 39.6444C36.2365 39.8702 36.5371 40.167 36.7433 40.5348C36.9494 40.8989 37.0525 41.2885 37.0525 41.7037H36.063C36.063 41.4051 36.0029 41.1411 35.8827 40.9116C35.7624 40.6786 35.5803 40.4965 35.3364 40.3654C35.0925 40.2307 34.7833 40.1633 34.4088 40.1633C34.0549 40.1633 33.7629 40.2198 33.5327 40.3326C33.3026 40.4455 33.1308 40.5985 33.0174 40.7915C32.9075 40.9845 32.8525 41.2048 32.8525 41.4524C32.8525 41.6199 32.8851 41.7729 32.9504 41.9112C33.0191 42.046 33.1239 42.1716 33.2648 42.2881C33.4091 42.4046 33.5911 42.5121 33.811 42.6104C34.0343 42.7087 34.3006 42.8034 34.6098 42.8944C35.0358 43.0219 35.4034 43.1639 35.7126 43.3205C36.0218 43.4771 36.276 43.6537 36.4753 43.8503C36.678 44.0433 36.8274 44.2636 36.9236 44.5112C37.0233 44.7552 37.0731 45.032 37.0731 45.3415C37.0731 45.6656 37.0112 45.9587 36.8875 46.2209C36.7639 46.4831 36.5869 46.707 36.3568 46.8928C36.1266 47.0785 35.85 47.2223 35.5271 47.3243C35.2076 47.4226 34.8503 47.4718 34.4552 47.4718C34.1082 47.4718 33.7664 47.4208 33.4297 47.3188C33.0964 47.2168 32.7924 47.0639 32.5175 46.86C32.2461 46.6561 32.028 46.4048 31.8631 46.1062C31.7016 45.804 31.6208 45.4544 31.6208 45.0575H32.6103C32.6103 45.3306 32.6601 45.5654 32.7597 45.7621C32.8594 45.9551 32.9951 46.1153 33.1668 46.2428C33.3421 46.3702 33.5396 46.4649 33.7595 46.5268C33.9828 46.5851 34.2147 46.6142 34.4552 46.6142C34.8022 46.6142 35.0959 46.5632 35.3364 46.4612C35.5769 46.3593 35.759 46.2136 35.8827 46.0243C36.0098 45.8349 36.0733 45.611 36.0733 45.3524Z" fill="white"/>
<path d="M40.3712 47.3625H38.8046L38.8149 46.5049H40.3712C40.9071 46.5049 41.3538 46.3866 41.7111 46.1499C42.0684 45.9096 42.3363 45.5745 42.515 45.1449C42.6971 44.7115 42.7881 44.2054 42.7881 43.6264V43.1402C42.7881 42.685 42.7366 42.2808 42.6335 41.9276C42.5304 41.5707 42.3793 41.2703 42.18 41.0263C41.9808 40.7787 41.7368 40.5912 41.4482 40.4637C41.1631 40.3363 40.835 40.2726 40.464 40.2726H38.7737V39.4095H40.464C40.9552 39.4095 41.4036 39.4969 41.809 39.6717C42.2144 39.8429 42.5631 40.0923 42.8551 40.42C43.1506 40.7441 43.3773 41.1374 43.5353 41.5999C43.6934 42.0587 43.7724 42.5758 43.7724 43.1511V43.6264C43.7724 44.2017 43.6934 44.7206 43.5353 45.1831C43.3773 45.6419 43.1488 46.0334 42.8499 46.3575C42.5545 46.6816 42.1972 46.931 41.7781 47.1058C41.3624 47.2769 40.8934 47.3625 40.3712 47.3625ZM39.3354 39.4095V47.3625H38.3408V39.4095H39.3354Z" fill="white"/>
<path d="M49.8172 46.5049V47.3625H46.0656V46.5049H49.8172ZM46.2615 39.4095V47.3625H45.2669V39.4095H46.2615Z" fill="white"/>
<path d="M55.1458 44.8335H56.1352C56.0837 45.336 55.948 45.7858 55.7281 46.1827C55.5082 46.5796 55.1973 46.8946 54.7954 47.1276C54.3934 47.357 53.8918 47.4718 53.2906 47.4718C52.8508 47.4718 52.4506 47.3844 52.0899 47.2096C51.7326 47.0348 51.4251 46.7872 51.1674 46.4667C50.9098 46.1426 50.7105 45.7548 50.5696 45.3033C50.4322 44.8481 50.3635 44.3419 50.3635 43.7848V42.9927C50.3635 42.4356 50.4322 41.9313 50.5696 41.4797C50.7105 41.0245 50.9115 40.6349 51.1726 40.3108C51.4371 39.9867 51.7549 39.7373 52.1259 39.5625C52.497 39.3877 52.9144 39.3003 53.3782 39.3003C53.9451 39.3003 54.4243 39.4132 54.816 39.6389C55.2076 39.8647 55.5117 40.1779 55.7281 40.5784C55.948 40.9754 56.0837 41.436 56.1352 41.9604H55.1458C55.0977 41.589 55.0084 41.2703 54.8778 41.0045C54.7473 40.735 54.5617 40.5275 54.3213 40.3818C54.0808 40.2362 53.7664 40.1633 53.3782 40.1633C53.0449 40.1633 52.7512 40.2307 52.497 40.3654C52.2462 40.5002 52.0349 40.6913 51.8631 40.939C51.6948 41.1866 51.5677 41.4834 51.4818 41.8293C51.3959 42.1752 51.3529 42.5594 51.3529 42.9818V43.7848C51.3529 44.1744 51.3907 44.5404 51.4663 44.8827C51.5453 45.225 51.6639 45.5254 51.8219 45.7839C51.9799 46.0425 52.1809 46.2464 52.4248 46.3957C52.6688 46.5414 52.9573 46.6142 53.2906 46.6142C53.7132 46.6142 54.0498 46.5432 54.3006 46.4012C54.5514 46.2591 54.7404 46.0552 54.8675 45.7894C54.9981 45.5236 55.0908 45.2049 55.1458 44.8335Z" fill="white"/>
</g>
<defs>
<clipPath id="clip0_91_303">
<rect width="87.1753" height="87.1753" fill="white" transform="translate(0.412354)"/>
</clipPath>
</defs>
</svg>
